<?xml version="1.0" encoding="UTF-8"?> <svg xmlns="http://www.w3.org/2000/svg" width="31" height="26" viewBox="0 0 31 26" fill="none"><path d="M29.0654 20.3334C29.148 20.3493 29.2328 20.3488 29.3152 20.3318C29.3975 20.3149 29.4757 20.2819 29.5453 20.2347C29.6148 20.1875 29.6744 20.127 29.7205 20.0568C29.7667 19.9865 29.7986 19.9078 29.8143 19.8253L30.3492 16.9957C30.3653 16.9133 30.3649 16.8286 30.3479 16.7464C30.3309 16.6642 30.2977 16.5862 30.2502 16.517C30.1544 16.3774 30.0074 16.2812 29.841 16.2495L28.7499 16.0436C28.6977 15.4455 28.5747 14.8556 28.3835 14.2865L29.3035 13.6607C29.373 13.6136 29.4326 13.5534 29.4789 13.4833C29.5251 13.4132 29.5571 13.3347 29.573 13.2522C29.5889 13.1697 29.5884 13.085 29.5715 13.0027C29.5546 12.9204 29.5217 12.8423 29.4746 12.7728L27.8566 10.3898C27.7604 10.2506 27.6135 10.1546 27.4474 10.1224C27.3646 10.1063 27.2794 10.1068 27.1968 10.1238C27.1142 10.1408 27.0357 10.1739 26.966 10.2214L26.046 10.8472C25.5879 10.4596 25.0851 10.1283 24.5483 9.86031L24.7569 8.76914C24.7883 8.60252 24.7525 8.43024 24.6573 8.28993C24.5621 8.14963 24.4152 8.0527 24.2488 8.0203L21.4192 7.48541C21.2523 7.45482 21.08 7.49131 20.9398 7.58694C20.7996 7.68258 20.7028 7.82965 20.6704 7.99623L20.4618 9.0874C19.8647 9.1389 19.2757 9.26099 18.7073 9.45112L18.0815 8.53112C17.9856 8.39164 17.8385 8.29567 17.6723 8.26412C17.506 8.23256 17.3339 8.26797 17.1936 8.36263L14.8107 9.96729C14.6711 10.0631 14.5749 10.2101 14.5433 10.3765C14.5271 10.4588 14.5275 10.5436 14.5445 10.6258C14.5615 10.708 14.5947 10.786 14.6422 10.8552L15.268 11.7752C14.8811 12.2337 14.5498 12.7364 14.2812 13.2729L13.19 13.067C13.0234 13.0356 12.8511 13.0714 12.7108 13.1666C12.5705 13.2618 12.4735 13.4087 12.4411 13.5751L11.9063 16.402C11.8749 16.569 11.9111 16.7416 12.0069 16.882C12.1026 17.0224 12.2502 17.119 12.4171 17.1508L13.5082 17.3594C13.56 17.9574 13.6821 18.5472 13.872 19.1165L12.952 19.7397C12.8123 19.8361 12.7163 19.9836 12.6847 20.1503C12.6532 20.3171 12.6887 20.4895 12.7835 20.6303L14.4015 23.0105C14.4484 23.0802 14.5088 23.1397 14.579 23.1856C14.6493 23.2316 14.7281 23.263 14.8107 23.278C14.9774 23.3083 15.1494 23.2718 15.2894 23.1763L16.2094 22.5532C16.6685 22.9399 17.1722 23.2703 17.7098 23.5374L17.5012 24.6285C17.4849 24.7111 17.4852 24.7961 17.502 24.8786C17.5188 24.961 17.5517 25.0394 17.599 25.109C17.6462 25.1786 17.7068 25.2382 17.7773 25.2843C17.8477 25.3304 17.9266 25.362 18.0093 25.3774L20.8362 25.9123C20.8762 25.9162 20.9165 25.9162 20.9565 25.9123C21.1052 25.9119 21.2491 25.86 21.3637 25.7654C21.4783 25.6708 21.5566 25.5393 21.585 25.3934L21.7936 24.3023C22.3909 24.2499 22.9798 24.1269 23.5481 23.9359L24.1739 24.8559C24.2697 24.9955 24.4167 25.0916 24.5831 25.1233C24.7503 25.1546 24.9232 25.1191 25.0645 25.0244L27.4447 23.4063C27.585 23.3104 27.6814 23.1628 27.713 22.9959C27.7446 22.8289 27.7087 22.6563 27.6132 22.5157L26.9901 21.5957C27.3768 21.1376 27.7072 20.6348 27.9743 20.098L29.0654 20.3334ZM27.0115 19.1566C26.7068 19.8871 26.2677 20.5539 25.717 21.1224C25.6152 21.2278 25.5527 21.3651 25.54 21.5112C25.5274 21.6573 25.5653 21.8033 25.6475 21.9247L26.1824 22.727L24.8692 23.631L24.3344 22.8286C24.2516 22.7073 24.1297 22.618 23.9891 22.5756C23.8484 22.5333 23.6975 22.5405 23.5614 22.596C22.83 22.8992 22.0478 23.0616 21.2561 23.0747C21.1088 23.0771 20.9668 23.1303 20.8543 23.2254C20.7417 23.3204 20.6654 23.4514 20.6383 23.5962L20.4564 24.551L18.8865 24.2514L19.0684 23.294C19.0956 23.1499 19.0725 23.0009 19.0028 22.8718C18.9332 22.7428 18.8213 22.6416 18.686 22.5853C17.9547 22.2807 17.287 21.8416 16.7176 21.2908C16.6118 21.1894 16.4746 21.1272 16.3287 21.1146C16.1827 21.1019 16.0368 21.1396 15.9152 21.2213L15.1129 21.7696L14.2143 20.4484L15.0166 19.9001C15.1379 19.8173 15.227 19.6953 15.2689 19.5545C15.3108 19.4138 15.3029 19.2629 15.2466 19.1272C14.9447 18.3954 14.7823 17.6135 14.7679 16.8219C14.7656 16.6749 14.7128 16.5333 14.6183 16.4208C14.5238 16.3082 14.3934 16.2317 14.2491 16.2041L13.2916 16.0222L13.5912 14.4523L14.5486 14.6342C14.6905 14.6563 14.8356 14.6304 14.9611 14.5607C15.0866 14.4909 15.1852 14.3812 15.2413 14.2491C15.544 13.5168 15.9833 12.8487 16.5357 12.2807C16.6372 12.1749 16.6992 12.0374 16.7113 11.8914C16.7235 11.7453 16.6851 11.5995 16.6026 11.4783L16.0543 10.676L17.3782 9.7774L17.9264 10.5797C18.0096 10.7006 18.1316 10.7894 18.2722 10.8313C18.4129 10.8731 18.5636 10.8655 18.6993 10.8097C19.4311 10.5075 20.2131 10.3451 21.0047 10.331C21.1513 10.3286 21.2926 10.2757 21.4046 10.1811C21.5167 10.0866 21.5927 9.95627 21.6198 9.81217L21.8043 8.85472L23.3742 9.15426L23.1924 10.1117C23.1645 10.2562 23.1873 10.4059 23.257 10.5355C23.3267 10.6651 23.4389 10.7667 23.5748 10.8231C24.3057 11.1259 24.9726 11.5642 25.5405 12.1149C25.646 12.2167 25.7833 12.2792 25.9294 12.2919C26.0754 12.3045 26.2214 12.2666 26.3429 12.1844L27.1452 11.6495L28.0438 12.9734L27.2415 13.5216C27.1197 13.604 27.0301 13.7259 26.9877 13.8667C26.9453 14.0075 26.9528 14.1586 27.0088 14.2945C27.312 15.026 27.4744 15.8082 27.4875 16.5999C27.491 16.749 27.5463 16.8922 27.6439 17.0049C27.7416 17.1176 27.8754 17.1929 28.0224 17.2177L28.9772 17.3995L28.6776 18.9694L27.7202 18.7876C27.5773 18.7577 27.4284 18.7782 27.2988 18.8454C27.1691 18.9127 27.0667 19.0226 27.0088 19.1566H27.0115Z" fill="white"></path><path d="M21.9943 12.1841C20.7959 11.9554 19.5558 12.2121 18.5467 12.8977C17.5375 13.5833 16.8421 14.6417 16.6133 15.8401C16.3846 17.0385 16.6413 18.2786 17.3269 19.2877C18.0125 20.2969 19.0709 20.9923 20.2693 21.2211C20.554 21.2755 20.8433 21.3023 21.1331 21.3013C22.2768 21.2992 23.3788 20.8712 24.224 20.1007C25.0692 19.3302 25.597 18.2725 25.7046 17.1338C25.8121 15.9952 25.4916 14.8573 24.8057 13.9422C24.1197 13.0271 23.1174 12.4003 21.9943 12.1841ZM24.4013 17.3244C24.236 18.1892 23.7342 18.953 23.006 19.448C22.2779 19.943 21.383 20.1286 20.518 19.9641C19.704 19.8124 18.9761 19.3619 18.4772 18.7011C17.9782 18.0403 17.7443 17.2168 17.8214 16.3924C17.8984 15.568 18.2809 14.8021 18.8936 14.2452C19.5063 13.6883 20.3051 13.3805 21.1331 13.3823C21.6223 13.3816 22.1057 13.4889 22.5486 13.6966C22.9915 13.9043 23.383 14.2073 23.6953 14.584C24.0075 14.9606 24.2327 15.4015 24.3547 15.8752C24.4768 16.349 24.4927 16.8438 24.4013 17.3244Z" fill="white"></path><path d="M0.654895 9.77995C0.673477 9.90406 0.739788 10.016 0.839701 10.0919C0.939614 10.1679 1.06523 10.2018 1.18978 10.1865L2.01618 10.0688C2.19802 10.481 2.42879 10.8698 2.70351 11.2268L2.20339 11.8954C2.12679 11.9976 2.0939 12.126 2.11195 12.2523C2.13001 12.3787 2.19753 12.4928 2.29967 12.5694L4.03003 13.8665C4.13217 13.9431 4.26056 13.976 4.38695 13.9579C4.51334 13.9399 4.62739 13.8723 4.70399 13.7702L5.20679 13.0989C5.6272 13.2618 6.06521 13.3748 6.51191 13.4359L6.62958 14.2623C6.64628 14.3767 6.70356 14.4812 6.79096 14.5568C6.87837 14.6324 6.99006 14.6741 7.10563 14.6742H7.17517L9.31472 14.3666C9.43913 14.3487 9.5515 14.2825 9.62756 14.1824C9.70362 14.0824 9.73726 13.9564 9.72123 13.8317L9.62495 12.9919C10.0366 12.8081 10.4253 12.5765 10.783 12.3019L11.4516 12.8047C11.5023 12.8425 11.56 12.8699 11.6214 12.8854C11.6827 12.9009 11.7465 12.9041 11.8091 12.895C11.8717 12.8858 11.9318 12.8643 11.9861 12.8319C12.0404 12.7994 12.0878 12.7566 12.1255 12.7058L13.4227 10.9754C13.4609 10.925 13.4888 10.8675 13.5047 10.8062C13.5206 10.7449 13.5242 10.681 13.5152 10.6183C13.5062 10.5557 13.4849 10.4954 13.4525 10.441C13.4201 10.3866 13.3772 10.3392 13.3264 10.3015L12.6578 9.80135C12.8206 9.38021 12.9329 8.94119 12.9921 8.49355L13.8185 8.37587C13.8808 8.36696 13.9408 8.34583 13.9949 8.31371C14.0491 8.28158 14.0963 8.23909 14.134 8.18866C14.1723 8.13801 14.2001 8.08021 14.2157 8.01867C14.2313 7.95712 14.2345 7.89307 14.225 7.83029L13.9174 5.69074C13.9001 5.56584 13.8342 5.45281 13.7341 5.37619C13.6339 5.29958 13.5076 5.26557 13.3825 5.28155L12.5561 5.39923C12.3722 4.98755 12.1407 4.59888 11.8661 4.2412L12.3689 3.57259C12.4448 3.4702 12.4773 3.34201 12.4593 3.21583C12.4412 3.08965 12.3742 2.97567 12.2726 2.89863L10.5396 1.60153C10.4372 1.52562 10.309 1.49315 10.1828 1.51118C10.0567 1.5292 9.94269 1.59626 9.86565 1.69781L9.35751 2.36909C8.93699 2.20659 8.49901 2.09351 8.05238 2.03211L7.93204 1.20572C7.9141 1.0813 7.84795 0.968931 7.74788 0.892872C7.6478 0.816813 7.52182 0.783167 7.39715 0.7992L5.2576 1.10676C5.13124 1.12549 5.01711 1.19263 4.93934 1.29397C4.86437 1.39743 4.83183 1.52566 4.84841 1.65235L4.96876 2.47874C4.55609 2.66125 4.16648 2.89197 3.80806 3.16608L3.13945 2.66596C3.03781 2.58917 2.91002 2.55554 2.78375 2.57235C2.72075 2.58126 2.66014 2.60264 2.6055 2.63525C2.55085 2.66785 2.50326 2.71102 2.46549 2.76224L1.16839 4.4926C1.09179 4.59474 1.05889 4.72312 1.07695 4.84951C1.095 4.97591 1.16253 5.08995 1.26467 5.16655L1.93595 5.66667C1.77308 6.08782 1.66086 6.52683 1.60165 6.97447L0.775248 7.09214C0.648692 7.11033 0.53437 7.17758 0.456989 7.27936C0.418962 7.33015 0.391353 7.38796 0.375748 7.44947C0.360142 7.51097 0.35685 7.57495 0.36606 7.63773L0.654895 9.77995ZM2.09107 7.87308C2.20079 7.85779 2.30183 7.80492 2.37693 7.72347C2.45203 7.64203 2.49656 7.53705 2.50293 7.42645C2.54098 6.83236 2.69069 6.25077 2.94421 5.71214C2.99112 5.61187 3.00184 5.49845 2.97453 5.39117C2.94722 5.28389 2.88358 5.1894 2.79444 5.12376L2.20874 4.68515L2.92816 3.72236L3.51654 4.16364C3.60467 4.22981 3.71293 4.26355 3.82304 4.25916C3.93316 4.25478 4.03838 4.21254 4.12097 4.13957C4.56691 3.74531 5.08317 3.43863 5.64271 3.23561C5.74919 3.19712 5.83881 3.12252 5.89598 3.0248C5.95315 2.92707 5.97425 2.8124 5.95563 2.70072L5.85133 1.97595L7.04145 1.80479L7.14575 2.52956C7.16046 2.63906 7.2128 2.74004 7.2938 2.81519C7.3748 2.89033 7.47941 2.93496 7.58971 2.94142C8.18364 2.97857 8.76523 3.12737 9.30402 3.38003C9.4015 3.42932 9.51285 3.44399 9.61977 3.42164C9.72669 3.39928 9.82283 3.34122 9.8924 3.25701L10.331 2.6713L11.2938 3.39073L10.8552 3.97643C10.7883 4.06478 10.7542 4.17358 10.7586 4.28429C10.763 4.39499 10.8056 4.50075 10.8793 4.58353C11.2732 5.02973 11.5798 5.54593 11.7832 6.10528C11.8208 6.20898 11.8928 6.29664 11.9872 6.3536C12.0817 6.41055 12.1928 6.43336 12.3021 6.41819L13.0268 6.31389L13.198 7.50134L12.4732 7.60564C12.3637 7.62141 12.263 7.67443 12.1879 7.75577C12.1129 7.83712 12.0682 7.94183 12.0614 8.05227C12.0242 8.64619 11.8754 9.22779 11.6228 9.76658C11.5761 9.86665 11.5652 9.97972 11.592 10.0868C11.6188 10.194 11.6816 10.2886 11.7698 10.355L12.3555 10.7936L11.6361 11.7564L11.0504 11.3178C10.9623 11.2504 10.8534 11.2159 10.7425 11.2203C10.6317 11.2247 10.5259 11.2677 10.4433 11.3418C9.99701 11.7349 9.48081 12.0407 8.92157 12.2431C8.81787 12.2812 8.73043 12.3539 8.67394 12.4488C8.61745 12.5438 8.59535 12.6553 8.61134 12.7646L8.71297 13.4894L7.52552 13.6606L7.42122 12.9358C7.40545 12.8263 7.35242 12.7255 7.27108 12.6505C7.18973 12.5755 7.08503 12.5308 6.97459 12.5239C6.38071 12.4865 5.79917 12.3377 5.26027 12.0853C5.19698 12.0545 5.12739 12.039 5.05702 12.0398C4.98225 12.0396 4.90846 12.0569 4.84158 12.0904C4.77471 12.1238 4.7166 12.1725 4.6719 12.2324L4.23329 12.8181L3.27317 12.0826L3.71178 11.4969C3.77768 11.4082 3.81123 11.2996 3.80685 11.1891C3.80247 11.0787 3.76042 10.9731 3.6877 10.8898C3.29286 10.4443 2.98613 9.92794 2.78375 9.36809C2.74605 9.26408 2.6735 9.17634 2.57843 9.11979C2.48335 9.06323 2.37162 9.04135 2.26223 9.05786L1.54013 9.15948L1.36897 7.97203L2.09107 7.87308Z" fill="white"></path><path d="M7.27954 11.1921C7.98473 11.1931 8.67336 10.9785 9.25312 10.577C9.83287 10.1756 10.276 9.60644 10.5232 8.94598C10.7703 8.28552 10.8096 7.56528 10.6359 6.88185C10.4621 6.19841 10.0835 5.58444 9.55087 5.12226C9.01826 4.66008 8.35707 4.37178 7.65597 4.29602C6.95486 4.22026 6.24735 4.36066 5.6283 4.69839C5.00925 5.03613 4.50825 5.55505 4.19248 6.18559C3.87671 6.81612 3.76126 7.52813 3.86161 8.22614C3.97774 9.04964 4.38765 9.80339 5.01578 10.3485C5.6439 10.8935 6.4479 11.1931 7.27954 11.1921ZM6.92919 5.26287C7.04708 5.24687 7.16591 5.23883 7.28489 5.2388C7.92909 5.24148 8.54712 5.49401 9.00888 5.94322C9.47063 6.39243 9.74008 7.00328 9.7605 7.64717C9.78092 8.29105 9.55072 8.91775 9.11835 9.39531C8.68599 9.87288 8.0852 10.1641 7.44246 10.2075C6.79971 10.251 6.16517 10.0435 5.67241 9.62849C5.17964 9.21353 4.86711 8.62357 4.80059 7.9828C4.73408 7.34203 4.91878 6.70045 5.31581 6.19313C5.71284 5.6858 6.29122 5.35231 6.92919 5.26287Z" fill="white"></path></svg> 