<svg xmlns="http://www.w3.org/2000/svg" width="125" height="21" viewBox="0 0 125 21" fill="none"><path d="M0.17 16C0.226667 15.9887 0.351333 15.9093 0.544 15.762C0.736667 15.6033 0.991667 15.3483 1.309 14.997C1.615 14.657 1.921 14.317 2.227 13.977C2.533 13.6257 2.83333 13.28 3.128 12.94C3.434 12.6 3.74 12.26 4.046 11.92C4.352 11.5687 4.658 11.223 4.964 10.883C4.68067 10.5543 4.36333 10.1973 4.012 9.812C3.66067 9.41533 3.315 9.02433 2.975 8.639C2.635 8.25367 2.32333 7.908 2.04 7.602C1.768 7.28467 1.55267 7.03533 1.394 6.854C1.06533 6.48 0.793333 6.21367 0.578 6.055C0.374 5.89633 0.238 5.81133 0.17 5.8H3.485C3.383 5.78867 3.33767 5.86233 3.349 6.021C3.37167 6.17967 3.536 6.45733 3.842 6.854C3.96667 7.01267 4.114 7.21667 4.284 7.466C4.46533 7.704 4.65233 7.959 4.845 8.231C5.049 8.503 5.24167 8.76367 5.423 9.013C5.60433 9.26233 5.75733 9.47767 5.882 9.659C6.018 9.829 6.10867 9.94233 6.154 9.999H6.188C6.222 9.94233 6.30133 9.829 6.426 9.659C6.562 9.489 6.72067 9.285 6.902 9.047C7.09467 8.79767 7.28733 8.54267 7.48 8.282C7.684 8.01 7.87667 7.74933 8.058 7.5C8.25067 7.23933 8.415 7.01267 8.551 6.82C8.81167 6.446 8.95333 6.18533 8.976 6.038C9.01 5.87933 8.98733 5.8 8.908 5.8H12.087C12.0417 5.8 11.9227 5.87933 11.73 6.038C11.5373 6.18533 11.2767 6.44033 10.948 6.803C10.642 7.143 10.336 7.483 10.03 7.823C9.73533 8.163 9.44067 8.503 9.146 8.843C8.85133 9.183 8.551 9.523 8.245 9.863C7.95033 10.203 7.65 10.543 7.344 10.883C7.62733 11.223 7.939 11.5913 8.279 11.988C8.619 12.3847 8.959 12.7757 9.299 13.161C9.639 13.5463 9.945 13.8977 10.217 14.215C10.5003 14.5323 10.7213 14.776 10.88 14.946C11.2087 15.2973 11.475 15.558 11.679 15.728C11.8943 15.8867 12.036 15.9773 12.104 16H8.976C9.06667 15.9887 9.095 15.9037 9.061 15.745C9.03833 15.5863 8.891 15.32 8.619 14.946C8.50567 14.7873 8.35267 14.589 8.16 14.351C7.96733 14.113 7.76333 13.8637 7.548 13.603C7.344 13.331 7.14 13.076 6.936 12.838C6.74333 12.6 6.579 12.396 6.443 12.226C6.307 12.0447 6.21633 11.9257 6.171 11.869H6.137C6.103 11.9143 6.018 12.022 5.882 12.192C5.75733 12.362 5.59867 12.566 5.406 12.804C5.22467 13.042 5.032 13.297 4.828 13.569C4.624 13.8297 4.42567 14.0847 4.233 14.334C4.04033 14.572 3.87033 14.7873 3.723 14.98C3.451 15.3313 3.30367 15.5863 3.281 15.745C3.25833 15.9037 3.28667 15.9887 3.366 16H0.17ZM13.2886 16C13.3679 16 13.4472 15.9207 13.5266 15.762C13.6059 15.6033 13.6456 15.3427 13.6456 14.98V6.82C13.6456 6.45733 13.6059 6.20233 13.5266 6.055C13.4472 5.89633 13.3679 5.81133 13.2886 5.8H22.8596V6.14L23.1996 7.772C22.9162 7.64733 22.4176 7.517 21.7036 7.381C20.9896 7.23367 20.1282 7.16 19.1196 7.16H16.2466C15.9066 7.16 15.7026 7.18833 15.6346 7.245C15.5779 7.29033 15.5496 7.432 15.5496 7.67V9.608C15.5496 9.85733 15.5779 10.0047 15.6346 10.05C15.7026 10.0953 15.9009 10.118 16.2296 10.118H19.0346C19.6919 10.118 20.2189 10.084 20.6156 10.016C21.0236 9.93667 21.2899 9.85733 21.4146 9.778C21.3692 9.92533 21.3182 10.101 21.2616 10.305C21.2049 10.509 21.1596 10.713 21.1256 10.917C21.0916 11.121 21.0746 11.308 21.0746 11.478H16.2296C15.9009 11.478 15.7026 11.5007 15.6346 11.546C15.5779 11.58 15.5496 11.7273 15.5496 11.988V14.096C15.5496 14.3567 15.5779 14.5097 15.6346 14.555C15.6912 14.6003 15.8896 14.623 16.2296 14.623H21.1766C21.8339 14.623 22.3609 14.5493 22.7576 14.402C23.1656 14.2433 23.4319 14.0903 23.5566 13.943L23.2166 15.473V16H13.2886ZM24.9096 16C24.989 16 25.0683 15.9207 25.1476 15.762C25.227 15.6033 25.2666 15.3427 25.2666 14.98V6.82C25.2666 6.45733 25.227 6.20233 25.1476 6.055C25.0683 5.89633 24.989 5.81133 24.9096 5.8H28.0546C28.032 5.8 28.0433 5.87933 28.0886 6.038C28.134 6.19667 28.2416 6.46867 28.4116 6.854C28.4796 7.00133 28.5986 7.262 28.7686 7.636C28.95 8.01 29.1653 8.45767 29.4146 8.979C29.664 9.489 29.9303 10.0387 30.2136 10.628C30.497 11.2173 30.786 11.818 31.0806 12.43C31.3753 13.0307 31.653 13.5973 31.9136 14.13H31.9306C32.2026 13.586 32.486 13.0137 32.7806 12.413C33.0753 11.801 33.37 11.1947 33.6646 10.594C33.9593 9.99333 34.2313 9.438 34.4806 8.928C34.73 8.40667 34.9396 7.96467 35.1096 7.602C35.291 7.228 35.4156 6.96733 35.4836 6.82C35.6423 6.45733 35.7443 6.19667 35.7896 6.038C35.8463 5.87933 35.8633 5.8 35.8406 5.8H38.9686C38.8893 5.8 38.81 5.87933 38.7306 6.038C38.6513 6.19667 38.6116 6.463 38.6116 6.837V14.98C38.6116 15.3427 38.6513 15.6033 38.7306 15.762C38.81 15.9207 38.8893 16 38.9686 16H36.3676C36.447 16 36.5206 15.9207 36.5886 15.762C36.668 15.6033 36.7076 15.3427 36.7076 14.98V7.942H36.6736C36.4356 8.418 36.1806 8.928 35.9086 9.472C35.648 10.016 35.3816 10.5657 35.1096 11.121C34.8376 11.665 34.5826 12.192 34.3446 12.702C34.1066 13.2007 33.8913 13.6483 33.6986 14.045C33.5173 14.4417 33.3756 14.7533 33.2736 14.98C33.115 15.3313 33.03 15.5863 33.0186 15.745C33.0186 15.9037 33.047 15.9887 33.1036 16H30.7236C30.7803 16 30.8086 15.9263 30.8086 15.779C30.8086 15.6203 30.7236 15.354 30.5536 14.98C30.4743 14.7873 30.344 14.504 30.1626 14.13C29.9813 13.756 29.7716 13.3197 29.5336 12.821C29.307 12.311 29.0576 11.7783 28.7856 11.223C28.5136 10.6563 28.2416 10.0897 27.9696 9.523C27.709 8.95633 27.4596 8.42933 27.2216 7.942H27.1706V14.98C27.1706 15.3427 27.2103 15.6033 27.2896 15.762C27.369 15.9207 27.4483 16 27.5276 16H24.9096ZM45.0971 16C45.1765 16 45.2558 15.9207 45.3351 15.762C45.4145 15.6033 45.4541 15.3427 45.4541 14.98V6.82C45.4541 6.45733 45.4145 6.20233 45.3351 6.055C45.2558 5.89633 45.1765 5.81133 45.0971 5.8H47.7321C47.7208 5.834 47.7605 5.936 47.8511 6.106C47.9531 6.276 48.1345 6.52533 48.3951 6.854C48.4745 6.956 48.6388 7.16 48.8881 7.466C49.1488 7.772 49.4718 8.15167 49.8571 8.605C50.2425 9.047 50.6561 9.53433 51.0981 10.067C51.5515 10.5883 52.0048 11.121 52.4581 11.665C52.9228 12.1977 53.3648 12.7077 53.7841 13.195H53.8181V6.82C53.8181 6.45733 53.7785 6.20233 53.6991 6.055C53.6198 5.89633 53.5405 5.81133 53.4611 5.8H56.0791C55.9998 5.8 55.9205 5.87933 55.8411 6.038C55.7618 6.19667 55.7221 6.463 55.7221 6.837V14.98C55.7221 15.3427 55.7618 15.6033 55.8411 15.762C55.9205 15.9207 55.9998 16 56.0791 16H53.8521C53.8635 15.966 53.8181 15.864 53.7161 15.694C53.6141 15.5127 53.4328 15.2633 53.1721 14.946C53.0021 14.7307 52.7528 14.4303 52.4241 14.045C52.1068 13.6483 51.7441 13.2007 51.3361 12.702C50.9281 12.192 50.4918 11.6593 50.0271 11.104C49.5738 10.5487 49.1205 9.99333 48.6671 9.438C48.2251 8.88267 47.8058 8.367 47.4091 7.891H47.3581V14.98C47.3581 15.3427 47.3978 15.6033 47.4771 15.762C47.5565 15.9207 47.6358 16 47.7151 16H45.0971ZM62.8388 16.17C61.2974 16.17 60.0791 15.745 59.1838 14.895C58.2998 14.0337 57.8578 12.7133 57.8578 10.934C57.8578 9.89133 58.0561 8.97333 58.4528 8.18C58.8494 7.37533 59.4784 6.752 60.3398 6.31C61.2011 5.85667 62.3174 5.63 63.6888 5.63C64.7654 5.63 65.6551 5.68667 66.3578 5.8C67.0718 5.91333 67.5591 6.02667 67.8198 6.14V6.48L68.1598 8.01C67.8538 7.78333 67.3154 7.55667 66.5448 7.33C65.7741 7.10333 64.8334 6.99 63.7228 6.99C62.8161 6.99 62.0681 7.16 61.4788 7.5C60.8894 7.82867 60.4531 8.28767 60.1698 8.877C59.8978 9.46633 59.7618 10.152 59.7618 10.934C59.7618 11.75 59.8864 12.447 60.1358 13.025C60.3964 13.603 60.8044 14.045 61.3598 14.351C61.9151 14.6457 62.6404 14.793 63.5358 14.793C64.3064 14.793 64.9184 14.708 65.3718 14.538C65.8251 14.368 66.1481 14.1413 66.3408 13.858C66.5334 13.5633 66.6298 13.246 66.6298 12.906V12.464C66.6298 12.2033 66.6071 12.056 66.5618 12.022C66.5278 11.9767 66.3804 11.954 66.1198 11.954H65.5758C64.9411 11.954 64.4311 11.9937 64.0458 12.073C63.6718 12.1523 63.4338 12.2317 63.3318 12.311L63.5018 10.968V10.628H68.8568C68.7774 10.6393 68.6981 10.7243 68.6188 10.883C68.5508 11.0303 68.5168 11.2853 68.5168 11.648V14.98C68.5168 15.3427 68.5508 15.6033 68.6188 15.762C68.6981 15.9207 68.7774 16 68.8568 16H66.6298V15.609L66.6638 15.133L66.6298 15.099C66.4484 15.2917 66.2104 15.473 65.9158 15.643C65.6211 15.8017 65.2244 15.9263 64.7258 16.017C64.2384 16.119 63.6094 16.17 62.8388 16.17ZM69.846 16C69.8913 16 69.9706 15.9207 70.084 15.762C70.1973 15.6033 70.3446 15.337 70.526 14.963C70.6053 14.793 70.7413 14.504 70.934 14.096C71.1266 13.688 71.3533 13.2063 71.614 12.651C71.8746 12.0957 72.1466 11.5177 72.43 10.917C72.7133 10.305 72.9796 9.72133 73.229 9.166C73.4896 8.61067 73.7163 8.12333 73.909 7.704C74.1016 7.28467 74.2376 6.99 74.317 6.82C74.4756 6.45733 74.5606 6.19667 74.572 6.038C74.5833 5.87933 74.5606 5.8 74.504 5.8H77.479C77.4336 5.8 77.4166 5.87933 77.428 6.038C77.4393 6.19667 77.5186 6.45733 77.666 6.82C77.7453 6.99 77.8756 7.28467 78.057 7.704C78.2383 8.112 78.4536 8.59367 78.703 9.149C78.9636 9.70433 79.23 10.2823 79.502 10.883C79.774 11.4723 80.0403 12.0447 80.301 12.6C80.5616 13.1553 80.7883 13.6427 80.981 14.062C81.1736 14.4813 81.3153 14.7817 81.406 14.963C81.5873 15.337 81.7516 15.6033 81.899 15.762C82.0576 15.9207 82.1766 16 82.256 16H79.111C79.2243 15.9773 79.315 15.8867 79.383 15.728C79.4623 15.5693 79.451 15.3143 79.349 14.963C79.3263 14.8723 79.2866 14.742 79.23 14.572C79.1733 14.402 79.1223 14.2773 79.077 14.198C79.009 14.0393 78.941 13.926 78.873 13.858C78.805 13.79 78.7143 13.7447 78.601 13.722C78.499 13.6993 78.3516 13.688 78.159 13.688H73.807C73.5916 13.688 73.4216 13.6993 73.297 13.722C73.1723 13.7333 73.076 13.773 73.008 13.841C72.9513 13.909 72.8946 14.0223 72.838 14.181C72.7926 14.317 72.7473 14.453 72.702 14.589C72.6566 14.725 72.6226 14.8497 72.6 14.963C72.498 15.337 72.4696 15.6033 72.515 15.762C72.5603 15.9207 72.6226 16 72.702 16H69.846ZM74.249 12.328H77.666C77.9946 12.328 78.176 12.2997 78.21 12.243C78.244 12.1863 78.227 12.0617 78.159 11.869C78.0116 11.5063 77.8416 11.1153 77.649 10.696C77.4563 10.2653 77.258 9.84033 77.054 9.421C76.8613 8.99033 76.6686 8.58233 76.476 8.197C76.2946 7.80033 76.136 7.45467 76 7.16H75.966C75.728 7.65867 75.4843 8.18 75.235 8.724C74.9856 9.25667 74.7476 9.761 74.521 10.237C74.3056 10.7017 74.13 11.0813 73.994 11.376C73.858 11.6707 73.79 11.818 73.79 11.818C73.7106 11.9993 73.6823 12.1297 73.705 12.209C73.739 12.2883 73.9203 12.328 74.249 12.328ZM84.6451 16C84.7358 16 84.8265 15.9263 84.9171 15.779C85.0191 15.6203 85.0701 15.354 85.0701 14.98V11.291C84.7528 10.917 84.4071 10.5147 84.0331 10.084C83.6591 9.642 83.2908 9.21133 82.9281 8.792C82.5655 8.36133 82.2368 7.976 81.9421 7.636C81.6475 7.296 81.4208 7.03533 81.2621 6.854C80.9335 6.49133 80.6615 6.23067 80.4461 6.072C80.2421 5.902 80.1061 5.81133 80.0381 5.8H83.3531C83.2738 5.81133 83.2455 5.89633 83.2681 6.055C83.2908 6.21367 83.4325 6.48 83.6931 6.854C83.8178 7.024 83.9708 7.23933 84.1521 7.5C84.3448 7.74933 84.5488 8.027 84.7641 8.333C84.9795 8.62767 85.1948 8.92233 85.4101 9.217C85.6368 9.51167 85.8408 9.778 86.0221 10.016H86.0391C86.2091 9.78933 86.4018 9.54 86.6171 9.268C86.8438 8.98467 87.0648 8.69567 87.2801 8.401C87.5068 8.10633 87.7221 7.823 87.9261 7.551C88.1301 7.26767 88.3001 7.024 88.4361 6.82C88.6968 6.43467 88.8385 6.16833 88.8611 6.021C88.8838 5.87367 88.8555 5.8 88.7761 5.8H91.9721C91.9155 5.8 91.7908 5.87933 91.5981 6.038C91.4055 6.18533 91.1505 6.44033 90.8331 6.803C90.5158 7.177 90.1928 7.551 89.8641 7.925C89.5468 8.299 89.2238 8.673 88.8951 9.047C88.5778 9.421 88.2605 9.795 87.9431 10.169C87.6258 10.543 87.3028 10.917 86.9741 11.291V14.98C86.9741 15.354 87.0081 15.6203 87.0761 15.779C87.1555 15.9263 87.2348 16 87.3141 16H84.6451Z" fill="white"></path><path d="M110 8.33151C110 5.01651 112.348 3.65901 115.22 5.31651L119.855 7.98651C122.727 9.64401 122.727 12.359 119.855 14.0165L115.22 16.6865C112.348 18.344 110 16.9865 110 13.6715V8.33151Z" stroke="#F8F8F7" stroke-width="1.5" stroke-miterlimit="10" stroke-linecap="round" stroke-linejoin="round"></path></svg>