<svg xmlns="http://www.w3.org/2000/svg" width="171" height="46" viewBox="0 0 171 46" fill="none"><rect width="170.493" height="45.3521" rx="22.6761" fill="url(#paint0_radial_92_113)"></rect><path d="M26.17 28C26.2267 27.9887 26.3513 27.9093 26.544 27.762C26.7367 27.6033 26.9917 27.3483 27.309 26.997C27.615 26.657 27.921 26.317 28.227 25.977C28.533 25.6257 28.8333 25.28 29.128 24.94C29.434 24.6 29.74 24.26 30.046 23.92C30.352 23.5687 30.658 23.223 30.964 22.883C30.6807 22.5543 30.3633 22.1973 30.012 21.812C29.6607 21.4153 29.315 21.0243 28.975 20.639C28.635 20.2537 28.3233 19.908 28.04 19.602C27.768 19.2847 27.5527 19.0353 27.394 18.854C27.0653 18.48 26.7933 18.2137 26.578 18.055C26.374 17.8963 26.238 17.8113 26.17 17.8H29.485C29.383 17.7887 29.3377 17.8623 29.349 18.021C29.3717 18.1797 29.536 18.4573 29.842 18.854C29.9667 19.0127 30.114 19.2167 30.284 19.466C30.4653 19.704 30.6523 19.959 30.845 20.231C31.049 20.503 31.2417 20.7637 31.423 21.013C31.6043 21.2623 31.7573 21.4777 31.882 21.659C32.018 21.829 32.1087 21.9423 32.154 21.999H32.188C32.222 21.9423 32.3013 21.829 32.426 21.659C32.562 21.489 32.7207 21.285 32.902 21.047C33.0947 20.7977 33.2873 20.5427 33.48 20.282C33.684 20.01 33.8767 19.7493 34.058 19.5C34.2507 19.2393 34.415 19.0127 34.551 18.82C34.8117 18.446 34.9533 18.1853 34.976 18.038C35.01 17.8793 34.9873 17.8 34.908 17.8H38.087C38.0417 17.8 37.9227 17.8793 37.73 18.038C37.5373 18.1853 37.2767 18.4403 36.948 18.803C36.642 19.143 36.336 19.483 36.03 19.823C35.7353 20.163 35.4407 20.503 35.146 20.843C34.8513 21.183 34.551 21.523 34.245 21.863C33.9503 22.203 33.65 22.543 33.344 22.883C33.6273 23.223 33.939 23.5913 34.279 23.988C34.619 24.3847 34.959 24.7757 35.299 25.161C35.639 25.5463 35.945 25.8977 36.217 26.215C36.5003 26.5323 36.7213 26.776 36.88 26.946C37.2087 27.2973 37.475 27.558 37.679 27.728C37.8943 27.8867 38.036 27.9773 38.104 28H34.976C35.0667 27.9887 35.095 27.9037 35.061 27.745C35.0383 27.5863 34.891 27.32 34.619 26.946C34.5057 26.7873 34.3527 26.589 34.16 26.351C33.9673 26.113 33.7633 25.8637 33.548 25.603C33.344 25.331 33.14 25.076 32.936 24.838C32.7433 24.6 32.579 24.396 32.443 24.226C32.307 24.0447 32.2163 23.9257 32.171 23.869H32.137C32.103 23.9143 32.018 24.022 31.882 24.192C31.7573 24.362 31.5987 24.566 31.406 24.804C31.2247 25.042 31.032 25.297 30.828 25.569C30.624 25.8297 30.4257 26.0847 30.233 26.334C30.0403 26.572 29.8703 26.7873 29.723 26.98C29.451 27.3313 29.3037 27.5863 29.281 27.745C29.2583 27.9037 29.2867 27.9887 29.366 28H26.17ZM39.2886 28C39.3679 28 39.4472 27.9207 39.5266 27.762C39.6059 27.6033 39.6456 27.3427 39.6456 26.98V18.82C39.6456 18.4573 39.6059 18.2023 39.5266 18.055C39.4472 17.8963 39.3679 17.8113 39.2886 17.8H48.8596V18.14L49.1996 19.772C48.9162 19.6473 48.4176 19.517 47.7036 19.381C46.9896 19.2337 46.1282 19.16 45.1196 19.16H42.2466C41.9066 19.16 41.7026 19.1883 41.6346 19.245C41.5779 19.2903 41.5496 19.432 41.5496 19.67V21.608C41.5496 21.8573 41.5779 22.0047 41.6346 22.05C41.7026 22.0953 41.9009 22.118 42.2296 22.118H45.0346C45.6919 22.118 46.2189 22.084 46.6156 22.016C47.0236 21.9367 47.2899 21.8573 47.4146 21.778C47.3692 21.9253 47.3182 22.101 47.2616 22.305C47.2049 22.509 47.1596 22.713 47.1256 22.917C47.0916 23.121 47.0746 23.308 47.0746 23.478H42.2296C41.9009 23.478 41.7026 23.5007 41.6346 23.546C41.5779 23.58 41.5496 23.7273 41.5496 23.988V26.096C41.5496 26.3567 41.5779 26.5097 41.6346 26.555C41.6912 26.6003 41.8896 26.623 42.2296 26.623H47.1766C47.8339 26.623 48.3609 26.5493 48.7576 26.402C49.1656 26.2433 49.4319 26.0903 49.5566 25.943L49.2166 27.473V28H39.2886ZM50.9096 28C50.989 28 51.0683 27.9207 51.1476 27.762C51.227 27.6033 51.2666 27.3427 51.2666 26.98V18.82C51.2666 18.4573 51.227 18.2023 51.1476 18.055C51.0683 17.8963 50.989 17.8113 50.9096 17.8H54.0546C54.032 17.8 54.0433 17.8793 54.0886 18.038C54.134 18.1967 54.2416 18.4687 54.4116 18.854C54.4796 19.0013 54.5986 19.262 54.7686 19.636C54.95 20.01 55.1653 20.4577 55.4146 20.979C55.664 21.489 55.9303 22.0387 56.2136 22.628C56.497 23.2173 56.786 23.818 57.0806 24.43C57.3753 25.0307 57.653 25.5973 57.9136 26.13H57.9306C58.2026 25.586 58.486 25.0137 58.7806 24.413C59.0753 23.801 59.37 23.1947 59.6646 22.594C59.9593 21.9933 60.2313 21.438 60.4806 20.928C60.73 20.4067 60.9396 19.9647 61.1096 19.602C61.291 19.228 61.4156 18.9673 61.4836 18.82C61.6423 18.4573 61.7443 18.1967 61.7896 18.038C61.8463 17.8793 61.8633 17.8 61.8406 17.8H64.9686C64.8893 17.8 64.81 17.8793 64.7306 18.038C64.6513 18.1967 64.6116 18.463 64.6116 18.837V26.98C64.6116 27.3427 64.6513 27.6033 64.7306 27.762C64.81 27.9207 64.8893 28 64.9686 28H62.3676C62.447 28 62.5206 27.9207 62.5886 27.762C62.668 27.6033 62.7076 27.3427 62.7076 26.98V19.942H62.6736C62.4356 20.418 62.1806 20.928 61.9086 21.472C61.648 22.016 61.3816 22.5657 61.1096 23.121C60.8376 23.665 60.5826 24.192 60.3446 24.702C60.1066 25.2007 59.8913 25.6483 59.6986 26.045C59.5173 26.4417 59.3756 26.7533 59.2736 26.98C59.115 27.3313 59.03 27.5863 59.0186 27.745C59.0186 27.9037 59.047 27.9887 59.1036 28H56.7236C56.7803 28 56.8086 27.9263 56.8086 27.779C56.8086 27.6203 56.7236 27.354 56.5536 26.98C56.4743 26.7873 56.344 26.504 56.1626 26.13C55.9813 25.756 55.7716 25.3197 55.5336 24.821C55.307 24.311 55.0576 23.7783 54.7856 23.223C54.5136 22.6563 54.2416 22.0897 53.9696 21.523C53.709 20.9563 53.4596 20.4293 53.2216 19.942H53.1706V26.98C53.1706 27.3427 53.2103 27.6033 53.2896 27.762C53.369 27.9207 53.4483 28 53.5276 28H50.9096ZM71.0971 28C71.1765 28 71.2558 27.9207 71.3351 27.762C71.4145 27.6033 71.4541 27.3427 71.4541 26.98V18.82C71.4541 18.4573 71.4145 18.2023 71.3351 18.055C71.2558 17.8963 71.1765 17.8113 71.0971 17.8H73.7321C73.7208 17.834 73.7605 17.936 73.8511 18.106C73.9531 18.276 74.1345 18.5253 74.3951 18.854C74.4745 18.956 74.6388 19.16 74.8881 19.466C75.1488 19.772 75.4718 20.1517 75.8571 20.605C76.2425 21.047 76.6561 21.5343 77.0981 22.067C77.5515 22.5883 78.0048 23.121 78.4581 23.665C78.9228 24.1977 79.3648 24.7077 79.7841 25.195H79.8181V18.82C79.8181 18.4573 79.7785 18.2023 79.6991 18.055C79.6198 17.8963 79.5405 17.8113 79.4611 17.8H82.0791C81.9998 17.8 81.9205 17.8793 81.8411 18.038C81.7618 18.1967 81.7221 18.463 81.7221 18.837V26.98C81.7221 27.3427 81.7618 27.6033 81.8411 27.762C81.9205 27.9207 81.9998 28 82.0791 28H79.8521C79.8635 27.966 79.8181 27.864 79.7161 27.694C79.6141 27.5127 79.4328 27.2633 79.1721 26.946C79.0021 26.7307 78.7528 26.4303 78.4241 26.045C78.1068 25.6483 77.7441 25.2007 77.3361 24.702C76.9281 24.192 76.4918 23.6593 76.0271 23.104C75.5738 22.5487 75.1205 21.9933 74.6671 21.438C74.2251 20.8827 73.8058 20.367 73.4091 19.891H73.3581V26.98C73.3581 27.3427 73.3978 27.6033 73.4771 27.762C73.5565 27.9207 73.6358 28 73.7151 28H71.0971ZM88.8388 28.17C87.2974 28.17 86.0791 27.745 85.1838 26.895C84.2998 26.0337 83.8578 24.7133 83.8578 22.934C83.8578 21.8913 84.0561 20.9733 84.4528 20.18C84.8494 19.3753 85.4784 18.752 86.3398 18.31C87.2011 17.8567 88.3174 17.63 89.6888 17.63C90.7654 17.63 91.6551 17.6867 92.3578 17.8C93.0718 17.9133 93.5591 18.0267 93.8198 18.14V18.48L94.1598 20.01C93.8538 19.7833 93.3154 19.5567 92.5448 19.33C91.7741 19.1033 90.8334 18.99 89.7228 18.99C88.8161 18.99 88.0681 19.16 87.4788 19.5C86.8894 19.8287 86.4531 20.2877 86.1698 20.877C85.8978 21.4663 85.7618 22.152 85.7618 22.934C85.7618 23.75 85.8864 24.447 86.1358 25.025C86.3964 25.603 86.8044 26.045 87.3598 26.351C87.9151 26.6457 88.6404 26.793 89.5358 26.793C90.3064 26.793 90.9184 26.708 91.3718 26.538C91.8251 26.368 92.1481 26.1413 92.3408 25.858C92.5334 25.5633 92.6298 25.246 92.6298 24.906V24.464C92.6298 24.2033 92.6071 24.056 92.5618 24.022C92.5278 23.9767 92.3804 23.954 92.1198 23.954H91.5758C90.9411 23.954 90.4311 23.9937 90.0458 24.073C89.6718 24.1523 89.4338 24.2317 89.3318 24.311L89.5018 22.968V22.628H94.8568C94.7774 22.6393 94.6981 22.7243 94.6188 22.883C94.5508 23.0303 94.5168 23.2853 94.5168 23.648V26.98C94.5168 27.3427 94.5508 27.6033 94.6188 27.762C94.6981 27.9207 94.7774 28 94.8568 28H92.6298V27.609L92.6638 27.133L92.6298 27.099C92.4484 27.2917 92.2104 27.473 91.9158 27.643C91.6211 27.8017 91.2244 27.9263 90.7258 28.017C90.2384 28.119 89.6094 28.17 88.8388 28.17ZM95.846 28C95.8913 28 95.9706 27.9207 96.084 27.762C96.1973 27.6033 96.3446 27.337 96.526 26.963C96.6053 26.793 96.7413 26.504 96.934 26.096C97.1266 25.688 97.3533 25.2063 97.614 24.651C97.8746 24.0957 98.1466 23.5177 98.43 22.917C98.7133 22.305 98.9796 21.7213 99.229 21.166C99.4896 20.6107 99.7163 20.1233 99.909 19.704C100.102 19.2847 100.238 18.99 100.317 18.82C100.476 18.4573 100.561 18.1967 100.572 18.038C100.583 17.8793 100.561 17.8 100.504 17.8H103.479C103.434 17.8 103.417 17.8793 103.428 18.038C103.439 18.1967 103.519 18.4573 103.666 18.82C103.745 18.99 103.876 19.2847 104.057 19.704C104.238 20.112 104.454 20.5937 104.703 21.149C104.964 21.7043 105.23 22.2823 105.502 22.883C105.774 23.4723 106.04 24.0447 106.301 24.6C106.562 25.1553 106.788 25.6427 106.981 26.062C107.174 26.4813 107.315 26.7817 107.406 26.963C107.587 27.337 107.752 27.6033 107.899 27.762C108.058 27.9207 108.177 28 108.256 28H105.111C105.224 27.9773 105.315 27.8867 105.383 27.728C105.462 27.5693 105.451 27.3143 105.349 26.963C105.326 26.8723 105.287 26.742 105.23 26.572C105.173 26.402 105.122 26.2773 105.077 26.198C105.009 26.0393 104.941 25.926 104.873 25.858C104.805 25.79 104.714 25.7447 104.601 25.722C104.499 25.6993 104.352 25.688 104.159 25.688H99.807C99.5916 25.688 99.4216 25.6993 99.297 25.722C99.1723 25.7333 99.076 25.773 99.008 25.841C98.9513 25.909 98.8946 26.0223 98.838 26.181C98.7926 26.317 98.7473 26.453 98.702 26.589C98.6566 26.725 98.6226 26.8497 98.6 26.963C98.498 27.337 98.4696 27.6033 98.515 27.762C98.5603 27.9207 98.6226 28 98.702 28H95.846ZM100.249 24.328H103.666C103.995 24.328 104.176 24.2997 104.21 24.243C104.244 24.1863 104.227 24.0617 104.159 23.869C104.012 23.5063 103.842 23.1153 103.649 22.696C103.456 22.2653 103.258 21.8403 103.054 21.421C102.861 20.9903 102.669 20.5823 102.476 20.197C102.295 19.8003 102.136 19.4547 102 19.16H101.966C101.728 19.6587 101.484 20.18 101.235 20.724C100.986 21.2567 100.748 21.761 100.521 22.237C100.306 22.7017 100.13 23.0813 99.994 23.376C99.858 23.6707 99.79 23.818 99.79 23.818C99.7106 23.9993 99.6823 24.1297 99.705 24.209C99.739 24.2883 99.9203 24.328 100.249 24.328ZM110.645 28C110.736 28 110.826 27.9263 110.917 27.779C111.019 27.6203 111.07 27.354 111.07 26.98V23.291C110.753 22.917 110.407 22.5147 110.033 22.084C109.659 21.642 109.291 21.2113 108.928 20.792C108.565 20.3613 108.237 19.976 107.942 19.636C107.647 19.296 107.421 19.0353 107.262 18.854C106.933 18.4913 106.661 18.2307 106.446 18.072C106.242 17.902 106.106 17.8113 106.038 17.8H109.353C109.274 17.8113 109.245 17.8963 109.268 18.055C109.291 18.2137 109.432 18.48 109.693 18.854C109.818 19.024 109.971 19.2393 110.152 19.5C110.345 19.7493 110.549 20.027 110.764 20.333C110.979 20.6277 111.195 20.9223 111.41 21.217C111.637 21.5117 111.841 21.778 112.022 22.016H112.039C112.209 21.7893 112.402 21.54 112.617 21.268C112.844 20.9847 113.065 20.6957 113.28 20.401C113.507 20.1063 113.722 19.823 113.926 19.551C114.13 19.2677 114.3 19.024 114.436 18.82C114.697 18.4347 114.838 18.1683 114.861 18.021C114.884 17.8737 114.855 17.8 114.776 17.8H117.972C117.915 17.8 117.791 17.8793 117.598 18.038C117.405 18.1853 117.15 18.4403 116.833 18.803C116.516 19.177 116.193 19.551 115.864 19.925C115.547 20.299 115.224 20.673 114.895 21.047C114.578 21.421 114.26 21.795 113.943 22.169C113.626 22.543 113.303 22.917 112.974 23.291V26.98C112.974 27.354 113.008 27.6203 113.076 27.779C113.155 27.9263 113.235 28 113.314 28H110.645Z" fill="#052C62"></path><path d="M136 20.7221C136 17.4071 138.348 16.0496 141.22 17.7071L145.855 20.3771C148.727 22.0346 148.727 24.7496 145.855 26.4071L141.22 29.0771C138.348 30.7346 136 29.3771 136 26.0621V20.7221Z" stroke="#052C62" stroke-width="1.5" stroke-miterlimit="10" stroke-linecap="round" stroke-linejoin="round"></path><defs><radialGradient id="paint0_radial_92_113" cx="0" cy="0" r="1" gradientUnits="userSpaceOnUse" gradientTransform="translate(85.2464 22.6761) rotate(90) scale(22.6761 85.2464)"><stop stop-color="#F0C384"></stop><stop offset="1" stop-color="#E0AF4F"></stop></radialGradient></defs></svg>