<svg xmlns="http://www.w3.org/2000/svg" width="33" height="33" viewBox="0 0 33 33" fill="none"><rect width="33" height="33" rx="16" fill="#FF0000"></rect><path d="M10.18 22C10.24 21.988 10.372 21.904 10.576 21.748C10.78 21.58 11.05 21.31 11.386 20.938C11.71 20.578 12.034 20.218 12.358 19.858C12.682 19.486 13 19.12 13.312 18.76C13.636 18.4 13.96 18.04 14.284 17.68C14.608 17.308 14.932 16.942 15.256 16.582C14.956 16.234 14.62 15.856 14.248 15.448C13.876 15.028 13.51 14.614 13.15 14.206C12.79 13.798 12.46 13.432 12.16 13.108C11.872 12.772 11.644 12.508 11.476 12.316C11.128 11.92 10.84 11.638 10.612 11.47C10.396 11.302 10.252 11.212 10.18 11.2H13.69C13.582 11.188 13.534 11.266 13.546 11.434C13.57 11.602 13.744 11.896 14.068 12.316C14.2 12.484 14.356 12.7 14.536 12.964C14.728 13.216 14.926 13.486 15.13 13.774C15.346 14.062 15.55 14.338 15.742 14.602C15.934 14.866 16.096 15.094 16.228 15.286C16.372 15.466 16.468 15.586 16.516 15.646H16.552C16.588 15.586 16.672 15.466 16.804 15.286C16.948 15.106 17.116 14.89 17.308 14.638C17.512 14.374 17.716 14.104 17.92 13.828C18.136 13.54 18.34 13.264 18.532 13C18.736 12.724 18.91 12.484 19.054 12.28C19.33 11.884 19.48 11.608 19.504 11.452C19.54 11.284 19.516 11.2 19.432 11.2H22.798C22.75 11.2 22.624 11.284 22.42 11.452C22.216 11.608 21.94 11.878 21.592 12.262C21.268 12.622 20.944 12.982 20.62 13.342C20.308 13.702 19.996 14.062 19.684 14.422C19.372 14.782 19.054 15.142 18.73 15.502C18.418 15.862 18.1 16.222 17.776 16.582C18.076 16.942 18.406 17.332 18.766 17.752C19.126 18.172 19.486 18.586 19.846 18.994C20.206 19.402 20.53 19.774 20.818 20.11C21.118 20.446 21.352 20.704 21.52 20.884C21.868 21.256 22.15 21.532 22.366 21.712C22.594 21.88 22.744 21.976 22.816 22H19.504C19.6 21.988 19.63 21.898 19.594 21.73C19.57 21.562 19.414 21.28 19.126 20.884C19.006 20.716 18.844 20.506 18.64 20.254C18.436 20.002 18.22 19.738 17.992 19.462C17.776 19.174 17.56 18.904 17.344 18.652C17.14 18.4 16.966 18.184 16.822 18.004C16.678 17.812 16.582 17.686 16.534 17.626H16.498C16.462 17.674 16.372 17.788 16.228 17.968C16.096 18.148 15.928 18.364 15.724 18.616C15.532 18.868 15.328 19.138 15.112 19.426C14.896 19.702 14.686 19.972 14.482 20.236C14.278 20.488 14.098 20.716 13.942 20.92C13.654 21.292 13.498 21.562 13.474 21.73C13.45 21.898 13.48 21.988 13.564 22H10.18Z" fill="white"></path></svg>