<?xml version="1.0" encoding="UTF-8"?> <svg xmlns="http://www.w3.org/2000/svg" width="897" height="897" viewBox="0 0 897 897" fill="none"><path d="M695.902 256.003H200.602V131.303C200.602 58.7031 288.302 0.203125 360.802 0.203125H535.602C608.102 0.203125 695.802 58.7031 695.802 131.303V256.003H695.902ZM229.802 226.903H666.802V131.303C666.802 77.3031 593.502 29.3031 535.702 29.3031H360.902C303.102 29.3031 229.802 77.3031 229.802 131.303V226.903ZM666.802 267.003C666.802 407.603 568.802 522.003 448.302 522.003C327.802 522.003 229.802 407.603 229.802 267.003H200.702C200.702 423.703 311.802 551.203 448.302 551.203C584.902 551.203 695.902 423.703 695.902 267.003H666.802ZM622.202 587.003C614.202 587.003 607.602 593.303 607.602 601.203C607.602 696.603 571.802 811.203 523.102 866.403L373.102 866.303C321.902 810.303 288.802 695.603 288.802 601.203C288.802 593.403 282.302 587.003 274.202 587.003C266.202 587.003 259.602 593.303 259.602 601.203C259.602 706.503 297.002 829.503 356.002 890.203C358.702 893.003 362.602 894.603 366.602 894.603L529.602 894.703C533.702 894.703 537.602 893.003 540.302 890.103C596.602 830.503 636.702 707.403 636.702 601.103C636.802 593.403 630.302 587.003 622.202 587.003Z" fill="#F0F6FC" fill-opacity="0.6"></path><path d="M529.6 896.097C345.1 896.097 142.9 891.697 46.1997 887.797C-1.30027 885.897 0.299738 827.997 1.29974 789.797C1.49974 784.097 1.59973 778.697 1.59973 773.697C1.59973 647.197 286.3 571.897 384.4 560.197C416.9 556.397 480.6 556.397 513.2 560.197C611.2 571.897 895.6 647.197 895.6 773.697C895.6 778.697 895.7 783.997 895.9 789.697C896.9 827.097 898.5 883.597 851.9 887.797C782.7 893.897 660.6 896.097 529.6 896.097ZM448.9 587.097C426 587.097 403.1 587.997 388.3 589.697C267.7 604.097 32.8997 682.097 32.8997 773.597C32.8997 778.797 32.6997 784.497 32.5997 790.497C31.8997 817.097 30.7997 857.297 47.5997 857.897C212.3 864.697 683.6 872.797 849.1 857.997C865.3 856.497 865.8 825.197 864.8 790.397C864.7 784.497 864.5 778.897 864.5 773.697C864.5 682.097 629.9 604.197 509.4 589.797C494.7 587.997 471.8 587.097 448.9 587.097ZM433.7 70.7969H462.8V187.297H433.7V70.7969Z" fill="#F0F6FC" fill-opacity="0.6"></path></svg> 