<?xml version="1.0" encoding="UTF-8"?> <svg xmlns="http://www.w3.org/2000/svg" width="21" height="21" viewBox="0 0 21 21" fill="none"><path d="M16.5026 5.91773H5.4375V3.13192C5.4375 1.51002 7.39673 0.203125 9.01639 0.203125H12.9214C14.5411 0.203125 16.5003 1.51002 16.5003 3.13192V5.91773H16.5026ZM6.08983 5.26763H15.8525V3.13192C15.8525 1.92555 14.2149 0.853223 12.9237 0.853223H9.01862C7.72736 0.853223 6.08983 1.92555 6.08983 3.13192V5.26763ZM15.8525 6.16347C15.8525 9.3045 13.6631 11.8602 10.9712 11.8602C8.27916 11.8602 6.08983 9.3045 6.08983 6.16347H5.43973C5.43973 9.66417 7.92172 12.5125 10.9712 12.5125C14.0228 12.5125 16.5026 9.66417 16.5026 6.16347H15.8525ZM14.8561 13.3123C14.6774 13.3123 14.5299 13.4531 14.5299 13.6295C14.5299 15.7608 13.7302 18.321 12.6422 19.5542L9.29117 19.5519C8.14736 18.3009 7.4079 15.7385 7.4079 13.6295C7.4079 13.4553 7.26269 13.3123 7.08173 13.3123C6.90301 13.3123 6.75557 13.4531 6.75557 13.6295C6.75557 15.982 7.59109 18.7298 8.90916 20.0858C8.96948 20.1484 9.0566 20.1841 9.14596 20.1841L12.7874 20.1864C12.879 20.1864 12.9661 20.1484 13.0264 20.0836C14.2842 18.7521 15.18 16.0021 15.18 13.6273C15.1823 13.4553 15.0371 13.3123 14.8561 13.3123Z" fill="#F0F6FC" fill-opacity="0.6"></path><path d="M12.7861 20.2186C8.66432 20.2186 4.14715 20.1203 1.98685 20.0331C0.925698 19.9907 0.961442 18.6972 0.983782 17.8438C0.98825 17.7165 0.990484 17.5958 0.990484 17.4841C0.990484 14.6581 7.35072 12.9759 9.54229 12.7145C10.2683 12.6296 11.6914 12.6296 12.4197 12.7145C14.609 12.9759 20.9626 14.6581 20.9626 17.4841C20.9626 17.5958 20.9648 17.7142 20.9693 17.8416C20.9916 18.6771 21.0274 19.9393 19.9863 20.0331C18.4404 20.1694 15.7126 20.2186 12.7861 20.2186ZM10.9832 13.3155C10.4716 13.3155 9.96005 13.3356 9.62941 13.3735C6.93519 13.6952 1.68973 15.4378 1.68973 17.4819C1.68973 17.5981 1.68526 17.7254 1.68303 17.8594C1.66739 18.4537 1.64282 19.3518 2.01813 19.3652C5.69755 19.5171 16.2265 19.698 19.9237 19.3674C20.2857 19.3339 20.2968 18.6346 20.2745 17.8572C20.2723 17.7254 20.2678 17.6003 20.2678 17.4841C20.2678 15.4378 15.0268 13.6975 12.3348 13.3758C12.0064 13.3356 11.4948 13.3155 10.9832 13.3155ZM10.6437 1.78125H11.2938V4.38388H10.6437V1.78125Z" fill="#F0F6FC" fill-opacity="0.6"></path><path d="M9.66406 2.75781H12.2667V3.40791H9.66406V2.75781Z" fill="#F0F6FC" fill-opacity="0.6"></path></svg> 