<?xml version="1.0" encoding="UTF-8"?> <svg xmlns="http://www.w3.org/2000/svg" width="20" height="26" viewBox="0 0 20 26" fill="none"><path d="M9.416 0.022214C8.66878 0.139634 8.10303 0.299752 7.56931 0.577289C6.36309 1.17506 5.37036 2.27454 4.90068 3.51278C4.35628 4.94317 4.44168 6.49097 5.14619 7.90001C5.90408 9.42646 7.31312 10.4832 8.99969 10.8142C9.46937 10.8995 10.5261 10.8995 10.9852 10.8142C13.3549 10.3658 15.1162 8.45508 15.4044 6.03197C15.5325 4.98586 15.2977 3.79032 14.7746 2.85096C13.9633 1.37788 12.533 0.353124 10.8464 0.0649122C10.4728 0.000865072 9.72556 -0.020484 9.416 0.022214Z" fill="white"></path><path d="M9.26826 12.5144C8.14743 12.5571 7.09066 12.7279 6.04455 13.0375C5.79904 13.1015 5.57487 13.1869 5.54285 13.2189C5.46813 13.283 5.25464 14.0089 5.15857 14.5639C5.00913 15.4072 5.0198 17.5635 5.17992 17.8197C5.20127 17.8517 5.38273 17.8837 5.58555 17.8944C6.31142 17.9371 6.95189 18.3747 7.27212 19.0579C7.41089 19.3568 7.43224 19.4315 7.43224 19.8798C7.43224 20.3282 7.42157 20.4029 7.27212 20.7018C7.05863 21.1608 6.7811 21.449 6.33277 21.6625C5.96983 21.8439 5.93781 21.8439 5.43611 21.8439C4.94508 21.8439 4.89171 21.8333 4.59282 21.6838C4.19786 21.4917 3.81358 21.0967 3.62144 20.7018C3.50402 20.4456 3.49334 20.3602 3.49334 19.8692C3.49334 19.3781 3.50402 19.2927 3.62144 19.0366C3.69616 18.8871 3.86695 18.6309 4.00572 18.4922L4.26191 18.2253L4.17651 17.841C3.99505 16.9977 4.02707 15.2151 4.24056 14.1476C4.29393 13.9021 4.32596 13.6993 4.31528 13.6993C4.29393 13.6673 3.60009 14.0302 3.18378 14.2864C1.42249 15.3752 0.280314 16.9337 0.045475 18.5455C0.0134514 18.8017 -0.00789777 19.7731 0.00277674 21.4917L0.0134515 24.0536L0.141545 24.2991C0.290989 24.6193 0.589875 24.9075 0.910111 25.0677L1.15562 25.1957H10.0048H18.8433L19.0888 25.0677C19.4091 24.9182 19.6973 24.6193 19.8574 24.2991L19.9855 24.0536L19.9961 21.4917C20.0068 19.7624 19.9961 18.8017 19.9534 18.5348C19.8894 18.0438 19.7079 17.5208 19.4517 17.0084C18.8326 15.7808 17.5944 14.628 16.0679 13.8594L15.705 13.6779L15.737 13.8487C15.8331 14.3077 15.8224 15.0656 15.7263 15.9623C15.6623 16.4747 15.6089 16.9123 15.5982 16.955C15.5876 16.9977 15.673 17.0831 15.8651 17.2005C16.4522 17.5635 16.9112 18.1933 17.114 18.9405C17.2528 19.4529 17.2635 20.7338 17.114 21.3743L17.0286 21.8013L17.1354 21.9934C17.3595 22.3883 17.3275 22.8153 17.0393 23.1356C16.4629 23.7974 15.3954 23.4771 15.2994 22.6232C15.246 22.1642 15.5022 21.7372 15.9398 21.5557C16.0893 21.4917 16.1106 21.4597 16.164 21.1715C16.196 21.0007 16.228 20.595 16.2494 20.2641C16.2921 19.3248 16.0893 18.6629 15.6089 18.2466C15.3314 17.9904 14.8724 17.7983 14.424 17.7236C13.5594 17.5848 12.8656 17.9798 12.3105 18.9085C12.1077 19.25 11.8622 19.8265 11.7661 20.2001C11.702 20.4242 11.702 20.4349 11.8301 20.563C12.0009 20.7445 12.065 20.9259 12.065 21.2248C12.065 22.2603 10.6666 22.5805 10.1863 21.6518C10.0795 21.4383 10.0582 21.0434 10.1542 20.8085C10.2183 20.6698 10.5492 20.3175 10.6666 20.2748C10.6986 20.2641 10.7947 20.0293 10.8694 19.7517C11.0723 19.1006 11.4992 18.268 11.8301 17.8517C12.4813 17.0618 13.1858 16.7095 14.1358 16.7095C14.6055 16.7095 14.6162 16.7095 14.6482 16.5814C14.7123 16.2825 14.819 15.0977 14.819 14.724C14.819 14.3077 14.6589 13.283 14.5842 13.2189C14.5308 13.1656 13.5914 12.8987 13.0684 12.7813C11.9262 12.5571 10.6453 12.461 9.26826 12.5144Z" fill="white"></path></svg> 