<svg xmlns="http://www.w3.org/2000/svg" width="41" height="41" viewBox="0 0 41 41" fill="none"><path d="M20.82 29.3C18.78 29.3 17.11 29.17 15.81 28.91C14.51 28.63 13.64 28.36 13.2 28.1L13.83 25.19V24.59C14.11 24.91 14.54 25.25 15.12 25.61C15.7 25.97 16.42 26.28 17.28 26.54C18.16 26.78 19.16 26.9 20.28 26.9C21.36 26.9 22.22 26.78 22.86 26.54C23.52 26.3 23.99 25.95 24.27 25.49C24.57 25.03 24.72 24.48 24.72 23.84C24.72 22.92 24.35 22.23 23.61 21.77C22.87 21.29 21.65 21.05 19.95 21.05H17.4V18.8H19.95C21.25 18.8 22.17 18.51 22.71 17.93C23.25 17.33 23.52 16.51 23.52 15.47C23.52 14.95 23.41 14.52 23.19 14.18C22.97 13.82 22.64 13.55 22.2 13.37C21.76 13.19 21.21 13.1 20.55 13.1C19.61 13.1 18.71 13.25 17.85 13.55C17.01 13.85 16.27 14.22 15.63 14.66C14.99 15.08 14.48 15.49 14.1 15.89V15.29L13.5 12.5C13.96 12.1 14.8 11.7 16.02 11.3C17.24 10.9 18.73 10.7 20.49 10.7C22.17 10.7 23.47 10.89 24.39 11.27C25.31 11.65 25.95 12.18 26.31 12.86C26.69 13.54 26.88 14.33 26.88 15.23C26.88 16.27 26.57 17.16 25.95 17.9C25.35 18.64 24.58 19.2 23.64 19.58V19.64C25.08 19.96 26.18 20.47 26.94 21.17C27.7 21.87 28.08 22.83 28.08 24.05C28.08 25.05 27.84 25.95 27.36 26.75C26.88 27.55 26.1 28.18 25.02 28.64C23.96 29.08 22.56 29.3 20.82 29.3Z" fill="#052C62"></path><circle cx="20.2498" cy="20.2498" r="19.7498" stroke="url(#paint0_radial_9_6)"></circle><defs><radialGradient id="paint0_radial_9_6" cx="0" cy="0" r="1" gradientUnits="userSpaceOnUse" gradientTransform="translate(20.2498 20.2498) rotate(90) scale(20.2498)"><stop stop-color="#FCE48F"></stop><stop offset="1" stop-color="#E1A64F"></stop></radialGradient></defs></svg>