<svg xmlns="http://www.w3.org/2000/svg" width="14" height="15" viewBox="0 0 14 15" fill="none"><path d="M12.25 7.36621C12.5234 7.55306 12.7673 7.76497 12.9814 8.00195C13.1956 8.23893 13.3802 8.4987 13.5352 8.78125C13.6901 9.0638 13.804 9.3623 13.877 9.67676C13.9499 9.99121 13.9909 10.3125 14 10.6406C14 11.1829 13.8975 11.6934 13.6924 12.1719C13.4873 12.6504 13.2048 13.0674 12.8447 13.4229C12.4847 13.7783 12.0677 14.0586 11.5938 14.2637C11.1198 14.4688 10.6094 14.5736 10.0625 14.5781C9.64779 14.5781 9.24675 14.5166 8.85938 14.3936C8.47201 14.2705 8.11654 14.0928 7.79297 13.8604C7.4694 13.6279 7.18229 13.3499 6.93164 13.0264C6.68099 12.7028 6.4873 12.3451 6.35059 11.9531H0.875V1.45312H2.625V0.578125H3.5V1.45312H9.625V0.578125H10.5V1.45312H12.25V7.36621ZM1.75 2.32812V4.07812H11.375V2.32812H10.5V3.20312H9.625V2.32812H3.5V3.20312H2.625V2.32812H1.75ZM6.14551 11.0781C6.13184 10.9368 6.125 10.791 6.125 10.6406C6.125 10.2487 6.17969 9.86816 6.28906 9.49902C6.39844 9.12988 6.56478 8.78125 6.78809 8.45312H6.125V7.57812H7V8.16602C7.18685 7.93359 7.39421 7.72852 7.62207 7.55078C7.84994 7.37305 8.09603 7.22038 8.36035 7.09277C8.62467 6.96517 8.90039 6.86947 9.1875 6.80566C9.47461 6.74186 9.76628 6.70768 10.0625 6.70312C10.5182 6.70312 10.9557 6.77832 11.375 6.92871V4.95312H1.75V11.0781H6.14551ZM10.0625 13.7031C10.4863 13.7031 10.8828 13.6234 11.252 13.4639C11.6211 13.3044 11.9447 13.0856 12.2227 12.8076C12.5007 12.5296 12.7194 12.2061 12.8789 11.8369C13.0384 11.4678 13.1204 11.069 13.125 10.6406C13.125 10.2168 13.0452 9.82031 12.8857 9.45117C12.7262 9.08203 12.5075 8.75846 12.2295 8.48047C11.9515 8.20247 11.6279 7.98372 11.2588 7.82422C10.8896 7.66471 10.4909 7.58268 10.0625 7.57812C9.63867 7.57812 9.24219 7.65788 8.87305 7.81738C8.50391 7.97689 8.18034 8.19564 7.90234 8.47363C7.62435 8.75163 7.4056 9.0752 7.24609 9.44434C7.08659 9.81348 7.00456 10.2122 7 10.6406C7 11.0645 7.07975 11.4609 7.23926 11.8301C7.39876 12.1992 7.61751 12.5228 7.89551 12.8008C8.1735 13.0788 8.49707 13.2975 8.86621 13.457C9.23535 13.6165 9.63411 13.6986 10.0625 13.7031ZM10.5 10.2031H11.8125V11.0781H9.625V8.45312H10.5V10.2031ZM2.625 7.57812H3.5V8.45312H2.625V7.57812ZM4.375 7.57812H5.25V8.45312H4.375V7.57812ZM4.375 5.82812H5.25V6.70312H4.375V5.82812ZM2.625 9.32812H3.5V10.2031H2.625V9.32812ZM4.375 9.32812H5.25V10.2031H4.375V9.32812ZM7 6.70312H6.125V5.82812H7V6.70312ZM8.75 6.70312H7.875V5.82812H8.75V6.70312ZM10.5 6.70312H9.625V5.82812H10.5V6.70312Z" fill="#052C62"></path></svg>