<svg xmlns="http://www.w3.org/2000/svg" width="41" height="41" viewBox="0 0 41 41" fill="none"><path d="M12.9 29V28.67C13.1 28.25 13.58 27.53 14.34 26.51C15.12 25.47 16.19 24.25 17.55 22.85C18.27 22.09 18.98 21.4 19.68 20.78C20.4 20.16 21.04 19.57 21.6 19.01C22.18 18.43 22.64 17.86 22.98 17.3C23.34 16.74 23.52 16.15 23.52 15.53C23.52 14.77 23.29 14.18 22.83 13.76C22.37 13.32 21.61 13.1 20.55 13.1C19.59 13.1 18.69 13.25 17.85 13.55C17.01 13.85 16.26 14.22 15.6 14.66C14.96 15.08 14.46 15.49 14.1 15.89V15.29L13.5 12.5C13.92 12.1 14.73 11.7 15.93 11.3C17.13 10.9 18.65 10.7 20.49 10.7C22.11 10.7 23.38 10.91 24.3 11.33C25.24 11.75 25.9 12.3 26.28 12.98C26.68 13.64 26.88 14.34 26.88 15.08C26.88 16.14 26.63 17.11 26.13 17.99C25.63 18.85 24.96 19.69 24.12 20.51C23.3 21.31 22.39 22.15 21.39 23.03C20.35 23.93 19.45 24.68 18.69 25.28C17.93 25.86 17.38 26.26 17.04 26.48V26.57H23.58C24.78 26.57 25.76 26.47 26.52 26.27C27.3 26.07 27.82 25.87 28.08 25.67L27.48 28.07V29H12.9Z" fill="#052C62"></path><circle cx="20.2498" cy="20.2498" r="19.7498" stroke="url(#paint0_radial_9_6)"></circle><defs><radialGradient id="paint0_radial_9_6" cx="0" cy="0" r="1" gradientUnits="userSpaceOnUse" gradientTransform="translate(20.2498 20.2498) rotate(90) scale(20.2498)"><stop stop-color="#FCE48F"></stop><stop offset="1" stop-color="#E1A64F"></stop></radialGradient></defs></svg>