<svg xmlns="http://www.w3.org/2000/svg" width="14" height="15" viewBox="0 0 14 15" fill="none"><path fill-rule="evenodd" clip-rule="evenodd" d="M6.99965 1.39844C6.18369 1.39735 5.39482 1.69119 4.77839 2.22581C4.16197 2.76042 3.75951 3.4998 3.64519 4.30772C3.53086 5.11563 3.71235 5.93764 4.15624 6.62231C4.60012 7.30697 5.27649 7.80815 6.06072 8.03351C4.94632 8.16884 3.99058 8.56271 3.27005 9.27297C2.35351 10.1755 1.88965 11.5204 1.88965 13.2751C1.88965 13.3927 1.93636 13.5055 2.0195 13.5886C2.10264 13.6717 2.2154 13.7184 2.33298 13.7184C2.45056 13.7184 2.56332 13.6717 2.64647 13.5886C2.72961 13.5055 2.77631 13.3927 2.77631 13.2751C2.77631 11.6698 3.19912 10.5871 3.89258 9.90391C4.58698 9.21977 5.62485 8.86511 6.99965 8.86511C8.37445 8.86511 9.41232 9.21977 10.1076 9.90391C10.8002 10.588 11.223 11.6698 11.223 13.2751C11.223 13.3927 11.2697 13.5055 11.3528 13.5886C11.436 13.6717 11.5487 13.7184 11.6663 13.7184C11.7839 13.7184 11.8967 13.6717 11.9798 13.5886C12.0629 13.5055 12.1096 13.3927 12.1096 13.2751C12.1096 11.5204 11.6458 10.1764 10.7283 9.27297C10.0096 8.56364 9.05298 8.16884 7.93858 8.03351C8.72019 7.80562 9.39348 7.30367 9.83506 6.61967C10.2766 5.93567 10.4569 5.11543 10.3428 4.30931C10.2288 3.50319 9.82797 2.76518 9.21395 2.23056C8.59993 1.69594 7.8138 1.40052 6.99965 1.39844ZM4.50298 4.78177C4.50298 4.11962 4.76602 3.48458 5.23424 3.01636C5.70245 2.54815 6.33749 2.28511 6.99965 2.28511C7.66181 2.28511 8.29684 2.54815 8.76506 3.01636C9.23327 3.48458 9.49632 4.11962 9.49632 4.78177C9.49632 5.44393 9.23327 6.07897 8.76506 6.54718C8.29684 7.0154 7.66181 7.27844 6.99965 7.27844C6.33749 7.27844 5.70245 7.0154 5.23424 6.54718C4.76602 6.07897 4.50298 5.44393 4.50298 4.78177Z" fill="#052C62"></path></svg>