<svg xmlns="http://www.w3.org/2000/svg" width="81" height="61" viewBox="0 0 81 61" fill="none"><g clip-path="url(#clip0_3_1846)"><path fill-rule="evenodd" clip-rule="evenodd" d="M0.162109 0.375H114.162V4.99225H0.162109V0.375ZM0.162109 9.60938H114.162V14.2266H0.162109V9.60938ZM0.162109 18.832H114.162V23.4609H0.162109V18.832ZM0.162109 28.0664H114.162V32.6836H0.162109V28.0664ZM0.162109 37.3008H114.162V41.918H0.162109V37.3008ZM0.162109 46.5234H114.162V51.1406H0.162109V46.5234ZM0.162109 55.7578H114.162V60.375H0.162109V55.7578Z" fill="#BD3D44"></path><path fill-rule="evenodd" clip-rule="evenodd" d="M0.162109 4.99219H114.162V9.60931H0.162109V4.99219ZM0.162109 14.2264H114.162V18.8319H0.162109V14.2264ZM0.162109 23.4492H114.162V28.0663H0.162109V23.4492ZM0.162109 32.6836H114.162V37.3007H0.162109V32.6836ZM0.162109 41.9179H114.162V46.5351H0.162109V41.9179ZM0.162109 51.1406H114.162V55.7578H0.162109V51.1406Z" fill="white"></path><path fill-rule="evenodd" clip-rule="evenodd" d="M0.162109 0.375H45.7597V32.6836H0.162109V0.375Z" fill="#192F5D"></path><path fill-rule="evenodd" clip-rule="evenodd" d="M3.95892 1.75781L4.3808 3.03494H5.7168L4.63855 3.82019L5.0488 5.10919L3.95892 4.31231L2.8808 5.09744L3.29092 3.82019L2.20117 3.03494H3.56055L3.95892 1.75781ZM11.5644 1.75781L11.9745 3.03494H13.3222L12.2323 3.82019L12.6425 5.10919L11.5644 4.31231L10.4745 5.09744L10.8847 3.82019L9.80655 3.03494H11.1425L11.5644 1.75781ZM19.1582 1.75781L19.58 3.03506H20.9043L19.8262 3.82031L20.2362 5.10931L19.1464 4.31244L18.0683 5.09756L18.4784 3.82031L17.3885 3.03506H18.7363L19.1582 1.75781ZM26.7637 1.75781L27.1737 3.03506H28.5214L27.4315 3.82031L27.8534 5.10931L26.7635 4.31244L25.6738 5.09756L26.0957 3.82031L25.0058 3.03506H26.3418L26.7637 1.75781ZM34.3574 1.75781L34.7793 3.03506H36.1152L35.037 3.82031L35.4472 5.10931L34.3573 4.31244L33.2792 5.09756L33.6894 3.82031L32.6113 3.03506H33.9472L34.3574 1.75781ZM41.9628 1.75781L42.3729 3.03506H43.7207L42.6308 3.82031L43.0527 5.10931L41.9628 4.31244L40.8729 5.09756L41.2948 3.82031L40.205 3.03506H41.5527L41.9628 1.75781ZM7.76755 4.99194L8.17767 6.26944H9.5253L8.43542 7.05444L8.83392 8.33194L7.77917 7.54669L6.68942 8.33181L7.07605 7.05456L6.02142 6.26931H7.35742L7.76755 4.99194ZM15.3613 4.99194L15.7832 6.26944H17.119L16.0292 7.05444L16.4512 8.33194L15.3612 7.54669L14.2714 8.33181L14.6933 7.05456L13.6034 6.26931H14.951L15.3613 4.99194ZM22.9668 4.99194L23.3768 6.26944H24.7245L23.6347 7.05444L24.0448 8.33194L22.9667 7.54669L21.8769 8.33181L22.287 7.05469L21.2089 6.26944H22.5449L22.9668 4.99194ZM30.5605 4.99194L30.9824 6.26944H32.3183L31.2284 7.05444L31.6503 8.33194L30.5604 7.54669L29.4823 8.33181L29.8925 7.05456L28.8027 6.26931H30.162L30.5605 4.99194ZM38.1659 4.99194L38.576 6.26944H39.9238L38.8339 7.05444L39.244 8.33194L38.1659 7.54669L37.076 8.33181L37.4863 7.05456L36.4082 6.26931H37.744L38.1659 4.99194ZM3.95892 8.21494L4.3808 9.51569H5.7168L4.63855 10.3008L5.0488 11.5782L3.95892 10.7813L2.8808 11.5782L3.29092 10.2891L2.20117 9.50406H3.56055L3.95892 8.21494ZM11.5644 8.21494L11.9745 9.50369H13.3222L12.2323 10.2888L12.6425 11.5663L11.5644 10.7693L10.4745 11.5662L10.8847 10.2772L9.80655 9.49206H11.1425L11.5644 8.21494ZM19.1582 8.21494L19.58 9.50394H20.9043L19.8262 10.2891L20.2362 11.5666L19.1464 10.7696L18.0683 11.5664L18.4784 10.2774L17.3885 9.49231H18.7363L19.1582 8.21494ZM26.7637 8.21494L27.1737 9.50394H28.5214L27.4315 10.2891L27.8534 11.5666L26.7635 10.7696L25.6738 11.5664L26.0957 10.2774L25.0058 9.49231H26.3418L26.7637 8.21494ZM34.3574 8.21494L34.7793 9.50394H36.1152L35.037 10.2889L35.4472 11.5664L34.3573 10.7694L33.2792 11.5663L33.6894 10.2773L32.6113 9.49219H33.9472L34.3574 8.21494ZM41.9628 8.21494L42.3729 9.50394H43.7207L42.6308 10.2891L43.0527 11.5666L41.9628 10.7696L40.8729 11.5664L41.2948 10.2774L40.205 9.49231H41.5527L41.9628 8.21494ZM7.76755 11.4492L8.17767 12.7266H9.5253L8.43542 13.5116L8.84567 14.8007L7.76755 14.0038L6.67767 14.7889L7.0878 13.5117L6.00967 12.7266H7.3458L7.76755 11.4492ZM15.3613 11.4492L15.7832 12.7266H17.119L16.0292 13.5116L16.4512 14.8007L15.3612 14.0038L14.2714 14.7889L14.6933 13.5117L13.6034 12.7266H14.951L15.3613 11.4492ZM22.9668 11.4492L23.3768 12.7266H24.7245L23.6347 13.5116L24.0448 14.8007L22.9667 14.0038L21.8769 14.7889L22.287 13.5117L21.2089 12.7266H22.5449L22.9668 11.4492ZM30.5605 11.4492L30.9824 12.7266H32.3183L31.2402 13.5116L31.6503 14.8007L30.5604 14.0038L29.4823 14.7889L29.8925 13.5117L28.8027 12.7266H30.162L30.5605 11.4492ZM38.1659 11.4492L38.576 12.7266H39.9238L38.8339 13.5116L39.244 14.8007L38.1659 14.0038L37.076 14.7889L37.4863 13.5117L36.4082 12.7266H37.744L38.1659 11.4492ZM3.95892 14.6836L4.3808 15.9609H5.7168L4.63855 16.7459L5.0488 18.0351L3.95892 17.2382L2.8808 18.0233L3.29092 16.7461L2.20117 15.9609H3.56055L3.95892 14.6836ZM11.5644 14.6836L11.9745 15.9609H13.3222L12.2323 16.7459L12.6425 18.0234L11.5644 17.2382L10.4745 18.0233L10.8847 16.7461L9.80655 15.9609H11.1425L11.5644 14.6836ZM19.1582 14.6836L19.58 15.9609H20.9043L19.8262 16.7459L20.2362 18.0351L19.1464 17.2382L18.0683 18.0233L18.4784 16.7461L17.3885 15.9609H18.7363L19.1582 14.6836ZM26.7637 14.6836L27.1737 15.9609H28.5214L27.4315 16.7459L27.8534 18.0351L26.7635 17.2382L25.6738 18.0233L26.0957 16.7461L25.0058 15.9609H26.3418L26.7637 14.6836ZM34.3574 14.6836L34.7793 15.9609H36.1152L35.037 16.7459L35.4472 18.0351L34.3573 17.2382L33.2792 18.0233L33.6894 16.7461L32.6113 15.9609H33.9472L34.3574 14.6836ZM41.9628 14.6836L42.3729 15.9609H43.7207L42.6308 16.7459L43.0527 18.0351L41.9628 17.2382L40.8729 18.0233L41.2948 16.7461L40.205 15.9609H41.5527L41.9628 14.6836ZM7.76755 17.9179L8.17767 19.1953H9.5253L8.43542 19.9803L8.84567 21.2578L7.76755 20.4609L6.67767 21.2578L7.0878 19.9687L6.00967 19.1836H7.3458L7.76755 17.9179ZM15.3613 17.9179L15.7832 19.1953H17.119L16.0292 19.9803L16.4512 21.2578L15.3612 20.4609L14.2714 21.2578L14.6933 19.9687L13.6034 19.1836H14.951L15.3613 17.9179ZM22.9668 17.9179L23.3768 19.1953H24.7245L23.6347 19.9803L24.0448 21.2578L22.9667 20.4609L21.8769 21.2578L22.287 19.9687L21.2089 19.1836H22.5449L22.9668 17.9179ZM30.5605 17.9179L30.9824 19.1953H32.3183L31.2402 19.9803L31.6503 21.2578L30.5604 20.4609L29.4823 21.2578L29.8925 19.9687L28.8027 19.1836H30.162L30.5605 17.9179ZM38.1659 17.9179L38.576 19.1953H39.9238L38.8339 19.9803L39.244 21.2578L38.1659 20.4609L37.076 21.2578L37.4863 19.9687L36.4082 19.1836H37.744L38.1659 17.9179ZM3.95892 21.1406L4.3808 22.4297H5.7168L4.63855 23.2147L5.0488 24.4804L3.95892 23.6953L2.8808 24.4803L3.29092 23.2031L2.20117 22.4179H3.56055L3.95892 21.1406ZM11.5644 21.1406L11.9745 22.4297H13.3222L12.2323 23.2147L12.6543 24.4804L11.5643 23.6953L10.4745 24.4803L10.8964 23.2031L9.80655 22.4179H11.1425L11.5644 21.1406ZM19.1582 21.1406L19.58 22.4297H20.9043L19.8262 23.2147L20.2362 24.4804L19.1464 23.6953L18.0683 24.4803L18.4784 23.2031L17.3885 22.4179H18.7363L19.1582 21.1406ZM26.7637 21.1406L27.1737 22.4297H28.5214L27.4315 23.2147L27.8534 24.4804L26.7635 23.6953L25.6738 24.4803L26.0957 23.2031L25.0058 22.4179H26.3418L26.7637 21.1406ZM34.3574 21.1406L34.7793 22.4297H36.1152L35.037 23.2147L35.4472 24.4804L34.3573 23.6953L33.2792 24.4803L33.6894 23.2031L32.6113 22.4179H33.9472L34.3574 21.1406ZM41.9628 21.1406L42.3729 22.4297H43.7207L42.6308 23.2147L43.0527 24.4804L41.9628 23.6953L40.8729 24.4803L41.2948 23.2031L40.205 22.4179H41.5527L41.9628 21.1406ZM7.76755 24.3749L8.17767 25.6523H9.5253L8.43542 26.4374L8.84567 27.7266L7.76755 26.9297L6.67767 27.7147L7.0878 26.4374L6.00967 25.6523H7.3458L7.76755 24.3749ZM15.3613 24.3749L15.7832 25.6523H17.119L16.0292 26.4374L16.4512 27.7266L15.3612 26.9297L14.2714 27.7147L14.6933 26.4374L13.6034 25.6523H14.951L15.3613 24.3749ZM22.9668 24.3749L23.3768 25.6523H24.7245L23.6347 26.4374L24.0448 27.7266L22.9667 26.9297L21.8769 27.7147L22.287 26.4374L21.2089 25.6523H22.5449L22.9668 24.3749ZM30.5605 24.3749L30.9824 25.6523H32.3183L31.2402 26.4374L31.6503 27.7266L30.5604 26.9297L29.4823 27.7147L29.8925 26.4374L28.8027 25.6523H30.162L30.5605 24.3749ZM38.1659 24.3749L38.576 25.6523H39.9238L38.8339 26.4374L39.244 27.7266L38.1659 26.9297L37.076 27.7147L37.4863 26.4374L36.4082 25.6523H37.744L38.1659 24.3749ZM3.95892 27.6093L4.3808 28.8867H5.7168L4.63855 29.6718L5.0488 30.9492L3.95892 30.1641L2.8808 30.9491L3.29092 29.6601L2.20117 28.8749H3.56055L3.95892 27.6093ZM11.5644 27.6093L11.9745 28.8867H13.3222L12.2323 29.6718L12.6543 30.9492L11.5643 30.1641L10.4745 30.9491L10.8964 29.6601L9.80655 28.8749H11.1425L11.5644 27.6093ZM19.1582 27.6093L19.58 28.8867H20.9043L19.8495 29.6718L20.2597 30.9492L19.1698 30.1641L18.0917 30.9491L18.5019 29.6601L17.412 28.8749H18.7597L19.1582 27.6093ZM26.7637 27.6093L27.1737 28.8867H28.5214L27.4315 29.6718L27.8534 30.9492L26.7635 30.1641L25.6738 30.9491L26.0957 29.6601L25.0058 28.8749H26.3418L26.7637 27.6093ZM34.3574 27.6093L34.7793 28.8867H36.1152L35.037 29.6718L35.4472 30.9492L34.3573 30.1641L33.2792 30.9491L33.6894 29.6601L32.6113 28.8749H33.9472L34.3574 27.6093ZM41.9628 27.6093L42.3729 28.8867H43.7207L42.6308 29.6718L43.0527 30.9492L41.9628 30.1641L40.8729 30.9491L41.2948 29.6601L40.205 28.8749H41.5527L41.9628 27.6093Z" fill="white"></path></g><defs><clipPath id="clip0_3_1846"><rect width="80" height="60" fill="white" transform="translate(0.162109 0.375)"></rect></clipPath></defs></svg>