<svg xmlns="http://www.w3.org/2000/svg" width="127" height="114" viewBox="0 0 127 114" fill="none"><g clip-path="url(#clip0_2087_7327)"><path d="M73.7127 112.383C71.5911 111.613 70.0185 110.343 69.0039 109.22C68.4966 108.669 68.1233 108.175 67.8761 107.819C67.6299 107.463 67.5078 107.245 67.5078 107.245C67.5078 107.245 68.4996 107.122 69.959 107.231C70.6897 107.27 71.5375 107.322 72.4538 107.494C72.9135 107.587 73.385 107.656 73.8705 107.773C74.355 107.888 74.8524 108.031 75.3557 108.211C75.6069 108.303 75.8531 108.392 76.0943 108.48C76.3356 108.572 76.5718 108.668 76.8042 108.769C77.2678 108.973 77.7125 109.193 78.1355 109.424C78.3479 109.538 78.5544 109.658 78.753 109.772C78.9515 109.882 79.1441 109.993 79.3298 110.105C79.7011 110.328 80.0485 110.552 80.3642 110.767C80.9966 111.198 81.5079 111.594 81.8594 111.882C82.2128 112.173 82.4004 112.344 82.4004 112.344C82.4004 112.344 82.3339 112.37 82.2088 112.411C82.0827 112.448 81.8971 112.501 81.6598 112.561C81.1853 112.679 80.5042 112.828 79.6872 112.943C79.2801 113.01 78.8294 113.022 78.3588 113.04C77.8873 113.053 77.3909 113.05 76.8796 113.021C76.3703 113.003 75.8402 112.913 75.308 112.809C74.7759 112.701 74.2408 112.562 73.7127 112.385M82.5325 98.8971C82.2237 99.2602 81.9378 99.6423 81.6747 100.032C81.4106 100.421 81.1595 100.788 80.9321 101.173C80.4764 101.93 80.1032 102.7 79.7984 103.359C79.4916 104.009 79.2623 104.58 79.1114 104.987C78.9595 105.395 78.887 105.638 78.887 105.638C78.887 105.638 79.1332 105.605 79.5532 105.513C79.7626 105.467 80.0148 105.406 80.3017 105.327C80.5866 105.247 80.8994 105.124 81.2379 104.992C81.5764 104.856 81.9378 104.697 82.3101 104.515C82.4957 104.421 82.6873 104.331 82.874 104.217C83.0626 104.103 83.2512 103.982 83.4409 103.854C84.1974 103.34 84.9648 102.739 85.6081 101.936C85.9337 101.544 86.2216 101.141 86.4728 100.736C86.5989 100.537 86.714 100.328 86.8183 100.116C86.9225 99.9053 87.0198 99.6963 87.1082 99.4892C87.4636 98.6591 87.6959 97.8739 87.8418 97.1808C87.9808 96.4736 88.0404 95.8765 88.0672 95.4555C88.094 95.0344 88.0861 94.7903 88.0861 94.7903C88.0861 94.7903 87.8845 94.8673 87.5529 95.0354C87.3861 95.1194 87.1876 95.2244 86.9642 95.3544C86.7379 95.4785 86.4817 95.6125 86.2117 95.7785C85.6686 96.1016 85.071 96.5547 84.4307 97.0448C84.115 97.2978 83.7953 97.5819 83.4796 97.8989L83.2433 98.141L83.004 98.38C82.8452 98.5451 82.6883 98.7171 82.5325 98.8981V98.8971ZM86.1223 109.566C85.5654 109.502 85.0333 109.401 84.5319 109.275C84.0306 109.148 83.5491 108.964 83.1053 108.782C82.2158 108.408 81.4623 107.987 80.8477 107.563C80.2302 107.13 79.7587 106.724 79.44 106.428C79.1213 106.131 78.9545 105.942 78.9545 105.942C78.9545 105.942 79.1918 105.861 79.6097 105.757C79.8192 105.705 80.0734 105.646 80.3662 105.589C80.6581 105.53 80.9837 105.449 81.3441 105.385C81.7035 105.318 82.0956 105.259 82.5146 105.212C82.7251 105.192 82.9405 105.17 83.1609 105.149C83.3803 105.123 83.6047 105.101 83.836 105.084C84.7583 105.012 85.7769 105.044 86.8213 105.125C87.3464 105.175 87.8617 105.256 88.3611 105.358C88.6112 105.41 88.8555 105.463 89.0937 105.513C89.332 105.566 89.5673 105.622 89.7966 105.683C90.7129 105.924 91.5578 106.227 92.2686 106.507C92.9745 106.773 93.5543 107.036 93.9573 107.233C94.3604 107.429 94.5857 107.56 94.5857 107.56C94.5857 107.56 94.3455 107.713 93.9126 107.944C93.6972 108.061 93.4331 108.196 93.1264 108.342C92.8176 108.481 92.4602 108.618 92.0711 108.759C91.2887 109.034 90.3764 109.334 89.3518 109.472C88.8435 109.549 88.3154 109.606 87.7773 109.633C87.6423 109.639 87.5083 109.645 87.3713 109.646C87.2333 109.643 87.0963 109.639 86.9573 109.632C86.6803 109.619 86.4013 109.596 86.1223 109.564V109.566ZM91.802 94.4343C91.5886 94.8753 91.3771 95.2854 91.2014 95.7195C91.0227 96.1496 90.8688 96.5847 90.7328 97.0138C90.6643 97.2268 90.6027 97.4428 90.5422 97.6499C90.4796 97.8539 90.4221 98.055 90.3684 98.252C90.2612 98.6481 90.1709 99.0291 90.0934 99.3862C89.9406 100.099 89.8453 100.715 89.7887 101.152C89.7619 101.37 89.742 101.541 89.7281 101.656C89.7172 101.774 89.7112 101.835 89.7112 101.835C89.7112 101.835 89.7698 101.814 89.878 101.773C89.9862 101.729 90.1371 101.655 90.3297 101.559C90.7139 101.366 91.252 101.072 91.8616 100.671C92.1693 100.479 92.4741 100.22 92.7968 99.9543C93.1164 99.6843 93.4421 99.3872 93.7617 99.0632C93.8402 98.9811 93.9196 98.8991 94 98.8151C94.0765 98.7271 94.1529 98.6351 94.2274 98.5441C94.3773 98.359 94.5252 98.168 94.6681 97.9699C94.9541 97.5749 95.2231 97.1538 95.4634 96.7087C95.924 95.7905 96.2159 94.8513 96.3966 93.9812C96.5663 93.097 96.607 92.2528 96.6011 91.5457C96.5902 90.8326 96.5336 90.2534 96.4631 89.8304C96.3946 89.4103 96.335 89.1712 96.335 89.1712C96.335 89.1712 96.2913 89.2032 96.2109 89.2643C96.1295 89.3243 96.0203 89.4233 95.8704 89.5343C95.5736 89.7633 95.1665 90.1034 94.7178 90.5565C93.8094 91.4557 92.6866 92.7269 91.802 94.4343ZM97.6177 104.029C97.0707 104.109 96.5157 104.104 95.9965 104.089C95.4733 104.069 94.9759 104.017 94.5053 103.943C94.2691 103.906 94.0437 103.865 93.8213 103.815C93.5969 103.761 93.3815 103.702 93.173 103.641C92.758 103.518 92.3758 103.384 92.0303 103.248C91.3394 102.975 90.7943 102.694 90.4211 102.481C90.2354 102.377 90.0895 102.284 89.9912 102.218C89.8939 102.152 89.8423 102.117 89.8423 102.117C89.8423 102.117 90.0607 101.995 90.4379 101.784C90.8192 101.577 91.3682 101.304 92.0502 101.031C92.3957 100.902 92.7521 100.73 93.1492 100.588C93.5433 100.441 93.9653 100.299 94.415 100.173C94.5272 100.143 94.6413 100.111 94.7555 100.081C94.8697 100.047 94.9829 100.014 95.098 99.9813C95.3293 99.9173 95.5666 99.8563 95.8098 99.8023C96.2963 99.6933 96.8066 99.6043 97.3367 99.5462C98.3781 99.4012 99.3977 99.3722 100.359 99.4202C101.307 99.4532 102.177 99.5352 102.934 99.6503C103.686 99.7613 104.322 99.9043 104.752 99.9993C105.185 100.097 105.43 100.174 105.43 100.174C105.43 100.174 105.379 100.224 105.285 100.318C105.188 100.408 105.054 100.55 104.861 100.703C104.482 101.017 103.929 101.446 103.238 101.905C103.065 102.021 102.883 102.137 102.695 102.254C102.5 102.365 102.297 102.474 102.087 102.583C101.666 102.8 101.216 103.013 100.742 103.21C100.505 103.308 100.264 103.406 100.013 103.49C99.7601 103.57 99.501 103.645 99.2379 103.713C98.7117 103.849 98.1697 103.958 97.6177 104.029ZM99.8822 87.986C99.7521 88.4461 99.6529 88.9132 99.5754 89.3793C99.5377 89.6113 99.5059 89.8434 99.4781 90.0744C99.4474 90.3014 99.4166 90.5225 99.3938 90.7435C99.3004 91.6267 99.2786 92.4729 99.2875 93.21C99.2975 93.9472 99.3203 94.5483 99.358 94.9844C99.3928 95.4174 99.4295 95.6695 99.4295 95.6695C99.4295 95.6695 99.639 95.5325 99.9795 95.2674C100.328 95.0114 100.777 94.5903 101.277 94.0532C101.526 93.7841 101.787 93.4851 102.048 93.16C102.303 92.8259 102.547 92.4519 102.785 92.0598C103.021 91.6647 103.251 91.2496 103.45 90.8055C103.638 90.3505 103.804 89.8734 103.937 89.3793C104.066 88.8832 104.17 88.4071 104.213 87.918C104.258 87.4319 104.272 86.9608 104.261 86.5107C104.25 86.0616 104.216 85.6335 104.164 85.2335C104.113 84.8324 104.028 84.4443 103.948 84.0982C103.78 83.4021 103.587 82.838 103.436 82.4479C103.285 82.0578 103.178 81.8398 103.178 81.8398C103.178 81.8398 103.026 81.9968 102.792 82.2899C102.675 82.4369 102.538 82.618 102.388 82.83C102.237 83.043 102.083 83.2931 101.899 83.5531C101.72 83.8182 101.536 84.1122 101.356 84.4353C101.266 84.5973 101.176 84.7654 101.088 84.9414C101.045 85.0304 101.002 85.1194 100.957 85.2105C100.913 85.2995 100.865 85.3895 100.819 85.4805C100.637 85.8456 100.464 86.2387 100.308 86.6597C100.231 86.8708 100.157 87.0878 100.089 87.3129C100.02 87.5369 99.9438 87.755 99.8812 87.987L99.8822 87.986ZM107.621 96.0476C107.089 96.2296 106.564 96.3696 106.055 96.4716C105.801 96.5227 105.551 96.5647 105.305 96.5997C105.057 96.6297 104.807 96.6467 104.568 96.6597C103.605 96.7097 102.738 96.6487 102.011 96.5447C101.283 96.4386 100.674 96.2666 100.263 96.1406C99.8494 96.0116 99.6201 95.9145 99.6201 95.9145C99.6201 95.9145 99.7998 95.7395 100.134 95.4625C100.477 95.1954 100.942 94.7923 101.539 94.3622C101.838 94.1472 102.168 93.9232 102.528 93.7001C102.881 93.4691 103.254 93.226 103.661 92.998C104.065 92.7669 104.501 92.5479 104.957 92.3388C105.402 92.1178 105.875 91.9118 106.374 91.7307C106.869 91.5457 107.384 91.4087 107.864 91.2686C108.348 91.1326 108.828 91.0226 109.296 90.9346C109.764 90.8456 110.22 90.7775 110.656 90.7255C111.092 90.6735 111.489 90.6235 111.868 90.5935C112.621 90.5305 113.26 90.5165 113.709 90.5205C114.157 90.5245 114.416 90.5455 114.416 90.5455C114.416 90.5455 114.262 90.7865 113.965 91.1806C113.817 91.3777 113.633 91.6137 113.416 91.8778C113.196 92.1398 112.953 92.4359 112.651 92.7249C112.354 93.019 112.027 93.327 111.668 93.6391C111.49 93.7951 111.303 93.9502 111.109 94.1052C111.012 94.1822 110.914 94.2592 110.815 94.3372C110.71 94.4092 110.604 94.4823 110.498 94.5563C110.068 94.8453 109.612 95.1234 109.135 95.3794C108.896 95.5075 108.651 95.6305 108.402 95.7455C108.154 95.8605 107.886 95.9556 107.621 96.0486V96.0476ZM106.379 79.8894C106.369 80.1305 106.366 80.3715 106.37 80.6116C106.376 80.8526 106.382 81.0897 106.388 81.3207C106.404 81.7848 106.442 82.2419 106.497 82.687C106.551 83.1321 106.62 83.5631 106.698 83.9742C106.771 84.3823 106.842 84.7604 106.922 85.1154C107.079 85.8236 107.249 86.4197 107.379 86.8368C107.509 87.2539 107.601 87.4929 107.601 87.4929C107.601 87.4929 107.773 87.3099 108.042 86.9708C108.177 86.8008 108.336 86.5917 108.51 86.3477C108.681 86.1006 108.883 85.8296 109.057 85.5035C109.414 84.8574 109.806 84.0952 110.101 83.2221C110.241 82.78 110.364 82.3159 110.461 81.8378C110.558 81.3577 110.636 80.8676 110.644 80.3475C110.66 79.8314 110.638 79.3323 110.588 78.8532C110.539 78.3751 110.463 77.92 110.344 77.478C110.118 76.5998 109.817 75.8296 109.515 75.1935C109.44 75.0345 109.364 74.8844 109.291 74.7424C109.212 74.5984 109.135 74.4634 109.06 74.3373C108.911 74.0853 108.773 73.8712 108.655 73.6972C108.42 73.3492 108.265 73.1601 108.265 73.1601C108.265 73.1601 108.155 73.3492 107.998 73.6912C107.852 74.0383 107.606 74.5124 107.388 75.1155C107.276 75.4175 107.168 75.7476 107.068 76.1067C106.951 76.4567 106.843 76.8318 106.75 77.2329C106.655 77.632 106.587 78.0641 106.522 78.5062C106.449 78.9452 106.4 79.4053 106.38 79.8884L106.379 79.8894ZM115.663 86.0256C115.427 86.1766 115.19 86.3167 114.954 86.4457C114.835 86.5107 114.717 86.5727 114.599 86.6327C114.477 86.6888 114.356 86.7428 114.235 86.7948C113.751 87.0018 113.276 87.1708 112.816 87.3059C112.357 87.4419 111.915 87.5439 111.497 87.6219C111.074 87.6959 110.666 87.7359 110.294 87.763C109.551 87.814 108.937 87.796 108.509 87.765C108.082 87.735 107.837 87.6929 107.837 87.6929C107.837 87.6929 107.972 87.4779 108.234 87.1288C108.365 86.9548 108.527 86.7458 108.72 86.5147C108.91 86.2807 109.145 86.0346 109.378 85.7486C109.854 85.1844 110.463 84.5723 111.156 83.9442C111.496 83.6252 111.863 83.3071 112.261 82.998C112.658 82.689 113.094 82.3959 113.527 82.0978C113.968 81.8058 114.418 81.5427 114.871 81.3067C115.324 81.0717 115.781 80.8646 116.207 80.6666C117.071 80.2765 117.909 79.9804 118.643 79.7554C118.828 79.7004 119.004 79.6494 119.172 79.6004C119.339 79.5524 119.495 79.5063 119.642 79.4643C119.939 79.3833 120.201 79.3183 120.418 79.2683C120.853 79.1683 121.108 79.1303 121.108 79.1303C121.108 79.1303 121.013 79.4013 120.817 79.8584C120.632 80.3205 120.29 80.9386 119.855 81.6538C119.635 82.0118 119.387 82.3899 119.111 82.777C118.818 83.1541 118.496 83.5411 118.146 83.9242C117.794 84.3053 117.425 84.6884 117.01 85.0424C116.587 85.3925 116.137 85.7236 115.664 86.0266L115.663 86.0256ZM110.978 70.5496C111.124 71.4908 111.39 72.404 111.7 73.2521C111.983 74.0883 112.312 74.8594 112.627 75.5196C112.941 76.1777 113.247 76.7268 113.451 77.0979C113.662 77.473 113.801 77.683 113.801 77.683C113.801 77.683 113.936 77.4699 114.134 77.0829C114.316 76.6878 114.557 76.1167 114.79 75.4156C115.038 74.7234 115.203 73.8692 115.312 72.9551C115.338 72.726 115.36 72.493 115.374 72.2569C115.391 72.0209 115.38 71.7738 115.374 71.5278C115.357 71.0357 115.309 70.5336 115.225 70.0325C115.181 69.7804 115.134 69.5374 115.071 69.2964C115.003 69.0533 114.928 68.8183 114.847 68.5892C114.685 68.1321 114.503 67.702 114.305 67.302C113.924 66.5058 113.439 65.8157 112.997 65.2616C112.554 64.7085 112.144 64.2854 111.844 64.0003C111.544 63.7153 111.356 63.5672 111.356 63.5672C111.356 63.5672 111.067 64.3934 110.929 65.6727C110.826 66.3058 110.752 67.0509 110.766 67.8801C110.747 68.6982 110.798 69.5964 110.981 70.5506L110.978 70.5496ZM121.364 74.4434C120.547 75.2375 119.688 75.8586 118.864 76.3347C118.011 76.7988 117.194 77.1199 116.489 77.3409C115.783 77.562 115.192 77.687 114.755 77.746C114.324 77.809 114.074 77.821 114.074 77.821C114.074 77.821 114.167 77.585 114.356 77.1909C114.528 76.7878 114.791 76.2257 115.155 75.5786C115.537 74.9385 115.945 74.1823 116.496 73.4182C116.633 73.2271 116.777 73.0341 116.928 72.841C117.081 72.648 117.221 72.448 117.38 72.2519C117.693 71.8579 118.036 71.4678 118.414 71.0857C118.602 70.8947 118.799 70.7116 118.989 70.5336C119.175 70.3536 119.363 70.1805 119.555 70.0135C119.937 69.6794 120.326 69.3694 120.715 69.0843C121.502 68.5172 122.232 68.0321 122.888 67.645C123.544 67.257 124.116 66.9649 124.524 66.7709C124.932 66.5768 125.176 66.4818 125.176 66.4818C125.176 66.4818 125.019 67.628 124.505 69.2283C124.214 70.0195 123.827 70.9187 123.33 71.8299C122.799 72.729 122.143 73.6352 121.364 74.4434ZM113.407 60.4006C113.589 60.8447 113.811 61.2758 114.026 61.6889C114.236 62.1 114.462 62.496 114.698 62.8731C115.163 63.6253 115.689 64.3114 116.114 64.8765C116.553 65.4456 116.955 65.9087 117.247 66.2278C117.54 66.5468 117.722 66.7219 117.722 66.7219C117.722 66.7219 117.801 66.4818 117.903 66.0577C117.954 65.8457 118.011 65.5876 118.067 65.2906C118.094 65.1415 118.125 64.9855 118.146 64.8175C118.164 64.6495 118.181 64.4724 118.195 64.2884C118.224 63.9193 118.242 63.5182 118.245 63.0972C118.245 62.6741 118.243 62.233 118.172 61.7719C118.113 61.3118 118.028 60.8397 117.914 60.3646C117.857 60.1266 117.792 59.8885 117.719 59.6515C117.648 59.4144 117.546 59.1754 117.446 58.9393C117.242 58.4683 117.012 58.0252 116.764 57.6161C116.514 57.206 116.262 56.8289 115.964 56.4819C115.386 55.7877 114.788 55.2226 114.246 54.7805C113.974 54.5595 113.721 54.3685 113.483 54.2064C113.242 54.0444 113.026 53.9104 112.845 53.8043C112.483 53.5923 112.264 53.4893 112.264 53.4893C112.264 53.4893 112.246 53.7083 112.25 54.0874C112.253 54.4665 112.235 55.0036 112.296 55.6457C112.323 55.9668 112.37 56.3158 112.426 56.6829C112.468 57.05 112.53 57.437 112.617 57.8401C112.701 58.2432 112.818 58.6623 112.952 59.0914C113.071 59.5175 113.22 59.9555 113.405 60.4006H113.407ZM124.381 61.8539C124.078 62.333 123.766 62.7761 123.423 63.1772C123.072 63.5762 122.713 63.9373 122.355 64.2604C121.632 64.9075 120.943 65.4116 120.278 65.7817C119.626 66.1547 119.062 66.4058 118.661 66.5668C118.259 66.7269 118.021 66.7959 118.021 66.7959C118.021 66.7959 118.054 66.5428 118.145 66.1147C118.191 65.9007 118.251 65.6426 118.329 65.3486C118.369 65.2016 118.411 65.0465 118.457 64.8825C118.497 64.7175 118.541 64.5454 118.591 64.3664C118.69 64.0073 118.809 63.6233 118.951 63.2192C119.091 62.8151 119.27 62.395 119.432 61.9569C119.604 61.5198 119.802 61.0718 120.032 60.6187C120.147 60.3916 120.269 60.1636 120.4 59.9365C120.532 59.7085 120.651 59.4784 120.79 59.2494C121.063 58.7913 121.359 58.3572 121.668 57.9462C121.974 57.5341 122.307 57.147 122.605 56.7819C123.217 56.0528 123.846 55.4167 124.412 54.8926C124.694 54.6315 124.965 54.3975 125.2 54.1944C125.432 53.9904 125.641 53.8183 125.815 53.6783C126.164 53.3983 126.377 53.2522 126.377 53.2522C126.377 53.2522 126.408 53.5383 126.425 54.0354C126.44 54.5315 126.398 55.2386 126.31 56.0738C126.262 56.4909 126.205 56.9399 126.114 57.41C126.01 57.8801 125.883 58.3692 125.729 58.8673C125.573 59.3654 125.398 59.8735 125.18 60.3756C124.946 60.8777 124.68 61.3738 124.379 61.8549L124.381 61.8539ZM113.609 49.9356C113.877 50.3287 114.168 50.7027 114.473 51.0578C114.776 51.4129 115.105 51.7469 115.401 52.064C116.01 52.6961 116.637 53.2492 117.202 53.7063C117.483 53.9354 117.755 54.1404 117.99 54.3184C118.223 54.4965 118.431 54.6485 118.606 54.7715C118.955 55.0176 119.17 55.1466 119.17 55.1466C119.17 55.1466 119.2 54.8946 119.216 54.4585C119.231 54.0224 119.19 53.4003 119.104 52.6661C119.058 52.3 119.003 51.904 118.915 51.4929C118.812 51.0808 118.689 50.6517 118.54 50.2156C118.39 49.7786 118.22 49.3355 118.007 48.8974C117.779 48.4613 117.521 48.0292 117.229 47.6121C116.934 47.1971 116.631 46.814 116.296 46.4709C115.953 46.1289 115.603 45.8208 115.252 45.5457C114.546 44.9966 113.873 44.5745 113.222 44.2705C112.584 43.9634 112.032 43.7614 111.639 43.6354C111.246 43.5093 111.011 43.4563 111.011 43.4563C111.011 43.4563 111.035 43.6754 111.113 44.0444C111.152 44.2285 111.205 44.4505 111.273 44.7026C111.309 44.8286 111.348 44.9626 111.387 45.1036C111.423 45.2447 111.463 45.3927 111.508 45.5467C111.598 45.8548 111.706 46.1849 111.839 46.5309C111.969 46.877 112.139 47.2371 112.292 47.6131C112.455 47.9872 112.645 48.3723 112.868 48.7614C112.979 48.9554 113.098 49.1504 113.226 49.3465C113.355 49.5425 113.471 49.7406 113.607 49.9376L113.609 49.9356ZM124.63 48.9154C124.432 49.4525 124.205 49.9536 123.962 50.4197C123.716 50.8868 123.466 51.3169 123.171 51.7129C122.598 52.5051 122 53.1512 121.459 53.6593C121.187 53.9134 120.935 54.1334 120.697 54.3214C120.455 54.5085 120.239 54.6625 120.058 54.7845C119.697 55.0306 119.477 55.1516 119.477 55.1516C119.477 55.1516 119.459 54.8976 119.464 54.4595C119.467 54.0194 119.449 53.3973 119.506 52.6541C119.531 52.282 119.577 51.879 119.63 51.4539C119.669 51.0298 119.728 50.5807 119.809 50.1156C119.89 49.6505 120.001 49.1684 120.129 48.6753C120.241 48.1833 120.383 47.6802 120.56 47.1721C120.733 46.664 120.946 46.1709 121.154 45.7018C121.355 45.2337 121.573 44.7856 121.8 44.3595C122.247 43.5083 122.758 42.7422 123.169 42.1091C123.594 41.4739 123.985 40.9608 124.27 40.6078C124.555 40.2557 124.733 40.0637 124.733 40.0637C124.733 40.0637 124.821 40.3387 124.936 40.8228C124.993 41.0649 125.059 41.3579 125.123 41.697C125.153 41.867 125.189 42.0461 125.215 42.2371C125.238 42.4281 125.26 42.6292 125.278 42.8392C125.316 43.2593 125.345 43.7134 125.357 44.1935C125.366 44.6736 125.374 45.1767 125.313 45.6998C125.262 46.2219 125.186 46.759 125.08 47.2981C125.026 47.5681 124.966 47.8382 124.896 48.1082C124.828 48.3783 124.728 48.6493 124.632 48.9164L124.63 48.9154ZM111.555 39.6976C111.733 39.8576 111.921 40.0097 112.102 40.1597C112.279 40.3107 112.46 40.4557 112.642 40.5958C113.008 40.8738 113.383 41.1319 113.758 41.3689C114.521 41.84 115.23 42.2431 115.87 42.5652C116.51 42.8872 117.072 43.1283 117.473 43.2893C117.874 43.4493 118.115 43.5273 118.115 43.5273C118.115 43.5273 117.984 42.5211 117.521 41.1209C117.256 40.4307 116.899 39.6466 116.439 38.8564C115.945 38.0783 115.331 37.2991 114.596 36.614C113.823 35.9419 113.007 35.4278 112.221 35.0437C111.406 34.6706 110.623 34.4276 109.946 34.2675C109.268 34.1075 108.698 34.0285 108.276 33.9995C107.86 33.9675 107.618 33.9715 107.618 33.9715C107.618 33.9715 107.695 34.1765 107.858 34.5156C108.004 34.8627 108.23 35.3467 108.555 35.8979C108.897 36.443 109.26 37.0891 109.766 37.7352C109.891 37.8972 110.024 38.0603 110.164 38.2223C110.306 38.3843 110.435 38.5544 110.583 38.7194C110.874 39.0515 111.198 39.3795 111.555 39.6986V39.6976ZM122.082 36.2199C122.048 36.503 122.01 36.777 121.957 37.0471C121.897 37.3181 121.83 37.5832 121.758 37.8392C121.613 38.3523 121.444 38.8344 121.26 39.2825C120.903 40.1757 120.439 40.9468 120.012 41.566C119.585 42.1851 119.185 42.6592 118.892 42.9772C118.599 43.2953 118.414 43.4623 118.414 43.4623C118.414 43.4623 118.099 42.4971 117.909 41.0159C117.781 40.2837 117.676 39.4225 117.653 38.4724C117.597 37.5332 117.606 36.509 117.746 35.4308C117.847 34.3676 118.071 33.3474 118.344 32.4072C118.588 31.479 118.883 30.6318 119.171 29.9107C119.458 29.1906 119.741 28.5954 119.93 28.1934C120.126 27.7873 120.257 27.5612 120.257 27.5612C120.257 27.5612 120.408 27.8063 120.632 28.2484C120.84 28.6985 121.117 29.3496 121.391 30.1447C121.68 30.9319 121.89 31.8971 122.044 32.9293C122.082 33.1873 122.113 33.4504 122.139 33.7174C122.167 33.9835 122.167 34.2615 122.171 34.5376C122.174 35.0917 122.147 35.6558 122.083 36.2199H122.082ZM107.329 30.1787C107.737 30.4168 108.158 30.6258 108.583 30.8109C109.008 30.9969 109.441 31.1569 109.844 31.311C110.662 31.613 111.463 31.8351 112.167 31.9991C112.522 32.0761 112.844 32.1471 113.128 32.2091C113.414 32.2682 113.667 32.3132 113.877 32.3472C114.297 32.4152 114.545 32.4392 114.545 32.4392C114.545 32.4392 114.465 32.1991 114.294 31.7981C114.135 31.392 113.83 30.8509 113.442 30.2278C113.245 29.9167 113.023 29.5866 112.774 29.2506C112.508 28.9235 112.215 28.5914 111.897 28.2634C111.575 27.9363 111.239 27.6092 110.856 27.3102C110.467 27.0161 110.052 26.7391 109.612 26.491C109.393 26.367 109.173 26.253 108.953 26.15C108.843 26.0979 108.734 26.0479 108.624 26.0009C108.509 25.9559 108.396 25.9139 108.283 25.8749C107.831 25.7149 107.386 25.5898 106.955 25.4948C106.524 25.3998 106.108 25.3328 105.714 25.2888C105.316 25.2488 104.928 25.2378 104.578 25.2378C103.875 25.2388 103.292 25.2978 102.885 25.3558C102.477 25.4128 102.245 25.4678 102.245 25.4678C102.245 25.4678 102.359 25.6559 102.583 25.9569C102.695 26.107 102.835 26.286 103.002 26.484C103.166 26.6861 103.375 26.8941 103.578 27.1382C103.993 27.6202 104.535 28.1353 105.161 28.6594C105.466 28.9265 105.799 29.1896 106.163 29.4436C106.526 29.6966 106.929 29.9357 107.329 30.1777V30.1787ZM116.84 24.4136C116.887 24.9847 116.896 25.5378 116.874 26.0659C116.852 26.595 116.802 27.0961 116.705 27.5832C116.524 28.5484 116.26 29.3946 115.988 30.0907C115.919 30.2638 115.851 30.4288 115.783 30.5848C115.712 30.7419 115.64 30.8889 115.571 31.0269C115.433 31.301 115.304 31.535 115.193 31.725C114.971 32.1051 114.824 32.3102 114.824 32.3102C114.824 32.3102 114.7 32.0891 114.518 31.692C114.347 31.289 114.062 30.7379 113.798 30.0417C113.664 29.6957 113.53 29.3146 113.403 28.9045C113.259 28.5044 113.121 28.0743 112.998 27.6182C112.872 27.1632 112.771 26.6771 112.673 26.179C112.567 25.6859 112.483 25.1688 112.428 24.6317C112.4 24.3626 112.38 24.0956 112.368 23.8305C112.357 23.5645 112.347 23.3034 112.338 23.0484C112.322 22.5363 112.331 22.0362 112.356 21.5511C112.382 21.065 112.425 20.5969 112.479 20.1528C112.527 19.7127 112.576 19.3036 112.636 18.9226C112.754 18.1614 112.892 17.5253 113.001 17.0812C113.11 16.6371 113.191 16.3861 113.191 16.3861C113.191 16.3861 113.385 16.5961 113.691 16.9832C113.844 17.1772 114.025 17.4143 114.225 17.6923C114.42 17.9724 114.651 18.2804 114.854 18.6475C115.271 19.3766 115.731 20.2358 116.093 21.213C116.267 21.7071 116.425 22.2252 116.557 22.7593C116.687 23.2944 116.799 23.8395 116.84 24.4166V24.4136ZM101.137 21.8391C101.589 21.9781 102.063 22.0702 102.506 22.1672C102.952 22.2612 103.398 22.3312 103.834 22.3822C104.271 22.4342 104.698 22.4662 105.108 22.4862C105.518 22.5062 105.892 22.5283 106.251 22.5313C106.963 22.5433 107.57 22.5163 107.998 22.4852C108.427 22.4552 108.675 22.4192 108.675 22.4192C108.675 22.4192 108.541 22.2062 108.281 21.8591C108.151 21.6851 107.989 21.478 107.798 21.248C107.604 21.018 107.39 20.7599 107.121 20.5099C106.856 20.2548 106.563 19.9888 106.242 19.7207C106.082 19.5877 105.914 19.4537 105.741 19.3216C105.653 19.2556 105.565 19.1896 105.475 19.1236C105.381 19.0626 105.286 19.0016 105.19 18.9396C104.801 18.6965 104.389 18.4645 103.956 18.2554C103.738 18.1504 103.516 18.0504 103.289 17.9594C103.063 17.8663 102.818 17.7953 102.576 17.7243C102.088 17.5873 101.608 17.4893 101.139 17.4253C100.906 17.3933 100.675 17.3702 100.449 17.3542C100.22 17.3422 99.9904 17.3422 99.767 17.3442C98.8775 17.3602 98.0724 17.4753 97.3943 17.6223C96.7172 17.7713 96.1474 17.9754 95.7622 18.1224C95.374 18.2724 95.1576 18.3804 95.1576 18.3804C95.1576 18.3804 95.3115 18.5345 95.6004 18.7715C95.8952 19.0006 96.2963 19.3486 96.8175 19.7127C97.0776 19.8947 97.3675 20.0818 97.6852 20.2658C97.9969 20.4578 98.3255 20.6599 98.6879 20.8449C99.0473 21.033 99.4384 21.207 99.8504 21.371C100.251 21.5471 100.677 21.7061 101.134 21.8401L101.137 21.8391ZM109.176 14.0876C109.347 14.6307 109.493 15.1518 109.573 15.6829C109.656 16.211 109.704 16.7221 109.725 17.2092C109.745 17.6963 109.739 18.1584 109.715 18.5915C109.69 19.0246 109.628 19.4417 109.567 19.8137C109.441 20.5629 109.278 21.166 109.148 21.5831C109.018 22.0001 108.92 22.2312 108.92 22.2312C108.92 22.2312 108.748 22.0462 108.477 21.7051C108.342 21.5341 108.182 21.325 108.006 21.079C107.829 20.8349 107.646 20.5469 107.429 20.2478C107.219 19.9438 107 19.6067 106.782 19.2416C106.673 19.0576 106.564 18.8675 106.456 18.6685C106.404 18.5675 106.35 18.4675 106.296 18.3664C106.24 18.2654 106.183 18.1644 106.127 18.0624C105.902 17.6513 105.686 17.2122 105.487 16.7441C105.387 16.5111 105.292 16.27 105.2 16.023C105.11 15.7759 105.011 15.5359 104.925 15.2798C104.75 14.7747 104.607 14.2656 104.49 13.7605C104.431 13.5085 104.378 13.2574 104.332 13.0084C104.282 12.7634 104.234 12.5253 104.193 12.2883C104.027 11.3401 103.943 10.4389 103.902 9.65975C103.861 8.8806 103.845 8.24647 103.857 7.78938C103.865 7.33529 103.889 7.07224 103.889 7.07224C103.889 7.07224 104.125 7.23027 104.513 7.53433C104.907 7.82939 105.422 8.30448 105.997 8.9086C106.284 9.21066 106.585 9.54572 106.889 9.9118C107.186 10.2839 107.473 10.6989 107.756 11.135C108.037 11.5731 108.311 12.0322 108.555 12.5233C108.788 13.0244 108.998 13.5485 109.175 14.0886L109.176 14.0876ZM93.313 15.0698C94.2492 15.1428 95.1774 15.1058 96.061 14.9988C96.9327 14.9068 97.7378 14.7747 98.4427 14.6157C99.1436 14.4637 99.7412 14.2876 100.145 14.1716C100.552 14.0516 100.785 13.9646 100.785 13.9646C100.785 13.9646 100.741 13.9196 100.66 13.8366C100.575 13.7575 100.458 13.6295 100.289 13.4955C99.9567 13.2214 99.4682 12.8464 98.8567 12.4493C97.6286 11.6661 95.8347 10.869 93.8293 10.741C93.3358 10.6949 92.8325 10.731 92.3619 10.776C91.8884 10.825 91.4357 10.902 91.0078 11.001C90.7943 11.051 90.5878 11.102 90.3863 11.164C90.1818 11.2291 89.9842 11.2971 89.7946 11.3691C89.4154 11.5101 89.0659 11.6631 88.7502 11.8142C88.1178 12.1172 87.6185 12.4213 87.2759 12.6483C87.1052 12.7604 86.9712 12.8594 86.8808 12.9284C86.7905 12.9984 86.7428 13.0364 86.7428 13.0364C86.7428 13.0364 86.9305 13.1434 87.2541 13.3275C87.5807 13.5065 88.0543 13.7405 88.646 13.9656C88.9468 14.0696 89.2555 14.2136 89.602 14.3277C89.9455 14.4467 90.3168 14.5577 90.7119 14.6517C90.8112 14.6737 90.9125 14.6957 91.0137 14.7197C91.114 14.7437 91.2143 14.7697 91.3155 14.7947C91.5201 14.8418 91.7305 14.8858 91.947 14.9218C92.3798 14.9968 92.8355 15.0488 93.313 15.0708V15.0698ZM99.4891 5.71098C100.055 6.70117 100.437 7.70737 100.696 8.63555C100.943 9.57973 101.049 10.4739 101.093 11.2231C101.135 11.9772 101.116 12.5883 101.073 13.0334C101.03 13.4755 100.982 13.7255 100.982 13.7255C100.982 13.7255 100.932 13.6875 100.839 13.6175C100.745 13.5475 100.619 13.4315 100.445 13.3015C100.103 13.0354 99.629 12.6403 99.0999 12.1242C98.0337 11.1 96.6934 9.67375 95.5924 7.83039C95.3244 7.3553 95.0623 6.91421 94.8379 6.45012C94.6106 5.99103 94.411 5.52994 94.2323 5.07685C94.142 4.85081 94.0606 4.62377 93.9802 4.40472C93.8978 4.19068 93.8213 3.97864 93.7498 3.7706C93.6059 3.35552 93.4818 2.95744 93.3775 2.58537C93.1651 1.84122 93.0241 1.2031 92.9377 0.752012C92.896 0.526969 92.8643 0.350934 92.8424 0.230911C92.8236 0.110887 92.8146 0.046875 92.8146 0.046875C92.8146 0.046875 92.8812 0.0728801 93.0033 0.120889C93.1264 0.170899 93.2991 0.255916 93.5185 0.365937C93.9553 0.58698 94.5699 0.920045 95.2678 1.36913C95.6222 1.58517 95.9746 1.87123 96.3459 2.16429C96.7153 2.46435 97.0925 2.79241 97.4658 3.14848C97.5581 3.2395 97.6514 3.33051 97.7448 3.42153C97.8331 3.51955 97.9225 3.61857 98.0128 3.71759C98.1895 3.91963 98.3642 4.12767 98.534 4.34271C98.8745 4.7728 99.1962 5.22888 99.4891 5.70998V5.71098ZM87.6333 1.77121C88.1188 2.05627 88.5666 2.36533 88.9776 2.68639C89.1831 2.84342 89.3786 3.01245 89.5643 3.18949C89.7499 3.36252 89.9267 3.53956 90.0934 3.71459C90.7626 4.41973 91.2897 5.11686 91.6888 5.74999C92.0849 6.39811 92.359 6.96222 92.5357 7.3633C92.7114 7.76538 92.7908 8.00542 92.7908 8.00542C92.7908 8.00542 92.5416 7.98342 92.1177 7.90841C91.9053 7.8714 91.6491 7.82139 91.3582 7.75538C91.0654 7.69536 90.7368 7.63435 90.3813 7.54634C89.6695 7.3813 88.8535 7.10625 87.9788 6.81019C87.543 6.65316 87.0943 6.46913 86.6386 6.25308C86.5254 6.19807 86.4112 6.14306 86.2971 6.08705C86.1819 6.03304 86.0677 5.97903 85.9516 5.92402C85.7213 5.811 85.4899 5.68997 85.2576 5.55995C84.796 5.2989 84.3552 5.01584 83.9363 4.71778C83.5173 4.42073 83.1202 4.14267 82.7469 3.83961C81.9993 3.2475 81.3431 2.62138 80.8001 2.08127C80.257 1.55017 79.8281 1.07307 79.5343 0.729008C79.2414 0.384941 79.0856 0.1729 79.0856 0.1729C79.0856 0.1729 79.3665 0.129891 79.853 0.0938842C80.0962 0.0748805 80.392 0.0578771 80.7296 0.0488754C81.0681 0.041874 81.4484 0.0668789 81.8614 0.0938842C82.2734 0.12389 82.7191 0.169899 83.1847 0.236912C83.418 0.272919 83.6563 0.304925 83.8985 0.358936C84.1408 0.413947 84.387 0.475959 84.6352 0.543972C85.6289 0.820026 86.6634 1.1781 87.6333 1.77221V1.77121ZM72.5283 101.172C71.0064 102.292 69.7723 103.757 68.8888 104.886C68.449 105.461 68.1025 105.975 67.8672 106.343C67.6309 106.711 67.5088 106.935 67.5088 106.935C67.5088 106.935 68.5016 107.007 69.9421 106.825C70.6599 106.719 71.4849 106.505 72.3367 106.206C72.7636 106.066 73.1924 105.847 73.6183 105.619C74.0433 105.388 74.4642 105.125 74.8692 104.828C75.0708 104.684 75.2634 104.519 75.447 104.35C75.6297 104.182 75.8034 104.01 75.9702 103.837C76.3018 103.489 76.5987 103.133 76.8637 102.777C76.9958 102.599 77.1209 102.425 77.236 102.245C77.3512 102.061 77.4584 101.879 77.5597 101.701C77.7602 101.343 77.931 100.997 78.0769 100.673C78.3688 100.025 78.5594 99.4652 78.6775 99.0662C78.7957 98.6701 78.8413 98.422 78.8413 98.422C78.8413 98.422 78.7887 98.432 78.6904 98.451C78.5912 98.467 78.4472 98.493 78.2665 98.5321C77.9032 98.6101 77.3939 98.7421 76.7992 98.9581C76.5033 99.0762 76.1767 99.1682 75.8392 99.3072C75.5006 99.4412 75.1472 99.6003 74.7858 99.7873C74.4245 99.9843 74.0472 100.163 73.67 100.392C73.2917 100.617 72.9105 100.876 72.5303 101.17L72.5283 101.172Z" fill="url(#paint0_linear_2087_7327)"></path><path d="M53.146 112.383C55.2676 111.613 56.8411 110.343 57.8547 109.22C58.362 108.669 58.7353 108.175 58.9825 107.819C59.2287 107.463 59.3508 107.245 59.3508 107.245C59.3508 107.245 58.3601 107.122 56.8997 107.231C56.169 107.27 55.3212 107.322 54.4048 107.494C53.9462 107.587 53.4736 107.656 52.9882 107.773C52.5037 107.888 52.0063 108.031 51.504 108.211C51.2528 108.303 51.0066 108.392 50.7643 108.48C50.5231 108.572 50.2868 108.668 50.0555 108.769C49.5909 108.973 49.1471 109.193 48.7242 109.424C48.5127 109.538 48.3062 109.658 48.1067 109.772C47.9091 109.882 47.7165 109.993 47.5299 110.105C47.1586 110.328 46.8121 110.552 46.4954 110.767C45.863 111.198 45.3517 111.594 45.0003 111.882C44.6479 112.173 44.4592 112.344 44.4592 112.344C44.4592 112.344 44.5257 112.37 44.6508 112.411C44.7769 112.448 44.9636 112.501 45.1998 112.561C45.6744 112.679 46.3544 112.828 47.1725 112.943C47.5795 113.01 48.0302 113.022 48.5008 113.04C48.9724 113.053 49.4688 113.05 49.98 113.021C50.4893 113.003 51.0195 112.913 51.5516 112.809C52.0837 112.701 52.6198 112.562 53.147 112.385M44.3272 98.8971C44.6359 99.2602 44.9219 99.6423 45.185 100.032C45.449 100.421 45.7012 100.788 45.9275 101.173C46.3832 101.93 46.7565 102.7 47.0613 103.359C47.3681 104.009 47.5974 104.58 47.7483 104.987C47.9002 105.395 47.9727 105.638 47.9727 105.638C47.9727 105.638 47.7265 105.605 47.3075 105.513C47.097 105.467 46.8449 105.406 46.5599 105.327C46.274 105.247 45.9613 105.124 45.6228 104.992C45.2842 104.856 44.9239 104.697 44.5516 104.515C44.3649 104.421 44.1743 104.331 43.9867 104.217C43.798 104.103 43.6094 103.982 43.4198 103.854C42.6633 103.34 41.8969 102.739 41.2526 101.936C40.9269 101.544 40.64 101.141 40.3889 100.736C40.2618 100.537 40.1466 100.328 40.0434 100.116C39.9381 99.9053 39.8418 99.6963 39.7525 99.4892C39.3971 98.6591 39.1638 97.8739 39.0188 97.1808C38.8798 96.4736 38.8203 95.8765 38.7935 95.4555C38.7677 95.0344 38.7746 94.7903 38.7746 94.7903C38.7746 94.7903 38.9761 94.8673 39.3087 95.0354C39.4745 95.1194 39.6731 95.2244 39.8964 95.3544C40.1228 95.4785 40.3789 95.6125 40.649 95.7785C41.192 96.1016 41.7897 96.5547 42.43 97.0448C42.7457 97.2978 43.0664 97.5819 43.3811 97.8989L43.6174 98.141L43.8576 98.38C44.0165 98.5451 44.1733 98.7171 44.3282 98.8981L44.3272 98.8971ZM40.7373 109.566C41.2943 109.502 41.8264 109.401 42.3277 109.275C42.8291 109.148 43.3106 108.964 43.7544 108.782C44.6449 108.408 45.3974 107.987 46.0129 107.563C46.6304 107.13 47.103 106.724 47.4207 106.428C47.7394 106.131 47.9061 105.942 47.9061 105.942C47.9061 105.942 47.6689 105.861 47.2509 105.757C47.0414 105.705 46.7873 105.646 46.4944 105.589C46.2016 105.53 45.8769 105.449 45.5165 105.385C45.1572 105.318 44.765 105.259 44.3461 105.212C44.1356 105.192 43.9202 105.17 43.6998 105.149C43.4804 105.123 43.256 105.101 43.0247 105.084C42.1024 105.012 41.0838 105.044 40.0404 105.125C39.5142 105.175 38.999 105.256 38.4996 105.358C38.2494 105.41 38.0052 105.463 37.7669 105.513C37.5287 105.566 37.2944 105.622 37.065 105.683C36.1477 105.924 35.3039 106.227 34.592 106.507C33.8872 106.773 33.3064 107.036 32.9033 107.233C32.5003 107.429 32.2759 107.56 32.2759 107.56C32.2759 107.56 32.5152 107.713 32.948 107.944C33.1634 108.061 33.4285 108.196 33.7343 108.342C34.043 108.481 34.4004 108.618 34.7896 108.759C35.5719 109.034 36.4843 109.334 37.5088 109.472C38.0171 109.549 38.5453 109.606 39.0843 109.633C39.2184 109.639 39.3534 109.645 39.4894 109.646C39.6274 109.643 39.7654 109.639 39.9034 109.632C40.1804 109.619 40.4593 109.596 40.7383 109.564L40.7373 109.566ZM35.0586 94.4343C35.2721 94.8753 35.4826 95.2854 35.6583 95.7195C35.837 96.1496 35.9909 96.5847 36.1269 97.0138C36.1954 97.2268 36.2579 97.4428 36.3175 97.6499C36.38 97.8539 36.4376 98.055 36.4912 98.252C36.5984 98.6481 36.6888 99.0291 36.7662 99.3862C36.9191 100.099 37.0144 100.715 37.071 101.152C37.0978 101.37 37.1177 101.541 37.1326 101.656C37.1445 101.774 37.1494 101.835 37.1494 101.835C37.1494 101.835 37.0909 101.814 36.9826 101.773C36.8754 101.729 36.7235 101.655 36.5309 101.559C36.1477 101.366 35.6096 101.072 35.0001 100.671C34.6913 100.479 34.3865 100.22 34.0639 99.9543C33.7452 99.6843 33.4186 99.3872 33.0989 99.0632C33.0195 98.9811 32.9401 98.8991 32.8597 98.8151C32.7832 98.7271 32.7078 98.6351 32.6323 98.5441C32.4824 98.359 32.3345 98.168 32.1915 97.9699C31.9056 97.5749 31.6366 97.1538 31.3963 96.7087C30.9357 95.7905 30.6448 94.8513 30.4631 93.9812C30.2933 93.097 30.2526 92.2528 30.2596 91.5457C30.2695 90.8326 30.3261 90.2534 30.3966 89.8304C30.4651 89.4103 30.5256 89.1712 30.5256 89.1712C30.5256 89.1712 30.5693 89.2032 30.6497 89.2643C30.7321 89.3243 30.8403 89.4233 30.9903 89.5343C31.2871 89.7633 31.6941 90.1034 32.1429 90.5565C33.0513 91.4557 34.1741 92.7269 35.0586 94.4343ZM29.242 104.029C29.789 104.109 30.345 104.104 30.8642 104.089C31.3864 104.069 31.8847 104.017 32.3543 103.943C32.5906 103.906 32.816 103.865 33.0383 103.815C33.2617 103.761 33.4781 103.702 33.6856 103.641C34.1006 103.518 34.4828 103.384 34.8293 103.248C35.5193 102.975 36.0643 102.694 36.4376 102.481C36.6233 102.377 36.7692 102.284 36.8675 102.218C36.9658 102.152 37.0164 102.117 37.0164 102.117C37.0164 102.117 36.798 101.995 36.4207 101.784C36.0395 101.577 35.4905 101.304 34.8095 101.031C34.464 100.902 34.1086 100.73 33.7115 100.588C33.3173 100.441 32.8944 100.299 32.4457 100.173C32.3325 100.143 32.2193 100.111 32.1041 100.081C31.991 100.047 31.8758 100.014 31.7616 99.9813C31.5303 99.9173 31.2931 99.8563 31.0498 99.8023C30.5634 99.6933 30.0541 99.6043 29.5229 99.5462C28.4815 99.4012 27.4629 99.3722 26.5019 99.4202C25.5528 99.4532 24.6812 99.5352 23.9257 99.6503C23.1741 99.7613 22.5378 99.9043 22.1079 99.9993C21.6751 100.097 21.4298 100.174 21.4298 100.174C21.4298 100.174 21.4805 100.224 21.5738 100.318C21.6721 100.408 21.8061 100.55 21.9977 100.703C22.3769 101.017 22.9299 101.446 23.6209 101.905C23.7936 102.021 23.9753 102.137 24.1649 102.254C24.3585 102.365 24.562 102.474 24.7725 102.583C25.1934 102.8 25.6432 103.013 26.1177 103.21C26.355 103.308 26.5952 103.406 26.8464 103.49C27.0996 103.57 27.3587 103.645 27.6218 103.713C28.1479 103.849 28.691 103.958 29.242 104.029ZM26.9785 87.986C27.1075 88.4461 27.2068 88.9132 27.2842 89.3793C27.322 89.6113 27.3547 89.8434 27.3815 90.0744C27.4123 90.3014 27.4421 90.5225 27.4659 90.7435C27.5602 91.6267 27.5821 92.4729 27.5721 93.21C27.5622 93.9472 27.5394 94.5483 27.5016 94.9844C27.4669 95.4174 27.4302 95.6695 27.4302 95.6695C27.4302 95.6695 27.2207 95.5325 26.8802 95.2674C26.5327 95.0114 26.083 94.5903 25.5836 94.0532C25.3334 93.7841 25.0733 93.4851 24.8122 93.16C24.5581 92.8259 24.3138 92.4519 24.0756 92.0598C23.8393 91.6647 23.611 91.2496 23.4114 90.8055C23.2228 90.3505 23.057 89.8734 22.925 89.3793C22.7959 88.8832 22.6907 88.4071 22.649 87.918C22.6033 87.4319 22.5894 86.9608 22.6003 86.5107C22.6112 86.0616 22.646 85.6335 22.6966 85.2335C22.7472 84.8324 22.8326 84.4443 22.914 84.0982C23.0818 83.4021 23.2744 82.838 23.4253 82.4479C23.5762 82.0578 23.6844 81.8398 23.6844 81.8398C23.6844 81.8398 23.8363 81.9968 24.0706 82.2899C24.1878 82.4369 24.3248 82.618 24.4747 82.83C24.6256 83.043 24.7795 83.2931 24.9641 83.5531C25.1428 83.8182 25.3265 84.1122 25.5062 84.4353C25.5975 84.5973 25.6869 84.7654 25.7742 84.9414C25.8179 85.0304 25.8606 85.1194 25.9053 85.2105C25.9509 85.2995 25.9976 85.3895 26.0433 85.4805C26.2259 85.8456 26.3997 86.2387 26.5545 86.6597C26.632 86.8708 26.7054 87.0878 26.7739 87.3129C26.8424 87.5369 26.9189 87.755 26.9824 87.987L26.9785 87.986ZM19.2398 96.0476C19.7719 96.2296 20.2961 96.3696 20.8044 96.4716C21.0585 96.5227 21.3087 96.5647 21.5539 96.5997C21.8031 96.6297 22.0513 96.6467 22.2916 96.6597C23.2536 96.7097 24.1203 96.6487 24.848 96.5447C25.5757 96.4386 26.1842 96.2666 26.5952 96.1406C27.0092 96.0116 27.2396 95.9145 27.2396 95.9145C27.2396 95.9145 27.0589 95.7395 26.7243 95.4625C26.3818 95.1954 25.9162 94.7923 25.3195 94.3622C25.0207 94.1472 24.6911 93.9232 24.3307 93.7001C23.9773 93.4691 23.605 93.226 23.198 92.998C22.7949 92.7669 22.3581 92.5479 21.9014 92.3388C21.4566 92.1178 20.9841 91.9118 20.4847 91.7307C19.9903 91.5457 19.4751 91.4087 18.9946 91.2686C18.5111 91.1326 18.0306 91.0226 17.563 90.9346C17.0944 90.8456 16.6387 90.7775 16.2029 90.7255C15.767 90.6735 15.3689 90.6235 14.9907 90.5935C14.2382 90.5305 13.5998 90.5165 13.1511 90.5205C12.7024 90.5245 12.4432 90.5455 12.4432 90.5455C12.4432 90.5455 12.5981 90.7865 12.895 91.1806C13.0429 91.3777 13.2265 91.6137 13.4449 91.8778C13.6634 92.1398 13.9076 92.4359 14.2084 92.7249C14.5052 93.019 14.8338 93.327 15.1912 93.6391C15.3709 93.7951 15.5566 93.9502 15.7502 94.1052C15.8485 94.1822 15.9457 94.2592 16.046 94.3372C16.1503 94.4092 16.2565 94.4823 16.3617 94.5563C16.7906 94.8453 17.2463 95.1234 17.7258 95.3794C17.9641 95.5075 18.2093 95.6305 18.4585 95.7455C18.7076 95.8605 18.9747 95.9556 19.2398 96.0486V96.0476ZM20.4817 79.8894C20.4927 80.1305 20.4946 80.3715 20.4907 80.6116C20.4857 80.8526 20.4788 81.0897 20.4728 81.3207C20.4579 81.7848 20.4192 82.2419 20.3646 82.687C20.311 83.1321 20.2415 83.5631 20.164 83.9742C20.0906 84.3823 20.0201 84.7604 19.9397 85.1154C19.7828 85.8236 19.6131 86.4197 19.483 86.8368C19.3529 87.2539 19.2606 87.4929 19.2606 87.4929C19.2606 87.4929 19.0899 87.3099 18.8198 86.9708C18.6858 86.8008 18.526 86.5917 18.3512 86.3477C18.1805 86.1006 17.978 85.8296 17.8042 85.5035C17.4478 84.8574 17.0557 84.0952 16.7598 83.2221C16.6208 82.78 16.4967 82.3159 16.3994 81.8378C16.3031 81.3577 16.2247 80.8676 16.2178 80.3475C16.2019 79.8314 16.2237 79.3323 16.2734 78.8532C16.323 78.3751 16.3975 77.92 16.5176 77.478C16.7439 76.5998 17.0447 75.8296 17.3456 75.1935C17.421 75.0345 17.4965 74.8844 17.5709 74.7424C17.6484 74.5984 17.7268 74.4634 17.8003 74.3373C17.9492 74.0853 18.0872 73.8712 18.2053 73.6972C18.4416 73.3492 18.5945 73.1601 18.5945 73.1601C18.5945 73.1601 18.7047 73.3492 18.8625 73.6912C19.0085 74.0383 19.2557 74.5124 19.4731 75.1155C19.5843 75.4175 19.6935 75.7476 19.7918 76.1067C19.9089 76.4567 20.0171 76.8318 20.1094 77.2329C20.2038 77.632 20.2723 78.0641 20.3368 78.5062C20.4093 78.9452 20.4589 79.4053 20.4788 79.8884L20.4817 79.8894ZM11.1973 86.0256C11.4346 86.1766 11.6719 86.3167 11.9081 86.4457C12.0263 86.5107 12.1444 86.5727 12.2626 86.6327C12.3847 86.6888 12.5058 86.7428 12.6259 86.7948C13.1104 87.0018 13.5859 87.1708 14.0456 87.3059C14.5032 87.4419 14.946 87.5439 15.365 87.6219C15.7869 87.6959 16.1959 87.7359 16.5662 87.763C17.3098 87.814 17.9234 87.796 18.3522 87.765C18.7801 87.735 19.0243 87.6929 19.0243 87.6929C19.0243 87.6929 18.8883 87.4779 18.6282 87.1288C18.4972 86.9548 18.3344 86.7458 18.1428 86.5147C17.9531 86.2807 17.7169 86.0346 17.4845 85.7486C17.009 85.1844 16.4004 84.5723 15.7065 83.9442C15.368 83.6252 14.9986 83.3071 14.6005 82.998C14.2044 82.689 13.7676 82.3959 13.3348 82.0978C12.895 81.8058 12.4442 81.5427 11.9905 81.3067C11.5388 81.0717 11.0802 80.8646 10.6543 80.6666C9.79154 80.2765 8.95364 79.9804 8.21898 79.7554C8.03333 79.7004 7.85662 79.6494 7.68983 79.6004C7.52404 79.5524 7.36619 79.5063 7.21926 79.4643C6.92341 79.3833 6.66132 79.3183 6.4439 79.2683C6.00907 79.1683 5.75392 79.1303 5.75392 79.1303C5.75392 79.1303 5.84824 79.4013 6.0458 79.8584C6.23045 80.3205 6.57296 80.9386 7.0078 81.6538C7.22819 82.0118 7.47539 82.3899 7.75039 82.777C8.04326 83.1541 8.36591 83.5411 8.71537 83.9242C9.0678 84.3053 9.43811 84.6884 9.85309 85.0424C10.276 85.3925 10.7247 85.7236 11.1983 86.0266L11.1973 86.0256ZM15.8822 70.5496C15.7353 71.4908 15.4702 72.404 15.1605 73.2521C14.8775 74.0883 14.5489 74.8594 14.2332 75.5196C13.9195 76.1777 13.6137 76.7268 13.4102 77.0979C13.1987 77.473 13.0607 77.683 13.0607 77.683C13.0607 77.683 12.9247 77.4699 12.7272 77.0829C12.5455 76.6878 12.3052 76.1167 12.0729 75.4156C11.8237 74.7234 11.6599 73.8692 11.5497 72.9551C11.5239 72.726 11.5031 72.493 11.4882 72.2569C11.4713 72.0209 11.4822 71.7738 11.4882 71.5278C11.5061 71.0357 11.5537 70.5336 11.6381 70.0325C11.6818 69.7804 11.7284 69.5374 11.792 69.2964C11.8605 69.0533 11.9339 68.8183 12.0154 68.5892C12.1762 68.1321 12.3598 67.702 12.5564 67.302C12.9376 66.5058 13.4231 65.8157 13.8649 65.2616C14.3077 64.7085 14.7177 64.2854 15.0175 64.0003C15.3183 63.7153 15.5059 63.5672 15.5059 63.5672C15.5059 63.5672 15.7958 64.3934 15.9338 65.6727C16.0361 66.3058 16.1096 67.0509 16.0967 67.8801C16.1165 68.6982 16.0649 69.5964 15.8812 70.5506L15.8822 70.5496ZM5.49679 74.4434C6.31385 75.2375 7.1726 75.8586 7.9966 76.3347C8.8484 76.7988 9.66645 77.1199 10.3713 77.3409C11.0782 77.562 11.6689 77.687 12.1057 77.746C12.5356 77.809 12.7857 77.821 12.7857 77.821C12.7857 77.821 12.6924 77.585 12.5038 77.1909C12.332 76.7878 12.069 76.2257 11.7046 75.5786C11.3224 74.9385 10.9144 74.1823 10.3634 73.4182C10.2264 73.2271 10.0824 73.0341 9.93152 72.841C9.77863 72.648 9.63865 72.448 9.47981 72.2519C9.16807 71.8579 8.82358 71.4678 8.44533 71.0857C8.2577 70.8947 8.06113 70.7116 7.87052 70.5336C7.68487 70.3536 7.49624 70.1805 7.30563 70.0135C6.92341 69.6794 6.53325 69.3694 6.14607 69.0843C5.35781 68.5172 4.62911 68.0321 3.97288 67.645C3.31765 67.257 2.74482 66.9649 2.33679 66.7709C1.92777 66.5768 1.68553 66.4818 1.68553 66.4818C1.68553 66.4818 1.8414 67.628 2.35565 69.2283C2.64654 70.0195 3.03372 70.9187 3.5311 71.8299C4.06223 72.729 4.71846 73.6352 5.49679 74.4434ZM13.4539 60.4006C13.2712 60.8447 13.0508 61.2758 12.8334 61.6889C12.6239 62.1 12.3976 62.496 12.1623 62.8731C11.6967 63.6253 11.1715 64.3114 10.7456 64.8765C10.3078 65.4456 9.90471 65.9087 9.61284 66.2278C9.31997 66.5468 9.1373 66.7219 9.1373 66.7219C9.1373 66.7219 9.05788 66.4818 8.95562 66.0577C8.90499 65.8457 8.84741 65.5876 8.79181 65.2906C8.76501 65.1415 8.73324 64.9855 8.71338 64.8175C8.69452 64.6495 8.67764 64.4724 8.66374 64.2884C8.63595 63.9193 8.61708 63.5182 8.6151 63.0972C8.6151 62.6741 8.61708 62.233 8.68658 61.7719C8.74714 61.3118 8.83053 60.8397 8.9447 60.3646C9.00228 60.1266 9.06681 59.8885 9.13928 59.6515C9.21076 59.4144 9.31302 59.1754 9.4123 58.9393C9.61582 58.4683 9.84813 58.0252 10.0953 57.6161C10.3455 57.206 10.5977 56.8289 10.8955 56.4819C11.4733 55.7877 12.0719 55.2226 12.613 54.7805C12.886 54.5595 13.1382 54.3685 13.3764 54.2064C13.6187 54.0444 13.8341 53.9104 14.0148 53.8043C14.3762 53.5923 14.5956 53.4893 14.5956 53.4893C14.5956 53.4893 14.6134 53.7083 14.6085 54.0874C14.6065 54.4665 14.6234 55.0036 14.5628 55.6457C14.536 55.9668 14.4884 56.3158 14.4328 56.6829C14.3901 57.05 14.3285 57.437 14.2421 57.8401C14.1578 58.2432 14.0406 58.6623 13.9056 59.0914C13.7875 59.5175 13.6375 59.9555 13.4539 60.4006ZM2.47975 61.8539C2.78255 62.333 3.09428 62.7761 3.43778 63.1772C3.78823 63.5762 4.14861 63.9373 4.507 64.2604C5.22974 64.9075 5.91872 65.4116 6.58388 65.7817C7.23614 66.1547 7.80003 66.4058 8.20111 66.5668C8.60219 66.7269 8.84046 66.7959 8.84046 66.7959C8.84046 66.7959 8.8077 66.5428 8.71636 66.1147C8.6707 65.9007 8.61014 65.6426 8.5327 65.3486C8.49199 65.2016 8.4503 65.0465 8.40463 64.8825C8.36492 64.7175 8.32024 64.5454 8.27061 64.3664C8.17133 64.0073 8.0522 63.6233 7.91023 63.2192C7.77025 62.8151 7.59155 62.395 7.42973 61.9569C7.25798 61.5198 7.05843 61.0718 6.8291 60.6187C6.71394 60.3916 6.59182 60.1636 6.46078 59.9365C6.32874 59.7085 6.20961 59.4784 6.07062 59.2494C5.79661 58.7913 5.50076 58.3572 5.19201 57.9462C4.88624 57.5341 4.55366 57.147 4.25483 56.7819C3.6413 56.0528 3.01287 55.4167 2.44798 54.8926C2.16603 54.6315 1.89501 54.3975 1.65873 54.1944C1.42642 53.9904 1.21793 53.8183 1.04321 53.6783C0.694742 53.3983 0.480303 53.2522 0.480303 53.2522C0.480303 53.2522 0.449527 53.5383 0.43265 54.0354C0.417758 54.5315 0.459455 55.2386 0.547812 56.0738C0.596457 56.4909 0.654038 56.9399 0.744381 57.41C0.849615 57.8801 0.97669 58.3692 1.13057 58.8673C1.28644 59.3654 1.46116 59.8735 1.67957 60.3756C1.91288 60.8777 2.17894 61.3738 2.47975 61.8549V61.8539ZM13.2514 49.9356C12.9833 50.3287 12.6924 50.7027 12.3876 51.0578C12.0848 51.4129 11.7543 51.7469 11.4584 52.064C10.8498 52.6961 10.2224 53.2492 9.65751 53.7063C9.37656 53.9354 9.10553 54.1404 8.86925 54.3184C8.63694 54.4965 8.42846 54.6485 8.25373 54.7715C7.90427 55.0176 7.68983 55.1466 7.68983 55.1466C7.68983 55.1466 7.66005 54.8946 7.64317 54.4585C7.62828 54.0224 7.66998 53.4003 7.75536 52.6661C7.80102 52.3 7.85662 51.904 7.94398 51.4929C8.04624 51.0808 8.16934 50.6517 8.31826 50.2156C8.46817 49.7786 8.63893 49.3355 8.85039 48.8974C9.07773 48.4613 9.33585 48.0292 9.62872 47.6121C9.92358 47.1971 10.2264 46.814 10.5609 46.4709C10.9034 46.1289 11.2539 45.8208 11.6043 45.5457C12.3102 44.9966 12.9833 44.5745 13.6346 44.2705C14.2719 43.9634 14.8249 43.7614 15.218 43.6354C15.6112 43.5093 15.8465 43.4563 15.8465 43.4563C15.8465 43.4563 15.8217 43.6754 15.7442 44.0444C15.7055 44.2285 15.6529 44.4505 15.5844 44.7026C15.5476 44.8286 15.5099 44.9626 15.4692 45.1036C15.4335 45.2447 15.3938 45.3927 15.3491 45.5467C15.2597 45.8548 15.1515 46.1849 15.0175 46.5309C14.8865 46.877 14.7177 47.2371 14.5648 47.6131C14.402 47.9872 14.2114 48.3723 13.989 48.7614C13.8778 48.9554 13.7597 49.1504 13.6316 49.3465C13.5025 49.5425 13.3874 49.7406 13.2504 49.9376L13.2514 49.9356ZM2.23156 48.9154C2.42912 49.4525 2.65547 49.9536 2.89969 50.4197C3.1469 50.8868 3.39608 51.3169 3.69193 51.7129C4.26476 52.5051 4.86241 53.1512 5.40347 53.6593C5.67549 53.9134 5.92766 54.1334 6.16592 54.3214C6.40816 54.5085 6.62359 54.6625 6.80428 54.7845C7.16565 55.0306 7.38604 55.1516 7.38604 55.1516C7.38604 55.1516 7.40391 54.8976 7.39796 54.4595C7.39498 54.0194 7.41285 53.3973 7.35527 52.6541C7.32946 52.282 7.28478 51.879 7.23117 51.4539C7.19146 51.0298 7.13388 50.5807 7.05148 50.1156C6.97106 49.6505 6.85987 49.1684 6.73181 48.6753C6.61962 48.1833 6.47865 47.6802 6.30094 47.1721C6.12721 46.664 5.91475 46.1709 5.70726 45.7018C5.50672 45.2337 5.28831 44.7856 5.06196 44.3595C4.61422 43.5083 4.10492 42.7422 3.69292 42.1091C3.26801 41.4739 2.87686 40.9608 2.59293 40.6078C2.30899 40.2557 2.1293 40.0637 2.1293 40.0637C2.1293 40.0637 2.04194 40.3387 1.92578 40.8228C1.8682 41.0649 1.80268 41.3579 1.73815 41.697C1.70737 41.867 1.67064 42.0461 1.64681 42.2371C1.62398 42.4281 1.60214 42.6292 1.58328 42.8392C1.54555 43.2593 1.51676 43.7134 1.50584 44.1935C1.49591 44.6736 1.48896 45.1767 1.54952 45.6998C1.60115 46.2219 1.6766 46.759 1.78382 47.2981C1.83643 47.5681 1.89799 47.8382 1.96748 48.1082C2.03499 48.3783 2.13526 48.6493 2.23156 48.9164V48.9154ZM15.3064 39.6976C15.1277 39.8576 14.9411 40.0097 14.7584 40.1597C14.5817 40.3107 14.402 40.4557 14.2193 40.5958C13.854 40.8738 13.4787 41.1319 13.1034 41.3689C12.341 41.84 11.6331 42.2431 10.9918 42.5652C10.3505 42.8872 9.78856 43.1283 9.38847 43.2893C8.98739 43.4493 8.74714 43.5273 8.74714 43.5273C8.74714 43.5273 8.87719 42.5211 9.34082 41.1209C9.60688 40.4307 9.96229 39.6466 10.4239 38.8564C10.9173 38.0783 11.5319 37.2991 12.2665 36.614C13.0389 35.9419 13.856 35.4278 14.6422 35.0437C15.4563 34.6706 16.2396 34.4276 16.9167 34.2675C17.5947 34.1075 18.1636 34.0285 18.5865 33.9995C19.0025 33.9675 19.2447 33.9715 19.2447 33.9715C19.2447 33.9715 19.1673 34.1765 19.0045 34.5156C18.8585 34.8627 18.6332 35.3467 18.3076 35.8979C17.967 36.443 17.6037 37.0891 17.0964 37.7352C16.9713 37.8972 16.8383 38.0603 16.6983 38.2223C16.5563 38.3843 16.4272 38.5544 16.2793 38.7194C15.9874 39.0515 15.6648 39.3795 15.3074 39.6986L15.3064 39.6976ZM4.77902 36.2199C4.81376 36.503 4.8505 36.777 4.90411 37.0471C4.96367 37.3181 5.0292 37.5832 5.10266 37.8392C5.24761 38.3523 5.41737 38.8344 5.60103 39.2825C5.95744 40.1757 6.42206 40.9468 6.84895 41.566C7.27585 42.1851 7.67593 42.6592 7.9688 42.9772C8.26068 43.2953 8.44633 43.4623 8.44633 43.4623C8.44633 43.4623 8.76302 42.4971 8.95165 41.0159C9.07972 40.2837 9.18396 39.4225 9.20779 38.4724C9.26338 37.5332 9.25345 36.509 9.11446 35.4308C9.0132 34.3676 8.79082 33.3474 8.51781 32.4072C8.27259 31.479 7.97774 30.6318 7.68983 29.9107C7.40391 29.1906 7.11998 28.5954 6.93135 28.1934C6.73578 27.7873 6.60473 27.5612 6.60473 27.5612C6.60473 27.5612 6.45383 27.8063 6.22946 28.2484C6.02197 28.6985 5.74499 29.3496 5.47197 30.1447C5.18208 30.9319 4.97261 31.8971 4.81972 32.9293C4.782 33.1873 4.75023 33.4504 4.72441 33.7174C4.69761 33.9835 4.69662 34.2615 4.69165 34.5376C4.68867 35.0917 4.71548 35.6558 4.78001 36.2199H4.77902ZM19.5317 30.1787C19.1236 30.4168 18.7037 30.6258 18.2778 30.8109C17.8519 30.9969 17.419 31.1569 17.017 31.311C16.1989 31.613 15.3977 31.8351 14.6939 31.9991C14.3384 32.0761 14.0168 32.1471 13.7329 32.2091C13.4469 32.2682 13.1928 32.3132 12.9833 32.3472C12.5624 32.4152 12.3142 32.4392 12.3142 32.4392C12.3142 32.4392 12.3946 32.1991 12.5653 31.7981C12.7242 31.392 13.03 30.8509 13.4181 30.2278C13.6137 29.9167 13.8371 29.5866 14.0853 29.2506C14.3514 28.9235 14.6442 28.5914 14.9629 28.2634C15.2846 27.9363 15.6221 27.6092 16.0033 27.3102C16.3935 27.0161 16.8075 26.7391 17.2463 26.491C17.4667 26.367 17.6861 26.253 17.9055 26.15C18.0157 26.0979 18.1259 26.0479 18.2351 26.0009C18.3493 25.9559 18.4634 25.9139 18.5756 25.8749C19.0273 25.7149 19.4731 25.5898 19.9039 25.4948C20.3348 25.3998 20.7508 25.3328 21.1449 25.2888C21.543 25.2488 21.9302 25.2378 22.2797 25.2378C22.9825 25.2388 23.5653 25.2978 23.9723 25.3558C24.3794 25.4128 24.6127 25.4678 24.6127 25.4678C24.6127 25.4678 24.4985 25.6559 24.2751 25.9569C24.162 26.107 24.023 26.286 23.8552 26.484C23.6914 26.6861 23.4839 26.8941 23.2794 27.1382C22.8644 27.6202 22.3223 28.1353 21.6979 28.6594C21.3931 28.9265 21.0595 29.1896 20.6952 29.4436C20.3318 29.6966 19.9298 29.9357 19.5297 30.1777L19.5317 30.1787ZM10.0209 24.4136C9.97322 24.9847 9.96428 25.5378 9.98612 26.0659C10.008 26.595 10.0576 27.0961 10.1549 27.5832C10.3356 28.5484 10.5997 29.3946 10.8717 30.0907C10.9402 30.2638 11.0087 30.4288 11.0772 30.5848C11.1487 30.7419 11.2201 30.8889 11.2886 31.0269C11.4276 31.301 11.5567 31.535 11.6669 31.725C11.8883 32.1051 12.0362 32.3102 12.0362 32.3102C12.0362 32.3102 12.1603 32.0891 12.343 31.692C12.5137 31.289 12.7977 30.7379 13.0617 30.0417C13.1958 29.6957 13.3308 29.3146 13.4579 28.9045C13.6018 28.5044 13.7398 28.0743 13.8619 27.6182C13.987 27.1632 14.0883 26.6771 14.1866 26.179C14.2928 25.6859 14.3762 25.1688 14.4318 24.6317C14.4586 24.3626 14.4784 24.0956 14.4913 23.8305C14.5023 23.5645 14.5122 23.3034 14.5221 23.0484C14.538 22.5363 14.5291 22.0362 14.5032 21.5511C14.4774 21.065 14.4347 20.5969 14.3811 20.1528C14.3325 19.7127 14.2829 19.3036 14.2233 18.9226C14.1061 18.1614 13.9681 17.5253 13.8599 17.0812C13.7507 16.6371 13.6693 16.3861 13.6693 16.3861C13.6693 16.3861 13.4757 16.5961 13.169 16.9832C13.0161 17.1772 12.8344 17.4143 12.6358 17.6923C12.4403 17.9724 12.2099 18.2804 12.0064 18.6475C11.5895 19.3766 11.1298 20.2358 10.7664 21.213C10.5927 21.7071 10.4339 22.2252 10.3038 22.7593C10.1728 23.2944 10.0606 23.8395 10.0209 24.4166V24.4136ZM25.7236 21.8391C25.2729 21.9781 24.7983 22.0702 24.3545 22.1672C23.9088 22.2612 23.464 22.3312 23.0262 22.3822C22.5904 22.4342 22.1625 22.4662 21.7525 22.4862C21.3425 22.5062 20.9682 22.5283 20.6098 22.5313C19.898 22.5433 19.2904 22.5163 18.8625 22.4852C18.4346 22.4552 18.1854 22.4192 18.1854 22.4192C18.1854 22.4192 18.3195 22.2062 18.5796 21.8591C18.7096 21.6851 18.8715 21.478 19.0621 21.248C19.2557 21.018 19.4701 20.7599 19.7391 20.5099C20.0032 20.2548 20.2961 19.9888 20.6177 19.7207C20.7776 19.5877 20.9444 19.4537 21.1181 19.3216C21.2055 19.2556 21.2938 19.1896 21.3832 19.1236C21.4775 19.0626 21.5728 19.0016 21.6691 18.9396C22.0573 18.6965 22.4693 18.4645 22.9031 18.2554C23.1205 18.1504 23.3419 18.0504 23.5693 17.9594C23.7966 17.8663 24.0408 17.7953 24.2831 17.7243C24.7705 17.5873 25.252 17.4893 25.7186 17.4253C25.9529 17.3933 26.1832 17.3702 26.4086 17.3542C26.6369 17.3422 26.8683 17.3422 27.0896 17.3442C27.9802 17.3602 28.7853 17.4753 29.4624 17.6223C30.1395 17.7713 30.7093 17.9754 31.0945 18.1224C31.4827 18.2724 31.6981 18.3804 31.6981 18.3804C31.6981 18.3804 31.5442 18.5345 31.2563 18.7715C30.9605 19.0006 30.5594 19.3486 30.0382 19.7127C29.7781 19.8947 29.4882 20.0818 29.1695 20.2658C28.8578 20.4578 28.5292 20.6599 28.1668 20.8449C27.8074 21.033 27.4163 21.207 27.0043 21.371C26.6042 21.5471 26.1773 21.7061 25.7206 21.8401L25.7236 21.8391ZM17.6861 14.0876C17.5133 14.6307 17.3684 15.1518 17.289 15.6829C17.2056 16.211 17.1569 16.7221 17.1371 17.2092C17.1162 17.6963 17.1222 18.1584 17.148 18.5915C17.1728 19.0246 17.2344 19.4417 17.2949 19.8137C17.421 20.5629 17.5838 21.166 17.7139 21.5831C17.8449 22.0001 17.9422 22.2312 17.9422 22.2312C17.9422 22.2312 18.115 22.0462 18.385 21.7051C18.52 21.5341 18.6798 21.325 18.8556 21.079C19.0323 20.8349 19.2159 20.5469 19.4324 20.2478C19.6438 19.9438 19.8613 19.6067 20.0797 19.2416C20.1889 19.0576 20.2981 18.8675 20.4053 18.6685C20.4579 18.5675 20.5115 18.4675 20.5651 18.3664C20.6217 18.2654 20.6773 18.1644 20.7349 18.0624C20.9593 17.6513 21.1747 17.2122 21.3742 16.7441C21.4745 16.5111 21.5698 16.27 21.6602 16.023C21.7515 15.7759 21.8498 15.5359 21.9361 15.2798C22.1109 14.7747 22.2538 14.2656 22.372 13.7605C22.4306 13.5085 22.4822 13.2574 22.5288 13.0084C22.5785 12.7634 22.6281 12.5253 22.6678 12.2883C22.8336 11.3401 22.918 10.4389 22.9587 9.65975C22.9994 8.8806 23.0153 8.24647 23.0034 7.78938C22.9944 7.33529 22.9706 7.07224 22.9706 7.07224C22.9706 7.07224 22.7343 7.23027 22.3472 7.53433C21.953 7.82939 21.4388 8.30448 20.863 8.9086C20.5751 9.21066 20.2742 9.54572 19.9705 9.9118C19.6736 10.2839 19.3867 10.6989 19.1038 11.135C18.8228 11.5731 18.5488 12.0322 18.3046 12.5233C18.0713 13.0244 17.8608 13.5485 17.6851 14.0886L17.6861 14.0876ZM33.5486 15.0698C32.6124 15.1428 31.6842 15.1058 30.8016 14.9988C29.93 14.9068 29.1238 14.7747 28.42 14.6157C27.7201 14.4637 27.1214 14.2876 26.7174 14.1716C26.3113 14.0516 26.078 13.9646 26.078 13.9646C26.078 13.9646 26.1227 13.9196 26.2031 13.8366C26.2885 13.7575 26.4046 13.6295 26.5744 13.4955C26.907 13.2214 27.3944 12.8464 28.006 12.4493C29.233 11.6661 31.028 10.869 33.0344 10.741C33.5268 10.6949 34.0301 10.731 34.5007 10.776C34.9753 10.825 35.427 10.902 35.8549 11.001C36.0683 11.051 36.2758 11.102 36.4773 11.164C36.6808 11.2291 36.8784 11.2971 37.068 11.3691C37.4473 11.5101 37.7967 11.6631 38.1124 11.8142C38.7448 12.1172 39.2442 12.4213 39.5867 12.6483C39.7575 12.7604 39.8915 12.8594 39.9818 12.9284C40.0722 12.9984 40.1208 13.0364 40.1208 13.0364C40.1208 13.0364 39.9332 13.1434 39.6095 13.3275C39.2819 13.5065 38.8093 13.7405 38.2167 13.9656C37.9168 14.0696 37.6071 14.2136 37.2616 14.3277C36.9171 14.4467 36.5468 14.5577 36.1507 14.6517C36.0514 14.6737 35.9502 14.6957 35.8489 14.7197C35.7486 14.7437 35.6484 14.7697 35.5471 14.7947C35.3426 14.8418 35.1321 14.8858 34.9157 14.9218C34.4828 14.9968 34.0272 15.0488 33.5496 15.0708L33.5486 15.0698ZM27.3726 5.71098C26.8067 6.70117 26.4235 7.70737 26.1664 8.63555C25.9182 9.57973 25.8129 10.4739 25.7683 11.2231C25.7276 11.9772 25.7454 12.5883 25.7901 13.0334C25.8328 13.4755 25.8794 13.7255 25.8794 13.7255C25.8794 13.7255 25.9301 13.6875 26.0224 13.6175C26.1167 13.5475 26.2428 13.4315 26.4175 13.3015C26.7591 13.0354 27.2326 12.6403 27.7618 12.1242C28.83 11.1 30.1682 9.67375 31.2692 7.83039C31.5373 7.3553 31.7994 6.91421 32.0237 6.45012C32.2511 5.99103 32.4506 5.52994 32.6293 5.07685C32.7197 4.85081 32.8011 4.62377 32.8815 4.40472C32.9639 4.19068 33.0403 3.97864 33.1118 3.7706C33.2558 3.35552 33.3799 2.95744 33.4851 2.58537C33.6966 1.84122 33.8375 1.2031 33.9239 0.752012C33.9656 0.526969 33.9974 0.350934 34.0192 0.230911C34.0381 0.110887 34.048 0.046875 34.048 0.046875C34.048 0.046875 33.9815 0.0728801 33.8594 0.120889C33.7363 0.170899 33.5635 0.255916 33.3451 0.365937C32.9073 0.58698 32.2928 0.920045 31.5949 1.36913C31.2404 1.58517 30.888 1.87123 30.5167 2.16429C30.1474 2.46435 29.7701 2.79241 29.3969 3.14848C29.3045 3.2395 29.2122 3.33051 29.1189 3.42153C29.0295 3.51955 28.9402 3.61857 28.8508 3.71759C28.6731 3.91963 28.4994 4.12767 28.3286 4.34271C27.9891 4.7728 27.6664 5.22888 27.3726 5.70998V5.71098ZM39.2293 1.77121C38.7428 2.05627 38.2951 2.36533 37.8841 2.68639C37.6786 2.84342 37.483 3.01245 37.2974 3.18949C37.1117 3.36252 36.935 3.53956 36.7682 3.71459C36.0991 4.41973 35.5719 5.11686 35.1738 5.74999C34.7767 6.39811 34.5027 6.96222 34.326 7.3633C34.1503 7.76538 34.0708 8.00542 34.0708 8.00542C34.0708 8.00542 34.32 7.98342 34.7449 7.90841C34.9564 7.8714 35.2125 7.82139 35.5034 7.75538C35.7963 7.69536 36.1249 7.63435 36.4803 7.54634C37.1931 7.3813 38.0092 7.10625 38.8838 6.81019C39.3196 6.65316 39.7694 6.46913 40.2241 6.25308C40.3382 6.19807 40.4514 6.14306 40.5666 6.08705C40.6807 6.03304 40.7959 5.97903 40.9111 5.92402C41.1414 5.811 41.3727 5.68997 41.604 5.55995C42.0666 5.2989 42.5064 5.01584 42.9264 4.71778C43.3453 4.42073 43.7415 4.14267 44.1157 3.83961C44.8623 3.2475 45.5185 2.62138 46.0616 2.08127C46.6046 1.55017 47.0345 1.07307 47.3274 0.729008C47.6202 0.384941 47.7761 0.1729 47.7761 0.1729C47.7761 0.1729 47.4961 0.129891 47.0087 0.0938842C46.7654 0.0748805 46.4696 0.0578771 46.1321 0.0488754C45.7945 0.041874 45.4133 0.0668789 45.0003 0.0938842C44.5883 0.12389 44.1425 0.169899 43.6769 0.236912C43.4436 0.272919 43.2054 0.304925 42.9631 0.358936C42.7209 0.413947 42.4757 0.475959 42.2265 0.543972C41.2337 0.820026 40.1992 1.1781 39.2293 1.77221V1.77121ZM54.3334 101.172C55.8553 102.292 57.0893 103.757 57.9729 104.886C58.4127 105.461 58.7601 105.975 58.9944 106.343C59.2307 106.711 59.3528 106.935 59.3528 106.935C59.3528 106.935 58.3601 107.007 56.9205 106.825C56.2028 106.719 55.3778 106.505 54.525 106.206C54.0981 106.066 53.6702 105.847 53.2433 105.619C52.8184 105.388 52.3984 105.125 51.9934 104.828C51.7899 104.684 51.5983 104.519 51.4156 104.35C51.2319 104.182 51.0582 104.01 50.8924 103.837C50.5608 103.489 50.264 103.133 49.9989 102.777C49.8669 102.599 49.7418 102.425 49.6256 102.245C49.5095 102.061 49.4033 101.879 49.302 101.701C49.1014 101.343 48.9307 100.997 48.7847 100.673C48.4929 100.025 48.3033 99.4652 48.1841 99.0662C48.066 98.6701 48.0203 98.422 48.0203 98.422C48.0203 98.422 48.0729 98.432 48.1712 98.451C48.2705 98.467 48.4144 98.493 48.5961 98.5321C48.9585 98.6101 49.4678 98.7421 50.0634 98.9581C50.3593 99.0762 50.6859 99.1682 51.0235 99.3072C51.362 99.4412 51.7144 99.6003 52.0768 99.7873C52.4382 99.9843 52.8154 100.163 53.1927 100.392C53.5709 100.617 53.9521 100.876 54.3324 101.17L54.3334 101.172Z" fill="url(#paint1_linear_2087_7327)"></path><path d="M41.8455 53.4457C40.2085 53.4457 38.759 53.3697 37.4982 53.2187C36.2364 53.0677 35.328 52.9166 34.773 52.7646V52.2425L34.3223 49.655C34.5625 49.897 34.9904 50.1541 35.606 50.4262C36.2215 50.6982 37.0326 50.9293 38.0392 51.1183C39.0449 51.3073 40.2313 51.4023 41.5983 51.4023C42.6944 51.4023 43.5313 51.3273 44.1101 51.1753C44.6879 51.0243 45.082 50.8082 45.2925 50.5282C45.5029 50.2481 45.6082 49.9271 45.6082 49.564C45.6082 49.1099 45.4354 48.7548 45.0899 48.4978C44.7444 48.2407 44.2113 48.0327 43.4906 47.8737C42.7698 47.7146 41.8386 47.5596 40.6969 47.4086C39.2554 47.2275 38.0799 46.9735 37.1716 46.6484C36.2632 46.3234 35.598 45.8803 35.1781 45.3212C34.7571 44.7621 34.5477 44.0429 34.5477 43.1647C34.5477 42.4386 34.7581 41.7885 35.1781 41.2134C35.598 40.6382 36.2483 40.1882 37.1269 39.8631C38.0055 39.538 39.1432 39.375 40.54 39.375C42.1017 39.375 43.4528 39.451 44.5945 39.602C45.7352 39.7531 46.5394 39.9051 47.005 40.0561V40.5782L47.6811 42.7797C47.3505 42.5836 46.8471 42.3786 46.1721 42.1665C45.496 41.9545 44.6998 41.7775 43.7844 41.6334C42.8681 41.4904 41.8545 41.4184 40.7436 41.4184C39.8878 41.4184 39.2157 41.4824 38.7272 41.6114C38.2388 41.7405 37.8903 41.9255 37.6799 42.1675C37.4694 42.4096 37.3642 42.7127 37.3642 43.0757C37.3642 43.5298 37.5329 43.8929 37.8715 44.1649C38.209 44.437 38.7233 44.653 39.4142 44.8121C40.1052 44.9711 40.9689 45.1111 42.0044 45.2321C43.6266 45.4142 44.9063 45.6742 45.8454 46.0153C46.7836 46.3554 47.4488 46.8064 47.8389 47.3656C48.2291 47.9257 48.4247 48.6368 48.4247 49.499C48.4247 50.1341 48.2896 50.6982 48.0196 51.1893C47.7496 51.6814 47.3396 52.0935 46.7915 52.4265C46.2435 52.7596 45.5565 53.0127 44.7305 53.1867C43.9046 53.3607 42.9436 53.4477 41.8475 53.4477L41.8455 53.4457ZM50.6078 53.2187C50.713 53.2187 50.8143 53.1127 50.9116 52.9006C51.0089 52.6886 51.0575 52.3405 51.0575 51.8564V40.9633C51.0575 40.4792 51.0089 40.1351 50.9116 39.9311C50.8133 39.7271 50.712 39.617 50.6078 39.602H54.3694C54.2642 39.602 54.1589 39.7081 54.0537 39.9201C53.9485 40.1321 53.8958 40.4872 53.8958 40.9863V51.8564C53.8958 52.3405 53.9485 52.6886 54.0537 52.9006C54.1589 53.1127 54.2642 53.2187 54.3694 53.2187H50.6078ZM55.7434 53.2187C55.803 53.2187 55.9082 53.1127 56.0591 52.9006C56.209 52.6886 56.4046 52.3335 56.6448 51.8344C56.7501 51.6074 56.9268 51.2213 57.174 50.6772C57.4222 50.1321 57.7111 49.49 58.0417 48.7478C58.3723 48.0067 58.7178 47.2315 59.0781 46.4214C59.4385 45.6122 59.784 44.8371 60.1146 44.0949C60.4452 43.3538 60.7341 42.7027 60.9823 42.1435C61.2305 41.5844 61.4062 41.1904 61.5114 40.9633C61.706 40.4792 61.8112 40.1311 61.8271 39.9191C61.842 39.7071 61.8122 39.601 61.7368 39.601H66.0166C65.9561 39.601 65.9342 39.7071 65.9491 39.9191C65.964 40.1311 66.0692 40.4792 66.2648 40.9633C66.3552 41.1904 66.52 41.5794 66.7602 42.1315C67.0005 42.6836 67.2814 43.3308 67.6051 44.0719C67.9277 44.8131 68.2653 45.5812 68.6187 46.3754C68.9711 47.1695 69.3126 47.9377 69.6432 48.6788C69.9738 49.42 70.2627 50.0711 70.5109 50.6302C70.7591 51.1903 70.9428 51.5914 71.0629 51.8334C71.2883 52.3325 71.5057 52.6886 71.7162 52.8996C71.9266 53.1117 72.0835 53.2177 72.1887 53.2177H67.7063C67.8414 53.1877 67.9545 53.0667 68.0439 52.8546C68.1342 52.6426 68.1193 52.3025 67.9992 51.8334C67.9843 51.7124 67.9466 51.5654 67.887 51.3903C67.8265 51.2163 67.7748 51.0763 67.7292 50.9703C67.6388 50.7432 67.5525 50.5842 67.4701 50.4932C67.3876 50.4021 67.2705 50.3461 67.1206 50.3231C66.9707 50.3001 66.7453 50.2891 66.4445 50.2891H61.3089C60.9783 50.2891 60.7271 50.3001 60.5544 50.3231C60.3816 50.3461 60.2536 50.4021 60.1712 50.4932C60.0888 50.5842 60.0173 50.7352 59.9567 50.9473C59.9121 51.0833 59.8624 51.2353 59.8108 51.4013C59.7582 51.5684 59.7244 51.7114 59.7095 51.8324C59.5745 52.3315 59.5368 52.6876 59.5973 52.8986C59.6569 53.1107 59.7403 53.2167 59.8455 53.2167H55.7454L55.7434 53.2187ZM61.8926 48.2487H65.7893C66.2251 48.2487 66.4654 48.2107 66.51 48.1347C66.5547 48.0597 66.5329 47.8927 66.4425 47.6356C66.247 47.1515 66.0295 46.6334 65.7893 46.0813C65.549 45.5292 65.3127 44.9851 65.0794 44.447C64.8461 43.9099 64.6287 43.3998 64.4262 42.9147C64.2237 42.4306 64.047 42.0065 63.8971 41.6434H63.8524C63.5665 42.2786 63.2776 42.9367 62.9847 43.6178C62.6918 44.299 62.4138 44.9381 62.1508 45.5352C61.8877 46.1333 61.5988 46.8095 61.2831 47.5666C61.1778 47.8086 61.1401 47.9827 61.1709 48.0887C61.2007 48.1947 61.4409 48.2477 61.8916 48.2477L61.8926 48.2487ZM73.5379 53.2187C73.6431 53.2187 73.7484 53.1127 73.8536 52.9006C73.9588 52.6886 74.0114 52.3405 74.0114 51.8564V40.9633C74.0114 40.4792 73.9588 40.1351 73.8536 39.9311C73.7484 39.7271 73.6431 39.617 73.5379 39.602H78.0878C78.0272 39.602 78.0203 39.7121 78.0649 39.9311C78.1096 40.1502 78.2456 40.5102 78.47 41.0093C78.5752 41.2064 78.7361 41.5424 78.9545 42.0195C79.1719 42.4956 79.435 43.0557 79.7427 43.6988C80.0505 44.342 80.3811 45.0301 80.7335 45.7642C81.086 46.4984 81.4434 47.2435 81.8037 47.9997C82.1641 48.7568 82.5017 49.46 82.8174 50.1101H82.8402C83.1708 49.444 83.5163 48.7368 83.8766 47.9877C84.237 47.2385 84.5974 46.4894 84.9578 45.7412C85.3182 44.9921 85.6517 44.297 85.9605 43.6528C86.2682 43.0097 86.5353 42.4506 86.7597 41.9735C86.985 41.4974 87.1429 41.1603 87.2322 40.9633C87.4427 40.4792 87.5698 40.1311 87.6154 39.9191C87.6601 39.7071 87.6601 39.601 87.6154 39.601H92.1653C92.0601 39.601 91.9549 39.7071 91.8496 39.9191C91.7444 40.1311 91.6918 40.4862 91.6918 40.9853V51.8554C91.6918 52.3395 91.7444 52.6876 91.8496 52.8996C91.9549 53.1117 92.0601 53.2177 92.1653 53.2177H88.4037C88.5089 53.2177 88.6102 53.1117 88.7075 52.8996C88.8048 52.6876 88.8534 52.3395 88.8534 51.8554V43.1407H88.8088C88.5228 43.7158 88.219 44.336 87.8964 45.0021C87.5737 45.6682 87.2431 46.3374 86.9056 47.0105C86.5681 47.6836 86.2524 48.3347 85.9595 48.9619C85.6666 49.59 85.4035 50.1531 85.1712 50.6522C84.9379 51.1513 84.7543 51.5524 84.6192 51.8554C84.4088 52.3245 84.2996 52.6646 84.2926 52.8766C84.2847 53.0887 84.3184 53.2027 84.3939 53.2167H81.2398C81.3153 53.2167 81.349 53.1107 81.3411 52.8986C81.3332 52.6866 81.2249 52.3385 81.0145 51.8544C80.8944 51.5974 80.7216 51.2273 80.4963 50.7422C80.2709 50.2581 80.0157 49.706 79.7308 49.0859C79.4449 48.4658 79.1371 47.8116 78.8075 47.1225C78.4769 46.4344 78.1503 45.7462 77.8277 45.0571C77.505 44.369 77.2002 43.7298 76.9153 43.1397H76.8478V51.8544C76.8478 52.3385 76.9004 52.6866 77.0056 52.8986C77.1109 53.1107 77.2161 53.2167 77.3214 53.2167H73.5369L73.5379 53.2187ZM38.622 68.6967C37.1845 68.6967 36.1073 68.3826 35.3925 67.7555C34.6777 67.1284 34.3203 66.1362 34.3203 64.7799C34.3203 63.9968 34.4662 63.3127 34.7591 62.7266C35.052 62.1414 35.5156 61.6843 36.151 61.3553C36.7864 61.0272 37.6094 60.8622 38.621 60.8622C39.4152 60.8622 40.0754 60.9042 40.6026 60.9882C41.1298 61.0722 41.4842 61.1572 41.6688 61.2413V61.4943L41.92 62.6315C41.7612 62.5225 41.5249 62.4085 41.2112 62.2905C40.8974 62.1724 40.5232 62.0734 40.0883 61.9934C39.6535 61.9134 39.173 61.8734 38.6458 61.8734C37.9012 61.8734 37.3165 61.9974 36.8906 62.2465C36.4637 62.4955 36.1629 62.8386 35.9872 63.2767C35.8115 63.7147 35.7241 64.2158 35.7241 64.7799C35.7241 65.3441 35.8134 65.8432 35.9941 66.2772C36.1738 66.7113 36.4995 67.0524 36.972 67.3004C37.4446 67.5495 38.1236 67.6735 39.0102 67.6735C39.7289 67.6735 40.3286 67.5875 40.8101 67.4145C41.2906 67.2414 41.6192 67.0754 41.7949 66.9154V67.2944L41.92 68.0656C41.778 68.2006 41.4325 68.3396 40.8855 68.4827C40.3375 68.6257 39.583 68.6977 38.622 68.6977V68.6967ZM42.5216 68.5707C42.5554 68.5707 42.6139 68.5117 42.6973 68.3937C42.7807 68.2756 42.8899 68.0776 43.023 67.7995C43.0815 67.6735 43.1818 67.4585 43.3238 67.1554C43.4658 66.8524 43.6325 66.4943 43.8251 66.0812C44.0177 65.6681 44.2183 65.237 44.4268 64.7859C44.6352 64.3359 44.8348 63.9038 45.0224 63.4907C45.2101 63.0776 45.3758 62.7155 45.5178 62.4045C45.6598 62.0934 45.7601 61.8734 45.8186 61.7474C45.9358 61.4783 45.9983 61.2843 46.0063 61.1662C46.0142 61.0482 45.9983 60.9892 45.9556 60.9892H48.1507C48.1169 60.9892 48.105 61.0482 48.1129 61.1662C48.1209 61.2843 48.1794 61.4783 48.2887 61.7474C48.3472 61.8734 48.4435 62.0904 48.5775 62.3985C48.7116 62.7065 48.8724 63.0666 49.06 63.4787C49.2477 63.8918 49.4423 64.3189 49.6428 64.7609C49.8433 65.203 50.0399 65.6311 50.2325 66.0432C50.4251 66.4563 50.5919 66.8183 50.7339 67.1294C50.8758 67.4415 50.9801 67.6645 51.0476 67.7995C51.1816 68.0776 51.3047 68.2756 51.4179 68.3937C51.5311 68.5117 51.6164 68.5707 51.675 68.5707H49.3549C49.4383 68.5537 49.5078 68.4867 49.5614 68.3686C49.616 68.2506 49.6051 68.0616 49.5296 67.8005C49.5127 67.7335 49.484 67.6365 49.4423 67.5095C49.4006 67.3835 49.3628 67.2904 49.3291 67.2314C49.2784 67.1134 49.2288 67.0294 49.1782 66.9784C49.1275 66.9274 49.063 66.8944 48.9836 66.8774C48.9042 66.8604 48.793 66.8524 48.651 66.8524H45.4404C45.2815 66.8524 45.1564 66.8584 45.0641 66.8714C44.9718 66.8844 44.9033 66.9154 44.8576 66.9664C44.812 67.0174 44.7673 67.1014 44.7256 67.2194C44.6918 67.3204 44.6581 67.4215 44.6253 67.5225C44.5916 67.6235 44.5667 67.7165 44.5499 67.8005C44.4744 68.0786 44.4536 68.2766 44.4873 68.3947C44.5211 68.5127 44.5667 68.5717 44.6253 68.5717H42.5186L42.5216 68.5707ZM45.77 65.8422H48.2906C48.5329 65.8422 48.6669 65.8211 48.6917 65.7791C48.7165 65.7371 48.7046 65.6441 48.654 65.5011C48.5448 65.232 48.4197 64.939 48.2777 64.6229C48.1358 64.3069 47.9908 63.9908 47.8449 63.6757C47.6989 63.3597 47.556 63.0566 47.418 62.7656C47.28 62.4745 47.1609 62.2205 47.0606 62.0014H47.0358C46.86 62.3725 46.6804 62.7576 46.4967 63.1576C46.313 63.5577 46.1393 63.9328 45.9765 64.2819C45.8137 64.6319 45.632 65.025 45.4314 65.4631C45.3729 65.5981 45.354 65.6951 45.3749 65.7541C45.3957 65.8131 45.5268 65.8422 45.77 65.8422ZM52.4792 68.5707C52.5377 68.5707 52.5963 68.5117 52.6549 68.3937C52.7134 68.2756 52.7422 68.0826 52.7422 67.8125V61.7484C52.7422 61.4793 52.7125 61.2873 52.6549 61.1732C52.5963 61.0592 52.5377 60.9982 52.4792 60.9902H54.7993C54.7824 60.9902 54.7913 61.0492 54.8241 61.1672C54.8578 61.2853 54.9373 61.4873 55.0624 61.7734C55.113 61.8834 55.2023 62.0764 55.3324 62.3545C55.4614 62.6325 55.6183 62.9636 55.803 63.3467C55.9866 63.7297 56.1832 64.1408 56.3927 64.5789C56.6012 65.017 56.8146 65.4611 57.032 65.9122C57.2494 66.3633 57.4539 66.7863 57.6465 67.1824H57.6595C57.86 66.7783 58.0695 66.3503 58.2869 65.9002C58.5043 65.4501 58.7217 65.001 58.9391 64.5549C59.1566 64.1088 59.3571 63.6937 59.5408 63.3107C59.7244 62.9276 59.8813 62.5985 60.0113 62.3255C60.1404 62.0514 60.2307 61.8604 60.2814 61.7504C60.3985 61.4813 60.476 61.2873 60.5137 61.1692C60.5514 61.0512 60.5613 60.9922 60.5454 60.9922H62.8527C62.7941 60.9922 62.7355 61.0512 62.6769 61.1692C62.6184 61.2873 62.5896 61.4853 62.5896 61.7634V67.8155C62.5896 68.0856 62.6184 68.2786 62.6769 68.3967C62.7355 68.5147 62.7941 68.5737 62.8527 68.5737H60.9336C60.9922 68.5737 61.0488 68.5147 61.1034 68.3967C61.158 68.2786 61.1848 68.0856 61.1848 67.8155V62.5845H61.16C60.9843 62.9386 60.7986 63.3177 60.602 63.7217C60.4055 64.1258 60.2069 64.5329 60.0064 64.941C59.8058 65.3501 59.6172 65.7411 59.4425 66.1162C59.2668 66.4913 59.1099 66.8263 58.9719 67.1204C58.8339 67.4155 58.7277 67.6465 58.6522 67.8155C58.5351 68.0766 58.4745 68.2666 58.4706 68.3837C58.4666 68.5017 58.4854 68.5647 58.5271 68.5727H56.7719C56.8136 68.5727 56.8345 68.5157 56.8345 68.4017C56.8345 68.2876 56.7719 68.0926 56.6468 67.8145C56.5883 67.6715 56.4919 67.4605 56.3579 67.1824C56.2239 66.9044 56.071 66.5783 55.9003 66.2032C55.7285 65.8281 55.5429 65.4331 55.3423 65.016C55.1418 64.5989 54.9432 64.1798 54.7467 63.7588C54.5501 63.3377 54.3644 62.9456 54.1887 62.5835H54.151V67.8145C54.151 68.0846 54.1798 68.2776 54.2384 68.3957C54.2969 68.5137 54.3555 68.5727 54.4141 68.5727H52.4831L52.4792 68.5707ZM67.3648 68.5707C67.4234 68.5707 67.482 68.5117 67.5405 68.3937C67.5991 68.2756 67.6279 68.0826 67.6279 67.8125V61.7484C67.6279 61.4793 67.5981 61.2873 67.5405 61.1732C67.482 61.0592 67.4234 60.9982 67.3648 60.9902H69.2958C69.2372 60.9902 69.1786 61.0492 69.12 61.1672C69.0615 61.2853 69.0327 61.4833 69.0327 61.7614V63.8208C69.0327 64.0058 69.0575 64.1158 69.1081 64.1488C69.1588 64.1828 69.3047 64.1998 69.5469 64.1998H69.672C70.0562 64.1998 70.4494 64.0968 70.8504 63.8908C71.2515 63.6847 71.6109 63.3957 71.9286 63.0256C72.2463 62.6555 72.4677 62.2345 72.5938 61.7624C72.6692 61.4933 72.6831 61.2993 72.6374 61.1812C72.5918 61.0632 72.5352 61.0002 72.4687 60.9922H75.1402C75.0568 60.9922 74.9308 61.0512 74.764 61.1692C74.5962 61.2873 74.4254 61.4853 74.2497 61.7634C74.0323 62.1084 73.8357 62.4035 73.66 62.6475C73.4843 62.8916 73.3155 63.1026 73.1517 63.2797C72.9889 63.4567 72.8112 63.6297 72.6186 63.7978C72.3595 64.0168 72.1291 64.1768 71.9286 64.2778C71.7281 64.3789 71.5772 64.4509 71.4769 64.4929V64.5309C71.6774 64.5729 71.9157 64.6509 72.1917 64.7649C72.4677 64.879 72.7854 65.062 73.1448 65.3141C73.5796 65.6261 73.9578 65.9822 74.2795 66.3813C74.6012 66.7813 74.9039 67.2174 75.1889 67.6885C75.3815 68.0006 75.5562 68.2256 75.716 68.3646C75.8749 68.5037 75.996 68.5727 76.0794 68.5727H73.4456C73.5379 68.5727 73.6124 68.5177 73.6709 68.4087C73.7295 68.2996 73.7126 68.1226 73.6203 67.8776C73.5111 67.5665 73.3443 67.2524 73.1189 66.9364C72.8936 66.6203 72.6126 66.3323 72.2791 66.0712C71.9445 65.8102 71.5603 65.6021 71.1255 65.4461C70.6906 65.2901 70.2101 65.212 69.6829 65.212H69.545C69.2858 65.212 69.1349 65.231 69.0932 65.269C69.0515 65.3071 69.0307 65.4271 69.0307 65.6291V67.8145C69.0307 68.0846 69.0595 68.2776 69.1181 68.3957C69.1766 68.5137 69.2352 68.5727 69.2938 68.5727H67.3628L67.3648 68.5707ZM76.8329 68.5707C76.8915 68.5707 76.9501 68.5117 77.0086 68.3937C77.0672 68.2756 77.096 68.0826 77.096 67.8125V61.7484C77.096 61.4793 77.0662 61.2873 77.0086 61.1732C76.9501 61.0592 76.8915 60.9982 76.8329 60.9902H83.8935V61.2433L84.1447 62.4565C83.9352 62.3635 83.5679 62.2655 83.0407 62.1594C82.5136 62.0544 81.8782 62.0014 81.1346 62.0014H79.015C78.7639 62.0014 78.6159 62.0204 78.5703 62.0584C78.5246 62.0964 78.5018 62.2034 78.5018 62.3805V63.8208C78.5018 64.0058 78.5246 64.1158 78.5703 64.1488C78.6159 64.1828 78.7599 64.1998 79.0031 64.1998H81.0721C81.5565 64.1998 81.9477 64.1728 82.2445 64.1178C82.5414 64.0628 82.736 64.0058 82.8273 63.9468C82.7935 64.0568 82.7558 64.1868 82.7141 64.3389C82.6724 64.4909 82.6387 64.6419 82.6138 64.794C82.589 64.946 82.5761 65.085 82.5761 65.211H79.0021C78.7599 65.211 78.6149 65.226 78.5693 65.255C78.5236 65.285 78.5008 65.3961 78.5008 65.5901V67.1564C78.5008 67.3504 78.5216 67.4645 78.5633 67.4975C78.605 67.5315 78.751 67.5485 79.0021 67.5485H82.6516C83.136 67.5485 83.5272 67.4915 83.824 67.3775C84.1209 67.2634 84.3155 67.1524 84.4068 67.0424L84.1556 68.1796V68.5717H76.8319L76.8329 68.5707ZM78.8264 59.878C78.9515 59.752 79.0935 59.6109 79.2533 59.4549C79.4121 59.2989 79.567 59.1459 79.7169 58.9938L80.0803 58.6277C80.1468 58.5517 80.1935 58.4907 80.2183 58.4447C80.2431 58.3987 80.256 58.3707 80.256 58.3627H81.0085C81.0085 58.3967 81.0631 58.4847 81.1713 58.6277C81.222 58.6868 81.3133 58.7898 81.4473 58.9368C81.5814 59.0838 81.7293 59.2419 81.8921 59.4109C82.0549 59.5799 82.2078 59.735 82.3498 59.878H81.3461L80.6313 59.0188L79.8291 59.878H78.8254H78.8264ZM80.0803 57.7426C80.0217 57.7426 80.0118 57.6666 80.0485 57.5155C80.0862 57.3635 80.1488 57.1765 80.2361 56.9534C80.3235 56.7304 80.4218 56.5113 80.531 56.2963C80.6392 56.0813 80.7315 55.9152 80.807 55.7972C80.9152 55.6292 81.0304 55.5111 81.1515 55.4431C81.2726 55.3761 81.4295 55.3421 81.6221 55.3421H81.7601C82.044 55.3421 82.0688 55.5111 81.8355 55.8472C81.7015 56.0492 81.5516 56.2603 81.3838 56.4793C81.216 56.6984 81.0512 56.9024 80.8884 57.0925C80.7256 57.2815 80.5727 57.4375 80.4307 57.5595C80.2888 57.6816 80.1716 57.7426 80.0793 57.7426H80.0803ZM87.6919 68.5697C87.7505 68.5697 87.809 68.5107 87.8676 68.3927C87.9262 68.2746 87.955 68.0816 87.955 67.8115V62.3785C87.955 62.1934 87.9341 62.0834 87.8924 62.0504C87.8507 62.0164 87.7048 61.9994 87.4536 61.9994H86.5383C86.0528 61.9994 85.6627 62.0524 85.3658 62.1574C85.069 62.2625 84.8744 62.3615 84.7831 62.4545L85.0342 61.2413V60.9882H92.2825V61.2413L92.5336 62.4545C92.4413 62.3615 92.2467 62.2635 91.9509 62.1574C91.654 62.0524 91.2629 61.9994 90.7784 61.9994H89.875C89.6159 61.9994 89.465 62.0164 89.4233 62.0504C89.3816 62.0844 89.3607 62.1934 89.3607 62.3785V67.8115C89.3607 68.0816 89.3895 68.2746 89.4481 68.3927C89.5067 68.5107 89.5652 68.5697 89.6238 68.5697H87.6929H87.6919Z" fill="url(#paint2_linear_2087_7327)"></path></g><defs><linearGradient id="paint0_linear_2087_7327" x1="14.5572" y1="92.987" x2="150.2" y2="20.6708" gradientUnits="userSpaceOnUse"><stop stop-color="#A47F45"></stop><stop offset="0.04" stop-color="#B59757"></stop><stop offset="0.13" stop-color="#D3C477"></stop><stop offset="0.22" stop-color="#E9E48E"></stop><stop offset="0.28" stop-color="#F7F79C"></stop><stop offset="0.33" stop-color="#FCFFA2"></stop><stop offset="0.4" stop-color="#F7F79C"></stop><stop offset="0.5" stop-color="#EBE28B"></stop><stop offset="0.63" stop-color="#D6BF70"></stop><stop offset="0.77" stop-color="#BB8F4B"></stop><stop offset="0.88" stop-color="#A2652A"></stop></linearGradient><linearGradient id="paint1_linear_2087_7327" x1="5.85717" y1="76.6728" x2="141.501" y2="4.35664" gradientUnits="userSpaceOnUse"><stop stop-color="#A47F45"></stop><stop offset="0.04" stop-color="#B59757"></stop><stop offset="0.13" stop-color="#D3C477"></stop><stop offset="0.22" stop-color="#E9E48E"></stop><stop offset="0.28" stop-color="#F7F79C"></stop><stop offset="0.33" stop-color="#FCFFA2"></stop><stop offset="0.4" stop-color="#F7F79C"></stop><stop offset="0.5" stop-color="#EBE28B"></stop><stop offset="0.63" stop-color="#D6BF70"></stop><stop offset="0.77" stop-color="#BB8F4B"></stop><stop offset="0.88" stop-color="#A2652A"></stop></linearGradient><linearGradient id="paint2_linear_2087_7327" x1="29.3306" y1="54.0359" x2="109.544" y2="54.0359" gradientUnits="userSpaceOnUse"><stop stop-color="#A47F45"></stop><stop offset="0.04" stop-color="#B59757"></stop><stop offset="0.13" stop-color="#D3C477"></stop><stop offset="0.22" stop-color="#E9E48E"></stop><stop offset="0.28" stop-color="#F7F79C"></stop><stop offset="0.33" stop-color="#FCFFA2"></stop><stop offset="0.4" stop-color="#F7F79C"></stop><stop offset="0.5" stop-color="#EBE28B"></stop><stop offset="0.63" stop-color="#D6BF70"></stop><stop offset="0.77" stop-color="#BB8F4B"></stop><stop offset="0.88" stop-color="#A2652A"></stop></linearGradient><clipPath id="clip0_2087_7327"><rect width="126" height="113" fill="white" transform="translate(0.429688 0.046875)"></rect></clipPath></defs></svg>