<svg xmlns="http://www.w3.org/2000/svg" width="230" height="33" viewBox="0 0 230 33" fill="none"><path d="M19.215 1.20312C25.7516 11.3968 31.9536 21.0567 38.5165 31.2829C35.3204 31.2829 32.6427 31.4521 30.0044 31.1787C29.2037 31.0941 28.3637 29.9029 27.819 29.0436C25.0363 24.6629 22.3455 20.23 19.2215 15.1657C16.9048 18.9021 14.4306 21.9745 12.9671 25.457C10.4929 31.3414 6.22039 32.3244 0.15625 30.9509C6.46322 21.1153 12.6783 11.4098 19.215 1.20312Z" fill="white"></path><path d="M227.211 20.5724C227.907 18.2811 228.032 15.5992 227.612 13.2298C225.984 4.15579 216.534 -1.50084 207.529 0.946675C198.65 3.36165 193.662 12.644 196.556 21.3926C199.477 30.2258 209.308 34.8344 217.918 31.0394C220.629 29.8417 222.512 29.7701 224.422 32.3413C226.05 30.4536 227.52 28.7481 229.167 26.8409C226.142 25.3177 226.398 23.2542 227.218 20.5789L227.211 20.5724ZM219.959 18.8604C218.726 17.8385 217.748 17.0248 216.534 16.0158C215.031 17.7343 213.633 19.3356 212.123 21.0606C213.101 22.2127 213.974 23.2412 214.886 24.3153C211.034 26.0012 206.84 24.7384 204.491 21.3079C202.075 17.7864 202.443 13.3795 205.409 10.2811C208.33 7.23471 212.97 6.62934 216.481 8.83602C219.979 11.0362 221.489 15.0134 219.966 18.8604H219.959Z" fill="white"></path></svg>