<svg xmlns="http://www.w3.org/2000/svg" width="230" height="33" viewBox="0 0 230 33" fill="none"><g clip-path="url(#clip0_3_1838)"><path d="M151.509 13.9386C151.509 18.3455 151.509 22.7523 151.509 27.1591C151.509 29.9365 150.081 31.3295 147.224 31.3382C146.062 31.3382 144.9 31.3382 143.607 31.3382V1.77917C149.744 0.314562 151.207 0.809274 154.62 5.45695C157.514 9.39512 160.408 13.3398 163.322 17.2584C163.802 17.9028 164.386 18.4627 165.501 19.7059V1.57087H173.088V30.876C167.345 32.3211 165.587 31.7287 162.312 27.2698C158.978 22.7328 155.644 18.1958 152.31 13.6587L151.503 13.9386H151.509Z" fill="white"></path><path d="M129.912 1.35807H136.803C136.875 2.86173 137.02 4.31332 137.006 5.76491C136.947 10.3019 137.269 14.904 136.632 19.3695C135.55 27.0114 128.96 31.8935 120.993 31.6071C113.787 31.3532 107.362 25.5924 106.837 18.3019C106.443 12.8211 106.758 7.2881 106.758 1.52732H113.741C113.741 6.15547 113.446 10.7966 113.859 15.3727C114.082 17.7877 115.047 20.4956 116.576 22.3442C118.532 24.7006 121.623 25.2669 124.681 24.0106C127.621 22.8064 129.603 20.7169 129.748 17.4557C129.925 13.3483 129.873 9.22788 129.912 5.11397C129.925 3.95531 129.912 2.79013 129.912 1.35156V1.35807Z" fill="white"></path><path d="M68.1798 1.2845V8.28206C63.5858 8.28206 59.0443 8.21697 54.5027 8.30159C50.1974 8.3797 46.7585 11.003 46.03 14.5896C45.039 19.4586 48.1761 23.8329 53.2361 24.2105C57.036 24.4969 60.8753 24.3211 64.6949 24.3472C65.7647 24.3537 66.8344 24.3472 68.1076 24.3472V30.7459C61.735 30.7459 55.3231 31.5465 49.213 30.5376C42.2563 29.3919 38.0298 21.8671 38.8567 14.5571C39.6574 7.49443 45.3343 1.94846 52.4223 1.33007C53.2886 1.25196 54.168 1.29101 55.0409 1.29101C59.2936 1.29101 63.5399 1.29101 68.1667 1.29101L68.1798 1.2845Z" fill="white"></path><path d="M101.086 24.3342V31.6767C94.5102 31.2731 87.8751 31.6507 81.6272 30.2707C74.3752 28.6694 70.759 21.5091 71.855 13.6914C72.7738 7.14946 78.6739 1.70113 85.5256 1.34311C89.5618 1.13481 93.6177 1.29104 97.6604 1.28453C98.6383 1.28453 99.6162 1.28453 100.883 1.28453V8.28209C96.4266 8.28209 91.8851 8.21048 87.337 8.30162C82.5592 8.39275 79.0742 11.4587 78.8249 15.6051C78.5361 20.3635 81.391 23.8655 86.1884 24.1975C90.0015 24.4578 93.8343 24.3081 97.6604 24.3407C98.7236 24.3472 99.7868 24.3407 101.08 24.3407L101.086 24.3342Z" fill="white"></path><path d="M181.666 31.335V1.47656H189.299C189.371 2.52457 189.515 3.6572 189.515 4.78332C189.542 12.4513 189.397 20.1259 189.607 27.7874C189.686 30.6385 188.964 31.8102 186.004 31.3675C184.646 31.1657 183.235 31.335 181.666 31.335V31.335Z" fill="white"></path><path d="M19.215 1.20312C25.7516 11.3968 31.9536 21.0567 38.5165 31.2829C35.3204 31.2829 32.6427 31.4521 30.0044 31.1787C29.2037 31.0941 28.3637 29.9029 27.819 29.0436C25.0363 24.6629 22.3455 20.23 19.2215 15.1657C16.9048 18.9021 14.4306 21.9745 12.9671 25.457C10.4929 31.3414 6.22039 32.3244 0.15625 30.9509C6.46322 21.1153 12.6783 11.4098 19.215 1.20312Z" fill="white"></path><path d="M227.211 20.5724C227.907 18.2811 228.032 15.5992 227.612 13.2298C225.984 4.15579 216.534 -1.50084 207.529 0.946675C198.65 3.36165 193.662 12.644 196.556 21.3926C199.477 30.2258 209.308 34.8344 217.918 31.0394C220.629 29.8417 222.512 29.7701 224.422 32.3413C226.05 30.4536 227.52 28.7481 229.167 26.8409C226.142 25.3177 226.398 23.2542 227.218 20.5789L227.211 20.5724ZM219.959 18.8604C218.726 17.8385 217.748 17.0248 216.534 16.0158C215.031 17.7343 213.633 19.3356 212.123 21.0606C213.101 22.2127 213.974 23.2412 214.886 24.3153C211.034 26.0012 206.84 24.7384 204.491 21.3079C202.075 17.7864 202.443 13.3795 205.409 10.2811C208.33 7.23471 212.97 6.62934 216.481 8.83602C219.979 11.0362 221.489 15.0134 219.966 18.8604H219.959Z" fill="white"></path></g><defs><clipPath id="clip0_3_1838"><rect width="229" height="32" fill="white" transform="translate(0.162109 0.375)"></rect></clipPath></defs></svg>