<svg xmlns="http://www.w3.org/2000/svg" width="29" height="28" viewBox="0 0 29 28" fill="none"><path d="M21.6719 5.04688C20.7777 5.04688 20.0469 5.77774 20.0469 6.67188C20.0469 7.56603 20.7777 8.2969 21.6719 8.2969C22.566 8.2969 23.2969 7.56603 23.2969 6.67188C23.2969 5.77774 22.566 5.04688 21.6719 5.04688Z" fill="white"></path><path d="M14.4555 7.13281C10.6924 7.13281 7.63672 10.1962 7.63672 13.9516C7.63672 17.707 10.7001 20.7705 14.4555 20.7705C18.211 20.7705 21.2744 17.707 21.2744 13.9516C21.2744 10.1962 18.211 7.13281 14.4555 7.13281ZM14.4555 18.3213C12.0452 18.3213 10.0859 16.3619 10.0859 13.9516C10.0859 11.5413 12.0452 9.58199 14.4555 9.58199C16.8659 9.58199 18.8252 11.5413 18.8252 13.9516C18.8252 16.3619 16.8659 18.3213 14.4555 18.3213Z" fill="white"></path><path d="M19.8679 27.8046H8.81163C4.22427 27.8046 0.492188 24.0725 0.492188 19.4851V8.42881C0.492188 3.84146 4.22427 0.109375 8.81163 0.109375H19.8679C24.4553 0.109375 28.1874 3.84146 28.1874 8.42881V19.4851C28.1874 24.0725 24.4553 27.8046 19.8679 27.8046ZM8.81163 2.70628C5.66268 2.70628 3.09687 5.27209 3.09687 8.42104V19.4773C3.09687 22.6263 5.66268 25.1921 8.81163 25.1921H19.8679C23.0169 25.1921 25.5827 22.6263 25.5827 19.4773V8.42104C25.5827 5.27209 23.0169 2.70628 19.8679 2.70628H8.81163Z" fill="white"></path></svg>