<svg xmlns="http://www.w3.org/2000/svg" width="50" height="49" viewBox="0 0 50 49" fill="none"><path fill-rule="evenodd" clip-rule="evenodd" d="M25.2725 0.0800781C11.3812 0.0800781 0.615479 10.0886 0.615479 23.6057C0.615479 30.6766 3.56241 36.7862 8.35985 41.0072C8.76171 41.3635 9.00481 41.8563 9.02465 42.3882L9.1586 46.702C9.20325 48.0781 10.647 48.9711 11.9269 48.4197L16.8186 46.297C17.2354 46.1164 17.6968 46.0823 18.1333 46.1994C20.3808 46.8094 22.777 47.1314 25.2725 47.1314C39.1637 47.1314 49.9294 37.1229 49.9294 23.6057C49.9294 10.0886 39.1637 0.0800781 25.2725 0.0800781Z" fill="#052C62"></path><path fill-rule="evenodd" clip-rule="evenodd" d="M10.4685 30.4859L17.7118 19.1843C18.8627 17.3885 21.3334 16.9395 23.0599 18.2132L28.8198 22.4635C29.3506 22.8539 30.075 22.849 30.6009 22.4586L38.38 16.6516C39.4168 15.8757 40.7762 17.1006 40.0767 18.1839L32.8383 29.4807C31.6874 31.2765 29.2167 31.7254 27.4902 30.4518L21.7303 26.2015C21.1995 25.8111 20.4751 25.8159 19.9492 26.2063L12.1652 32.0182C11.1283 32.7941 9.76893 31.5693 10.4685 30.4859Z" fill="white"></path></svg>