<svg xmlns="http://www.w3.org/2000/svg" width="29" height="28" viewBox="0 0 29 28" fill="none"><path fill-rule="evenodd" clip-rule="evenodd" d="M14.0176 0.453125C6.13025 0.453125 0.0175781 6.02425 0.0175781 13.5484C0.0175781 17.4843 1.69082 20.8851 4.41476 23.2347C4.64293 23.433 4.78096 23.7073 4.79223 24.0034L4.86828 26.4046C4.89363 27.1706 5.71335 27.6677 6.44011 27.3608L9.21758 26.1792C9.4542 26.0787 9.71617 26.0597 9.96406 26.1249C11.2401 26.4644 12.6007 26.6437 14.0176 26.6437C21.9049 26.6437 28.0176 21.0725 28.0176 13.5484C28.0176 6.02425 21.9049 0.453125 14.0176 0.453125Z" fill="white"></path><path fill-rule="evenodd" clip-rule="evenodd" d="M5.61194 17.3778L9.72461 11.0868C10.3781 10.0872 11.7809 9.83732 12.7612 10.5463L16.0317 12.9122C16.3331 13.1295 16.7443 13.1268 17.0429 12.9094L21.4598 9.67705C22.0486 9.24516 22.8204 9.92695 22.4232 10.53L18.3133 16.8182C17.6598 17.8178 16.257 18.0677 15.2767 17.3587L12.0063 14.9928C11.7049 14.7755 11.2936 14.7783 10.995 14.9956L6.57532 18.2307C5.98658 18.6626 5.21475 17.9808 5.61194 17.3778Z" fill="#052C62"></path></svg>