<svg xmlns="http://www.w3.org/2000/svg" width="53" height="53" viewBox="0 0 53 53" fill="none"><rect x="0.272461" y="0.754883" width="52" height="52" rx="26" fill="#E0A34F"></rect><path d="M18.8999 23.8355C20.0035 25.836 21.2755 27.756 22.9269 29.5068C24.5836 31.2683 26.6438 32.8714 29.3106 34.2409C29.5084 34.3376 29.6954 34.3376 29.8638 34.2704C30.1176 34.1738 30.3768 33.9616 30.6307 33.7065C30.8284 33.5078 31.0743 33.191 31.3308 32.8446C32.3569 31.4885 33.6262 29.8048 35.4192 30.648C35.4593 30.6668 35.4887 30.6883 35.5287 30.7044L41.509 34.1604C41.5277 34.1711 41.5491 34.1899 41.5652 34.2006C42.3534 34.7457 42.6794 35.5862 42.6875 36.5395C42.6875 37.5089 42.3321 38.5991 41.811 39.5202C41.1216 40.7366 40.1062 41.5422 38.9357 42.0738C37.8215 42.5894 36.5816 42.866 35.3898 43.0432C33.5193 43.3198 31.7664 43.1426 29.9733 42.5894C28.2204 42.0443 26.4541 41.1447 24.5248 39.9471L24.3832 39.8558C23.4987 39.3 22.5421 38.7065 21.6041 38.0057C18.1731 35.4009 14.6752 31.6389 12.3959 27.4982C10.4853 24.0235 9.44316 20.2721 10.0123 16.698C10.3276 14.7378 11.164 12.9548 12.623 11.7786C13.895 10.7475 15.6078 10.1836 17.8257 10.3823C18.0796 10.4011 18.3067 10.5488 18.4269 10.769L22.2615 17.2834C22.8226 18.0138 22.8921 18.7388 22.5848 19.4639C22.331 20.0573 21.8179 20.6051 21.1178 21.1153C20.9121 21.2925 20.6662 21.4725 20.407 21.6604C19.5493 22.2861 18.5739 23.0084 18.9079 23.857L18.8999 23.8355Z" fill="white"></path></svg>