<svg xmlns="http://www.w3.org/2000/svg" width="25" height="29" viewBox="0 0 25 29" fill="none"><path d="M24.6094 12.2814C24.3839 12.3048 24.1507 12.3126 23.9174 12.3203C21.3905 12.3203 19.0346 11.0452 17.6506 8.93035V20.4609C17.6506 25.1727 13.833 28.9825 9.12901 28.9825C4.42503 28.9825 0.607422 25.1649 0.607422 20.4609C0.607422 15.757 4.42503 11.9393 9.12901 11.9393C9.30784 11.9393 9.4789 11.9549 9.65773 11.9627V16.1613C9.48667 16.1379 9.30784 16.1068 9.12901 16.1068C6.72649 16.1068 4.77492 18.0584 4.77492 20.4609C4.77492 22.8635 6.72649 24.815 9.12901 24.815C11.5315 24.815 13.6542 22.9179 13.6542 20.5154L13.693 0.929688H17.7128C18.0938 4.53737 20.9939 7.35199 24.6094 7.61634V12.2814Z" fill="white"></path></svg>