<svg xmlns="http://www.w3.org/2000/svg" width="57" height="22" viewBox="0 0 57 22" fill="none"><g clip-path="url(#clip0_47_400)"><path fill-rule="evenodd" clip-rule="evenodd" d="M28.9329 6.50509V5.47979H31.952V19.8966H30.2248C29.5137 19.8966 28.9366 19.3125 28.9329 18.5902C28.9324 18.5906 28.932 18.5909 28.9315 18.5913C27.7155 19.4959 26.2123 20.0328 24.5886 20.0328C20.5223 20.0328 17.2253 16.6813 17.2253 12.5477C17.2253 8.41407 20.5223 5.06251 24.5886 5.06251C26.2123 5.06251 27.7155 5.59948 28.9315 6.50404C28.932 6.50439 28.9324 6.50474 28.9329 6.50509ZM16.4429 0.84375V1.31117C16.4429 2.18293 16.3284 2.89469 15.7715 3.7297L15.7041 3.8079C15.5825 3.94809 15.2971 4.27748 15.1613 4.45623L5.46914 16.8307H16.4429V18.5825C16.4429 19.3084 15.864 19.8965 15.15 19.8965H0.931641V19.0705C0.931641 18.0589 1.17874 17.6077 1.49107 17.1374L11.8232 4.12864H1.36238V0.84375H16.4429ZM35.6138 19.8966C35.02 19.8966 34.5371 19.4057 34.5371 18.8024V0.843822H37.7689V19.8966H35.6138ZM47.324 4.97223C51.4187 4.97223 54.737 8.34902 54.737 12.5078C54.737 16.6703 51.4187 20.0471 47.324 20.0471C43.2293 20.0471 39.911 16.6703 39.911 12.5078C39.911 8.34902 43.2293 4.97223 47.324 4.97223ZM24.5886 16.9516C26.9816 16.9516 28.9208 14.9803 28.9208 12.5477C28.9208 10.1187 26.9816 8.14739 24.5886 8.14739C22.1956 8.14739 20.2564 10.1187 20.2564 12.5477C20.2564 14.9803 22.1956 16.9516 24.5886 16.9516ZM47.324 16.9442C49.7312 16.9442 51.6846 14.9585 51.6846 12.5078C51.6846 10.0608 49.7312 8.07549 47.324 8.07549C44.9133 8.07549 42.9634 10.0608 42.9634 12.5078C42.9634 14.9585 44.9133 16.9442 47.324 16.9442Z" fill="#F8F8F7"></path></g><defs><clipPath id="clip0_47_400"><rect width="55.2037" height="20.2155" fill="white" transform="translate(0.931641 0.84375)"></rect></clipPath></defs></svg>